0
SECTION
2
HEADER
9
$INSUNITS
70
4
9
$ACADVER
1
AC1014
9
$HANDSEED
5
FFFF
0
ENDSEC
0
SECTION
2
TABLES
0
TABLE
2
VPORT
5
8
100
AcDbSymbolTable
0
ENDTAB
0
TABLE
2
LTYPE
5
5
100
AcDbSymbolTable
0
LTYPE
5
14
100
AcDbSymbolTableRecord
100
AcDbLinetypeTableRecord
2
BYBLOCK
70
0
0
LTYPE
5
15
100
AcDbSymbolTableRecord
100
AcDbLinetypeTableRecord
2
BYLAYER
70
0
0
ENDTAB
0
TABLE
2
LAYER
5
2
100
AcDbSymbolTable
70
2
0
LAYER
5
50
100
AcDbSymbolTableRecord
100
AcDbLayerTableRecord
2
0
70
0
6
CONTINUOUS
0
ENDTAB
0
TABLE
2
STYLE
5
3
100
AcDbSymbolTable
70
1
0
STYLE
5
11
100
AcDbSymbolTableRecord
100
AcDbTextStyleTableRecord
2
STANDARD
70
0
0
ENDTAB
0
TABLE
2
VIEW
5
6
100
AcDbSymbolTable
70
0
0
ENDTAB
0
TABLE
2
UCS
5
7
100
AcDbSymbolTable
70
0
0
ENDTAB
0
TABLE
2
APPID
5
9
100
AcDbSymbolTable
70
2
0
APPID
5
12
100
AcDbSymbolTableRecord
100
AcDbRegAppTableRecord
2
ACAD
70
0
0
ENDTAB
0
TABLE
2
DIMSTYLE
5
A
100
AcDbSymbolTable
70
1
0
ENDTAB
0
TABLE
2
BLOCK_RECORD
5
1
100
AcDbSymbolTable
70
1
0
BLOCK_RECORD
5
1F
100
AcDbSymbolTableRecord
100
AcDbBlockTableRecord
2
*MODEL_SPACE
0
BLOCK_RECORD
5
1B
100
AcDbSymbolTableRecord
100
AcDbBlockTableRecord
2
*PAPER_SPACE
0
ENDTAB
0
ENDSEC
0
SECTION
2
BLOCKS
0
BLOCK
5
20
100
AcDbEntity
100
AcDbBlockBegin
2
*MODEL_SPACE
0
ENDBLK
5
21
100
AcDbEntity
100
AcDbBlockEnd
0
BLOCK
5
1C
100
AcDbEntity
100
AcDbBlockBegin
2
*PAPER_SPACE
0
ENDBLK
5
1D
100
AcDbEntity
100
AcDbBlockEnd
0
ENDSEC
0
SECTION
2
ENTITIES
0
LWPOLYLINE
5
100
100
AcDbEntity
8
0
100
AcDbPolyline
90
4
70
1
43
0.0
10
51.000000759959221
20
95.500001423060894
10
51.000000759959221
20
84.00000125169754
10
62.000000923871994
20
84.00000125169754
10
62.000000923871994
20
95.500001423060894
0
LWPOLYLINE
5
101
100
AcDbEntity
8
0
100
AcDbPolyline
90
4
70
1
43
0.0
10
52.218836274828988
20
94.075023885223345
10
52.218836274828988
20
85.500001274049282
10
60.741129963587859
20
85.500001274049282
10
60.741129963587859
20
94.000001400709152
0
LWPOLYLINE
5
102
100
AcDbEntity
8
0
100
AcDbPolyline
90
4
70
1
43
0.0
10
54.247388875997117
20
92.012961732434434
10
54.247388875997117
20
87.500001303851604
10
58.827429503450531
20
87.500001303851604
10
58.827429503450531
20
92.012961732434434
0
LWPOLYLINE
5
103
100
AcDbEntity
8
0
100
AcDbPolyline
90
300
70
1
43
0.0
10
65.500000976026058
20
94.000001400709152
10
65.500000976026058
20
92.00000137090683
10
67.500001005828381
20
92.00000137090683
10
67.500001005828381
20
93.638141332812125
10
68.594027349290656
20
93.638141332812125
10
68.594027349290656
20
92.00000137090683
10
70.297778428073073
20
92.00000137090683
10
70.297778428073073
20
90.374498962496403
10
74.000001102685928
20
90.374498962496403
10
74.000001102685928
20
92.00000137090683
10
75.641330741305694
20
92.00000137090683
10
75.641330741305694
20
93.692136965003982
10
78.500001169741154
20
93.692136965003982
10
78.500001169741154
20
92.50000137835741
10
76.819068445939408
20
92.50000137835741
10
76.819068445939408
20
90.861525749599139
10
75.185428112204676
20
90.861525749599139
10
75.185428112204676
20
89.18529494225632
10
69.000001028180122
20
89.18529494225632
10
69.000001028180122
20
90.825661631382886
10
65.319733435462382
20
90.825661631382886
10
65.319733435462382
20
89.18529494225632
10
63.69260382990074
20
89.18529494225632
10
63.69260382990074
20
87.000001296401024
10
65.273205062161381
20
87.000001296401024
10
65.273205062161381
20
86.000001281499863
10
63.69260382990074
20
86.000001281499863
10
63.69260382990074
20
82.672131112942111
10
60.500000901520252
20
82.672131112942111
10
60.500000901520252
20
81.000001206994057
10
57.500000856816769
20
81.000001206994057
10
57.500000856816769
20
82.672131112942111
10
53.841557393200247
20
82.672131112942111
10
53.841557393200247
20
81.000001206994057
10
50.50000075250864
20
81.000001206994057
10
50.50000075250864
20
79.000001177191734
10
52.170779072854444
20
79.000001177191734
10
52.170779072854444
20
77.729639411289426
10
50.50000075250864
20
77.729639411289426
10
50.50000075250864
20
75.657403012979728
10
52.500000782310963
20
75.657403012979728
10
52.500000782310963
20
77.302525183469044
10
57.000000849366188
20
77.302525183469044
10
57.000000849366188
20
76.000001132488251
10
53.839972473175266
20
76.000001132488251
10
53.839972473175266
20
74.000001102685928
10
57.000000849366188
20
74.000001102685928
10
57.000000849366188
20
72.788945143903348
10
53.839972473175266
20
72.788945143903348
10
53.839972473175266
20
71.164728386696709
10
52.67010343226832
20
71.164728386696709
10
52.67010343226832
20
72.720028027805967
10
50.50000075250864
20
72.720028027805967
10
50.50000075250864
20
65.769986438669036
10
52.67010343226832
20
65.769986438669036
10
52.67010343226832
20
67.372717060356067
10
55.500000827014446
20
67.372717060356067
10
55.500000827014446
20
65.769986438669036
10
57.500000856816769
20
65.769986438669036
10
57.500000856816769
20
69.106972034935154
10
58.722363651617336
20
69.106972034935154
10
58.722363651617336
20
64.649995368650409
10
50.50000075250864
20
64.649995368650409
10
50.50000075250864
20
60.853207504964104
10
52.180806424501959
20
60.853207504964104
10
52.180806424501959
20
59.670406921754513
10
50.50000075250864
20
59.670406921754513
10
50.50000075250864
20
55.99999874830246
10
52.180806424501959
20
55.99999874830246
10
52.180806424501959
20
54.299998786300421
10
54.299998786300421
20
54.299998786300421
10
54.299998786300421
20
56.399998739361763
10
52.599998824298382
20
56.399998739361763
10
52.599998824298382
20
57.499998714774847
10
54.299998786300421
20
57.499998714774847
10
54.299998786300421
20
59.199998676776886
10
55.499998759478331
20
59.199998676776886
10
55.499998759478331
20
55.899998750537634
10
58.799998685717583
20
55.899998750537634
10
58.799998685717583
20
54.299998786300421
10
62.499998603016138
20
54.299998786300421
10
62.499998603016138
20
56.399998739361763
10
59.199998676776886
20
56.399998739361763
10
59.199998676776886
20
59.199998676776886
10
60.399998649954796
20
59.199998676776886
10
60.399998649954796
20
57.599998712539673
10
64.099998567253351
20
57.599998712539673
10
64.099998567253351
20
59.199998676776886
10
65.699998531490564
20
59.199998676776886
10
65.699998531490564
20
61.299998629838228
10
62.499998603016138
20
61.299998629838228
10
62.499998603016138
20
62.500000931322575
10
64.099998567253351
20
62.500000931322575
10
64.099998567253351
20
64.000000953674316
10
65.79999852925539
20
64.000000953674316
10
65.79999852925539
20
67.500001005828381
10
68.500001020729542
20
67.500001005828381
10
68.500001020729542
20
66.275284970829333
10
67.0000009983778
20
66.275284970829333
10
67.0000009983778
20
64.000000953674316
10
71.878723194997335
20
64.000000953674316
10
71.878723194997335
20
62.500000931322575
10
75.00000111758709
20
62.500000931322575
10
75.00000111758709
20
61.343567941830131
10
73.439362156292219
20
61.343567941830131
10
73.439362156292219
20
57.500000856816769
10
75.199998319149017
20
57.500000856816769
10
75.199998319149017
20
52.699998822063208
10
78.399998247623444
20
52.699998822063208
10
78.399998247623444
20
51.499998848885298
10
76.79999828338623
20
51.499998848885298
10
76.79999828338623
20
49.399998895823956
10
78.499998245388269
20
49.399998895823956
10
78.499998245388269
20
45.000000670552254
10
75.665086319061601
20
45.000000670552254
10
75.665086319061601
20
46.139700900356431
10
77.271302937972138
20
46.139700900356431
10
77.271302937972138
20
48.177023809109976
10
75.156454306731717
20
48.177023809109976
10
75.156454306731717
20
46.500000692903996
10
72.370536022444242
20
46.500000692903996
10
72.370536022444242
20
47.791149900005237
10
74.000001102685928
20
47.791149900005237
10
74.000001102685928
20
49.500000737607479
10
75.665086319061601
20
49.500000737607479
10
75.665086319061601
20
51.500000767409801
10
72.274831984498348
20
51.500000767409801
10
72.274831984498348
20
54.322641800367663
10
73.969959151779975
20
54.322641800367663
10
73.969959151779975
20
56.39286391819045
10
70.71231747298242
20
56.39286391819045
10
70.71231747298242
20
57.633988578712504
10
72.341138312381204
20
57.633988578712504
10
72.341138312381204
20
59.662237348298333
10
69.000001028180122
20
59.662237348298333
10
69.000001028180122
20
60.999998636543751
10
70.670569670280656
20
60.999998636543751
10
70.670569670280656
20
62.899998594075441
10
66.9999985024333
20
62.899998594075441
10
66.9999985024333
20
59.199998676776886
10
68.599998466670513
20
59.199998676776886
10
68.599998466670513
20
57.999998703598976
10
65.299998540431261
20
57.999998703598976
10
65.299998540431261
20
56.39286391819045
10
63.699998576194048
20
56.39286391819045
10
63.699998576194048
20
50.999998860061169
10
65.299998540431261
20
50.999998860061169
10
65.299998540431261
20
49.399998895823956
10
69.099998455494642
20
49.399998895823956
10
69.099998455494642
20
50.999998860061169
10
71.799998395144939
20
50.999998860061169
10
71.799998395144939
20
48.240387606752563
10
70.242820894924421
20
48.240387606752563
10
70.242820894924421
20
44.49999900534749
10
73.499998357146978
20
44.49999900534749
10
73.499998357146978
20
42.799999043345451
10
75.099998321384192
20
42.799999043345451
10
75.099998321384192
20
41.256914957861156
10
77.199998274445534
20
41.256914957861156
10
77.199998274445534
20
42.799999043345451
10
78.399998247623444
20
42.799999043345451
10
78.399998247623444
20
41.256914957861156
10
83.799998126924038
20
41.256914957861156
10
83.799998126924038
20
42.799999043345451
10
85.399998091161251
20
42.799999043345451
10
85.399998091161251
20
44.399999007582664
10
87.09999805316329
20
44.399999007582664
10
87.09999805316329
20
48.199998922646046
10
83.49999813362956
20
48.199998922646046
10
83.49999813362956
20
46.099998969584703
10
84.999998100101948
20
46.099998969584703
10
84.999998100101948
20
44.899998996406794
10
80.499998200684786
20
44.899998996406794
10
80.499998200684786
20
46.099998969584703
10
82.099998164921999
20
46.099998969584703
10
82.099998164921999
20
51.399998851120472
10
80.499998200684786
20
51.399998851120472
10
80.499998200684786
20
53.099998813122511
10
78.899998236447573
20
53.099998813122511
10
78.899998236447573
20
56.000000834465027
10
79.999998211860657
20
56.000000834465027
10
79.999998211860657
20
54.299998786300421
10
82.199998162686825
20
54.299998786300421
10
82.199998162686825
20
56.299998741596937
10
80.499998200684786
20
56.299998741596937
10
80.499998200684786
20
60.899998638778925
10
81.699998173862696
20
60.899998638778925
10
81.699998173862696
20
57.599998712539673
10
83.799998126924038
20
57.599998712539673
10
83.799998126924038
20
59.249998675659299
10
84.999998100101948
20
59.249998675659299
10
84.999998100101948
20
57.599998712539673
10
88.2999980263412
20
57.599998712539673
10
88.2999980263412
20
53.099998813122511
10
86.649998063221574
20
53.099998813122511
10
86.649998063221574
20
51.499998848885298
10
83.399998135864735
20
51.499998848885298
10
83.399998135864735
20
49.399998895823956
10
88.2999980263412
20
49.399998895823956
10
88.2999980263412
20
47.699998933821917
10
89.899997990578413
20
47.699998933821917
10
89.899997990578413
20
42.799999043345451
10
93.199997916817665
20
42.799999043345451
10
93.199997916817665
20
41.199999079108238
10
101.79999772459269
20
41.099999081343412
10
101.79999772459269
20
43.29999903216958
10
93.599997907876968
20
43.29999903216958
10
93.599997907876968
20
44.49999900534749
10
95.299997869879007
20
44.49999900534749
10
95.299997869879007
20
46.099998969584703
10
96.89999783411622
20
46.099998969584703
10
96.89999783411622
20
47.699998933821917
10
103.49999768659472
20
47.699998933821917
10
103.49999768659472
20
49.29999889805913
10
105.19999764859676
20
49.29999889805913
10
105.19999764859676
20
51.499998848885298
10
98.599997796118259
20
51.499998848885298
10
98.599997796118259
20
55.899998750537634
10
100.19999776035547
20
55.899998750537634
10
100.19999776035547
20
57.599998712539673
10
102.9999976977706
20
57.599998712539673
10
102.9999976977706
20
56.399998739361763
10
101.39999773353338
20
56.399998739361763
10
101.39999773353338
20
54.299998786300421
10
103.49999768659472
20
54.299998786300421
10
103.49999768659472
20
55.799998752772808
10
103.49999768659472
20
55.899998750537634
10
105.09999765083194
20
55.899998750537634
10
105.09999765083194
20
62.899998594075441
10
103.49999768659472
20
62.899998594075441
10
103.49999768659472
20
65.699998531490564
10
103.49999768659472
20
65.79999852925539
10
105.09999765083194
20
65.79999852925539
10
105.09999765083194
20
67.799998484551907
10
103.49999768659472
20
67.799998484551907
10
103.49999768659472
20
68.999998457729816
10
105.09999765083194
20
68.999998457729816
10
105.09999765083194
20
71.099998410791159
10
103.09999769553542
20
71.099998410791159
10
103.09999769553542
20
69.499998446553946
10
101.79999772459269
20
69.499998446553946
10
101.79999772459269
20
71.099998410791159
10
98.599997796118259
20
71.099998410791159
10
98.599997796118259
20
72.299998383969069
10
101.79999772459269
20
72.299998383969069
10
101.79999772459269
20
73.999998345971107
10
105.09999765083194
20
73.999998345971107
10
105.09999765083194
20
75.999998301267624
10
101.49999773129821
20
75.999998301267624
10
101.49999773129821
20
74.399998337030411
10
100.19999776035547
20
74.399998337030411
10
100.19999776035547
20
77.699998263269663
10
93.599997907876968
20
77.699998263269663
10
93.599997907876968
20
78.899998236447573
10
95.199997872114182
20
78.899998236447573
10
95.199997872114182
20
82.500001229345798
10
91.794797551719967
20
82.500001229345798
10
91.794797551719967
20
77.715061786653024
10
90.352867099530627
20
77.715061786653024
10
90.352867099530627
20
81.000001206994057
10
88.399998024106026
20
81.000001206994057
10
88.399998024106026
20
79.35753149682354
10
85.500001274049282
20
79.35753149682354
10
85.500001274049282
20
80.500001199543476
10
87.000001296401024
20
80.500001199543476
10
87.000001296401024
20
82.219976088972572
10
90.387541296726269
20
82.219976088972572
10
90.387541296726269
20
83.782886816515088
10
92.00000137090683
20
83.782886816515088
10
92.00000137090683
20
87.458353543691345
10
90.387541296726269
20
87.458353543691345
10
90.387541296726269
20
93.737615684508896
10
92.00000137090683
20
93.737615684508896
10
92.00000137090683
20
95.727719998066874
10
88.333750118565973
20
95.727719998066874
10
88.333750118565973
20
87.500001303851604
10
87.000001296401024
20
87.500001303851604
10
87.000001296401024
20
89.199998006224632
10
82.164019653102656
20
89.199998006224632
10
82.164019653102656
20
90.352656538087814
10
85.500001274049282
20
90.352656538087814
10
85.500001274049282
20
94.142827474947325
10
83.366839182942982
20
94.142827474947325
10
83.366839182942982
20
92.50000137835741
10
82.164019653102656
20
92.50000137835741
10
82.164019653102656
20
95.785653571537239
10
80.000001192092896
20
95.785653571537239
10
80.000001192092896
20
94.091595808961998
10
78.870964918519007
20
94.091595808961998
10
78.870964918519007
20
95.785653571537239
10
73.500001095235348
20
95.785653571537239
10
73.500001095235348
20
92.50000137835741
10
72.326345904201247
20
92.50000137835741
10
72.326345904201247
20
95.683190239566585
10
70.342734670251275
20
95.683190239566585
10
70.342734670251275
20
94.091595808961998
10
69.000001028180122
20
94.091595808961998
10
69.000001028180122
20
95.804925156995324
10
67.0000009983778
20
95.804925156995324
10
67.0000009983778
20
94.000001400709152
0
LWPOLYLINE
5
104
100
AcDbEntity
8
0
100
AcDbPolyline
90
4
70
1
43
0.0
10
81.68239696660622
20
88.778466155761606
10
80.499998200684786
20
88.778466155761606
10
80.499998200684786
20
87.500001303851604
10
81.68239696660622
20
87.500001303851604
0
LWPOLYLINE
5
105
100
AcDbEntity
8
0
100
AcDbPolyline
90
6
70
1
43
0.0
10
80.000001192092896
20
92.00000137090683
10
78.853874772582401
20
92.00000137090683
10
78.853874772582401
20
90.389233763334218
10
77.252106177490063
20
90.389233763334218
10
77.252106177490063
20
89.18529494225632
10
80.000001192092896
20
89.18529494225632
0
LWPOLYLINE
5
106
100
AcDbEntity
8
0
100
AcDbPolyline
90
6
70
1
43
0.0
10
86.697053278927285
20
82.643128421576193
10
86.697053278927285
20
87.146430722357621
10
83.819877384887391
20
87.146430722357621
10
83.819877384887391
20
86.000001281499863
10
85.500001274049282
20
86.000001281499863
10
85.500001274049282
20
82.643128421576193
0
LWPOLYLINE
5
107
100
AcDbEntity
8
0
100
AcDbPolyline
90
4
70
1
43
0.0
10
88.699998017400503
20
87.09999805316329
10
88.699998017400503
20
84.299998115748167
10
89.899997990578413
20
84.299998115748167
10
89.899997990578413
20
87.09999805316329
0
LWPOLYLINE
5
108
100
AcDbEntity
8
0
100
AcDbPolyline
90
49
70
1
43
0.0
10
84.999998100101948
20
78.899998236447573
10
82.099998164921999
20
78.899998236447573
10
82.099998164921999
20
77.29999827221036
10
80.499998200684786
20
77.29999827221036
10
80.499998200684786
20
75.599998310208321
10
77.199998274445534
20
75.599998310208321
10
77.199998274445534
20
74.399998337030411
10
78.699998240917921
20
74.399998337030411
10
78.699998240917921
20
72.49999837949872
10
76.79999828338623
20
72.49999837949872
10
76.79999828338623
20
73.999998345971107
10
75.199998319149017
20
73.999998345971107
10
75.199998319149017
20
75.799998305737972
10
75.099998321384192
20
75.799998305737972
10
73.499998357146978
20
75.799998305737972
10
73.499998357146978
20
77.29999827221036
10
68.999998457729816
20
77.29999827221036
10
68.999998457729816
20
75.899998303502798
10
72.299998383969069
20
75.899998303502798
10
72.299998383969069
20
74.399998337030411
10
73.999998345971107
20
74.399998337030411
10
73.999998345971107
20
72.699998375028372
10
75.599998310208321
20
72.699998375028372
10
75.599998310208321
20
72.49999837949872
10
75.599998310208321
20
69.39999844878912
10
80.39999820291996
20
69.39999844878912
10
80.39999820291996
20
67.399998493492603
10
78.599998243153095
20
67.399998493492603
10
78.599998243153095
20
65.899998527020216
10
76.79999828338623
20
65.899998527020216
10
76.79999828338623
20
67.399998493492603
10
71.899998392909765
20
67.399998493492603
10
71.899998392909765
20
68.999998457729816
10
70.699998419731855
20
68.999998457729816
10
70.699998419731855
20
66.199998520314693
10
75.599998310208321
20
66.199998520314693
10
75.599998310208321
20
62.899998594075441
10
78.499998245388269
20
62.899998594075441
10
78.499998245388269
20
64.59999855607748
10
80.099998209625483
20
64.59999855607748
10
80.099998209625483
20
66.199998520314693
10
81.749998172745109
20
66.199998520314693
10
81.749998172745109
20
70.699998419731855
10
80.099998209625483
20
70.699998419731855
10
80.099998209625483
20
70.899998415261507
10
80.099998209625483
20
74.399998337030411
10
83.399998135864735
20
74.399998337030411
10
83.399998135864735
20
77.699998263269663
10
84.999998100101948
20
77.699998263269663
0
LWPOLYLINE
5
109
100
AcDbEntity
8
0
100
AcDbPolyline
90
4
70
1
43
0.0
10
65.740807209592134
20
88.745740947350882
10
68.500001020729542
20
88.745740947350882
10
68.500001020729542
20
87.500001303851604
10
65.726379924513367
20
87.500001303851604
0
LWPOLYLINE
5
110
100
AcDbEntity
8
0
100
AcDbPolyline
90
4
70
1
43
0.0
10
65.699998531490564
20
85.499998088926077
10
65.699998531490564
20
84.299998115748167
10
66.9999985024333
20
84.299998115748167
10
66.9999985024333
20
85.499998088926077
0
LWPOLYLINE
5
111
100
AcDbEntity
8
0
100
AcDbPolyline
90
4
70
1
43
0.0
10
72.299998383969069
20
87.199998050928116
10
73.499998357146978
20
87.199998050928116
10
73.499998357146978
20
84.199998117983341
10
72.299998383969069
20
84.199998117983341
0
LWPOLYLINE
5
112
100
AcDbEntity
8
0
100
AcDbPolyline
90
4
70
1
43
0.0
10
81.999998167157173
20
85.599998086690903
10
83.49999813362956
20
85.599998086690903
10
83.49999813362956
20
84.199998117983341
10
81.999998167157173
20
84.199998117983341
0
LWPOLYLINE
5
113
100
AcDbEntity
8
0
100
AcDbPolyline
90
4
70
1
43
0.0
10
96.699997838586569
20
82.299998160451651
10
96.699997838586569
20
80.799998193979263
10
98.299997802823782
20
80.799998193979263
10
98.299997802823782
20
82.299998160451651
0
LWPOLYLINE
5
114
100
AcDbEntity
8
0
100
AcDbPolyline
90
6
70
1
43
0.0
10
101.59999772906303
20
78.999998234212399
10
101.59999772906303
20
77.499998267740011
10
104.89999765530229
20
77.499998267740011
10
104.89999765530229
20
80.599998198449612
10
103.3999976888299
20
80.599998198449612
10
103.3999976888299
20
78.999998234212399
0
LWPOLYLINE
5
115
100
AcDbEntity
8
0
100
AcDbPolyline
90
12
70
1
43
0.0
10
75.599998310208321
20
87.199998050928116
10
76.899998281151056
20
87.199998050928116
10
76.899998281151056
20
83.899998124688864
10
78.599998243153095
20
83.899998124688864
10
78.599998243153095
20
85.54999808780849
10
80.099998209625483
20
85.54999808780849
10
80.099998209625483
20
82.499998155981302
10
78.599998243153095
20
82.499998155981302
10
78.599998243153095
20
79.299998227506876
10
77.199998274445534
20
79.299998227506876
10
77.199998274445534
20
82.399998158216476
10
75.599998310208321
20
82.399998158216476
0
LWPOLYLINE
5
116
100
AcDbEntity
8
0
100
AcDbPolyline
90
4
70
1
43
0.0
10
54.199998788535595
20
80.599998198449612
10
54.199998788535595
20
79.19999822974205
10
55.499998759478331
20
79.19999822974205
10
55.499998759478331
20
80.599998198449612
0
LWPOLYLINE
5
117
100
AcDbEntity
8
0
100
AcDbPolyline
90
22
70
1
43
0.0
10
98.199997805058956
20
74.099998343735933
10
98.199997805058956
20
72.699998375028372
10
96.599997840821743
20
72.699998375028372
10
96.599997840821743
20
70.999998413026333
10
95.099997874349356
20
70.999998413026333
10
95.099997874349356
20
69.499998446553946
10
93.599997907876968
20
69.499998446553946
10
93.599997907876968
20
70.999998413026333
10
91.999997943639755
20
70.999998413026333
10
91.999997943639755
20
72.599998377263546
10
90.099997986108065
20
72.599998377263546
10
90.099997986108065
20
70.999998413026333
10
86.999998055398464
20
70.999998413026333
10
86.999998055398464
20
74.099998343735933
10
90.099997986108065
20
74.099998343735933
10
90.099997986108065
20
75.699998307973146
10
91.699997950345278
20
75.699998307973146
10
91.699997950345278
20
74.099998343735933
10
93.499997910112143
20
74.099998343735933
10
93.499997910112143
20
75.699998307973146
10
94.899997878819704
20
75.699998307973146
10
94.899997878819704
20
74.099998343735933
0
LWPOLYLINE
5
118
100
AcDbEntity
8
0
100
AcDbPolyline
90
4
70
1
43
0.0
10
83.699998129159212
20
74.099998343735933
10
83.699998129159212
20
70.999998413026333
10
84.999998100101948
20
70.999998413026333
10
84.999998100101948
20
74.099998343735933
0
LWPOLYLINE
5
119
100
AcDbEntity
8
0
100
AcDbPolyline
90
4
70
1
43
0.0
10
83.699998129159212
20
69.199998453259468
10
83.699998129159212
20
67.799998484551907
10
85.099998097866774
20
67.799998484551907
10
85.099998097866774
20
69.199998453259468
0
LWPOLYLINE
5
120
100
AcDbEntity
8
0
100
AcDbPolyline
90
4
70
1
43
0.0
10
86.999998055398464
20
69.199998453259468
10
86.999998055398464
20
67.799998484551907
10
88.399998024106026
20
67.799998484551907
10
88.399998024106026
20
69.199998453259468
0
LWPOLYLINE
5
121
100
AcDbEntity
8
0
100
AcDbPolyline
90
4
70
1
43
0.0
10
80.39999820291996
20
64.199998565018177
10
80.39999820291996
20
62.899998594075441
10
81.799998171627522
20
62.899998594075441
10
81.799998171627522
20
64.199998565018177
0
LWPOLYLINE
5
122
100
AcDbEntity
8
0
100
AcDbPolyline
90
4
70
1
43
0.0
10
96.799997836351395
20
70.699998419731855
10
96.799997836351395
20
69.499998446553946
10
98.199997805058956
20
69.499998446553946
10
98.199997805058956
20
70.699998419731855
0
LWPOLYLINE
5
123
100
AcDbEntity
8
0
100
AcDbPolyline
90
4
70
1
43
0.0
10
83.49999813362956
20
56.199998743832111
10
83.49999813362956
20
54.499998781830072
10
85.299998093396425
20
54.499998781830072
10
85.299998093396425
20
56.199998743832111
0
LWPOLYLINE
5
124
100
AcDbEntity
8
0
100
AcDbPolyline
90
8
70
1
43
0.0
10
57.399998717010021
20
75.599998310208321
10
57.399998717010021
20
74.399998337030411
10
60.499998647719622
20
74.399998337030411
10
60.499998647719622
20
75.899998303502798
10
61.999998614192009
20
75.899998303502798
10
61.999998614192009
20
77.29999827221036
10
59.09999867901206
20
77.29999827221036
10
59.09999867901206
20
75.599998310208321
0
LWPOLYLINE
5
125
100
AcDbEntity
8
0
100
AcDbPolyline
90
6
70
1
43
0.0
10
76.899998281151056
20
78.899998236447573
10
76.899998281151056
20
76.09999829903245
10
75.599998310208321
20
76.09999829903245
10
75.599998310208321
20
77.599998265504837
10
73.999998345971107
20
77.599998265504837
10
73.999998345971107
20
78.899998236447573
0
LWPOLYLINE
5
126
100
AcDbEntity
8
0
100
AcDbPolyline
90
4
70
1
43
0.0
10
72.299998383969069
20
80.599998198449612
10
72.299998383969069
20
79.399998225271702
10
73.499998357146978
20
79.399998225271702
10
73.499998357146978
20
80.599998198449612
0
LWPOLYLINE
5
127
100
AcDbEntity
8
0
100
AcDbPolyline
90
4
70
1
43
0.0
10
71.899998392909765
20
73.999998345971107
10
71.899998392909765
20
72.699998375028372
10
68.999998457729816
20
72.699998375028372
10
68.999998457729816
20
73.999998345971107
0
LWPOLYLINE
5
128
100
AcDbEntity
8
0
100
AcDbPolyline
90
4
70
1
43
0.0
10
55.799998752772808
20
70.699998419731855
10
55.799998752772808
20
69.499998446553946
10
57.099998723715544
20
69.499998446553946
10
57.099998723715544
20
70.699998419731855
0
LWPOLYLINE
5
129
100
AcDbEntity
8
0
100
AcDbPolyline
90
8
70
1
43
0.0
10
57.499998714774847
20
72.299998383969069
10
57.499998714774847
20
71.099998410791159
10
59.09999867901206
20
71.099998410791159
10
59.09999867901206
20
69.499998446553946
10
62.099998611956835
20
69.499998446553946
10
62.099998611956835
20
70.699998419731855
10
60.499998647719622
20
70.699998419731855
10
60.499998647719622
20
72.299998383969069
0
LWPOLYLINE
5
130
100
AcDbEntity
8
0
100
AcDbPolyline
90
37
70
1
43
0.0
10
71.799998395144939
20
83.899998124688864
10
70.299998428672552
20
83.899998124688864
10
70.299998428672552
20
85.499998088926077
10
68.999998457729816
20
85.499998088926077
10
68.999998457729816
20
83.899998124688864
10
67.399998493492603
20
83.899998124688864
10
67.399998493492603
20
82.599998153746128
10
68.899998459964991
20
82.599998153746128
10
68.899998459964991
20
80.699998196214437
10
66.9999985024333
20
80.699998196214437
10
66.9999985024333
20
82.099998164921999
10
66.9999985024333
20
82.199998162686825
10
65.699998531490564
20
82.199998162686825
10
65.699998531490564
20
80.699998196214437
10
60.799998641014099
20
80.699998196214437
10
60.799998641014099
20
79.299998227506876
10
64.099998567253351
20
79.299998227506876
10
64.099998567253351
20
77.599998265504837
10
65.699998531490564
20
77.599998265504837
10
65.699998531490564
20
75.899998303502798
10
65.699998531490564
20
75.699998307973146
10
62.499998603016138
20
75.699998307973146
10
62.499998603016138
20
74.099998343735933
10
60.799998641014099
20
74.099998343735933
10
60.799998641014099
20
72.699998375028372
10
62.399998605251312
20
72.699998375028372
10
62.399998605251312
20
71.099998410791159
10
63.699998576194048
20
71.099998410791159
10
63.699998576194048
20
74.199998341500759
10
68.699998464435339
20
74.199998341500759
10
68.699998464435339
20
75.599998310208321
10
66.9999985024333
20
75.599998310208321
10
66.9999985024333
20
79.19999822974205
10
70.299998428672552
20
79.19999822974205
10
70.299998428672552
20
80.799998193979263
10
70.299998428672552
20
80.899998191744089
10
71.799998395144939
20
80.899998191744089
0
LWPOLYLINE
5
131
100
AcDbEntity
8
0
100
AcDbPolyline
90
4
70
1
43
0.0
10
72.199998386204243
20
70.799998417496681
10
72.199998386204243
20
69.499998446553946
10
73.599998354911804
20
69.499998446553946
10
73.599998354911804
20
70.799998417496681
0
LWPOLYLINE
5
132
100
AcDbEntity
8
0
100
AcDbPolyline
90
4
70
1
43
0.0
10
70.299998428672552
20
69.499998446553946
10
68.999998457729816
20
69.499998446553946
10
68.999998457729816
20
70.799998417496681
10
70.299998428672552
20
70.799998417496681
0
LWPOLYLINE
5
133
100
AcDbEntity
8
0
100
AcDbPolyline
90
6
70
1
43
0.0
10
64.099998567253351
20
70.699998419731855
10
65.699998531490564
20
70.699998419731855
10
65.699998531490564
20
72.299998383969069
10
66.9999985024333
20
72.299998383969069
10
66.9999985024333
20
69.499998446553946
10
64.099998567253351
20
69.499998446553946
0
LWPOLYLINE
5
134
100
AcDbEntity
8
0
100
AcDbPolyline
90
6
70
1
43
0.0
10
62.499998603016138
20
69.099998455494642
10
63.699998576194048
20
69.099998455494642
10
63.699998576194048
20
66.199998520314693
10
60.799998641014099
20
66.199998520314693
10
60.799998641014099
20
67.499998491257429
10
62.499998603016138
20
67.499998491257429
0
LWPOLYLINE
5
135
100
AcDbEntity
8
0
100
AcDbPolyline
90
6
70
1
43
0.0
10
59.199998676776886
20
64.199998565018177
10
62.099998611956835
20
64.199998565018177
10
62.099998611956835
20
62.899998594075441
10
60.499998647719622
20
62.899998594075441
10
60.499998647719622
20
61.299998629838228
10
59.199998676776886
20
61.299998629838228
0
LWPOLYLINE
5
136
100
AcDbEntity
8
0
100
AcDbPolyline
90
4
70
1
43
0.0
10
60.799998641014099
20
60.899998638778925
10
60.799998641014099
20
59.599998667836189
10
61.999998614192009
20
59.599998667836189
10
61.999998614192009
20
60.899998638778925
0
LWPOLYLINE
5
137
100
AcDbEntity
8
0
100
AcDbPolyline
90
4
70
1
43
0.0
10
52.599998824298382
20
62.499998603016138
10
52.599998824298382
20
61.299998629838228
10
55.499998759478331
20
61.299998629838228
10
55.499998759478331
20
62.499998603016138
0
LWPOLYLINE
5
138
100
AcDbEntity
8
0
100
AcDbPolyline
90
6
70
1
43
0.0
10
67.399998493492603
20
55.99999874830246
10
67.399998493492603
20
54.599998779594898
10
68.899998459964991
20
54.599998779594898
10
68.899998459964991
20
53.099998813122511
10
70.299998428672552
20
53.099998813122511
10
70.299998428672552
20
55.99999874830246
0
LWPOLYLINE
5
139
100
AcDbEntity
8
0
100
AcDbPolyline
90
4
70
1
43
0.0
10
65.699998531490564
20
52.699998822063208
10
65.699998531490564
20
51.499998848885298
10
66.9999985024333
20
51.499998848885298
10
66.9999985024333
20
52.699998822063208
0
LWPOLYLINE
5
140
100
AcDbEntity
8
0
100
AcDbPolyline
90
12
70
1
43
0.0
10
63.799998573958874
20
48.09999892488122
10
65.499998535960913
20
48.09999892488122
10
65.499998535960913
20
44.899998996406794
10
66.9999985024333
20
44.899998996406794
10
66.9999985024333
20
48.09999892488122
10
68.999998457729816
20
48.09999892488122
10
68.999998457729816
20
43.199999034404755
10
70.59999842196703
20
43.199999034404755
10
70.59999842196703
20
41.199999079108238
10
65.399998538196087
20
41.199999079108238
10
65.399998538196087
20
44.49999900534749
10
63.799998573958874
20
44.49999900534749
0
LWPOLYLINE
5
141
100
AcDbEntity
8
0
100
AcDbPolyline
90
4
70
1
43
0.0
10
78.899998236447573
20
44.49999900534749
10
78.899998236447573
20
43.199999034404755
10
80.099998209625483
20
43.199999034404755
10
80.099998209625483
20
44.49999900534749
0
LWPOLYLINE
5
142
100
AcDbEntity
8
0
100
AcDbPolyline
90
4
70
1
43
0.0
10
86.699998062103987
20
43.099999036639929
10
86.699998062103987
20
41.299999076873064
10
88.599998019635677
20
41.299999076873064
10
88.599998019635677
20
43.099999036639929
0
LWPOLYLINE
5
143
100
AcDbEntity
8
0
100
AcDbPolyline
90
4
70
1
43
0.0
10
103.09999769553542
20
44.799998998641968
10
103.09999769553542
20
42.899999041110277
10
104.99999765306711
20
42.899999041110277
10
104.99999765306711
20
44.799998998641968
0
LWPOLYLINE
5
144
100
AcDbEntity
8
0
100
AcDbPolyline
90
4
70
1
43
0.0
10
91.899997945874929
20
47.899998929351568
10
91.88344549971228
20
46.476488559363887
10
94.899997878819704
20
46.476488559363887
10
94.899997878819704
20
47.899998929351568
0
LWPOLYLINE
5
145
100
AcDbEntity
8
0
100
AcDbPolyline
90
4
70
1
43
0.0
10
88.699998017400503
20
50.999998860061169
10
88.699998017400503
20
49.899998884648085
10
89.899997990578413
20
49.899998884648085
10
89.899997990578413
20
50.999998860061169
0
LWPOLYLINE
5
146
100
AcDbEntity
8
0
100
AcDbPolyline
90
4
70
1
43
0.0
10
91.999997943639755
20
54.299998786300421
10
91.999997943639755
20
49.799998886883259
10
96.499997843056917
20
49.799998886883259
10
96.499997843056917
20
54.299998786300421
0
LWPOLYLINE
5
147
100
AcDbEntity
8
0
100
AcDbPolyline
90
4
70
1
43
0.0
10
93.299997914582491
20
52.999998815357685
10
93.299997914582491
20
51.099998857825994
10
95.199997872114182
20
51.099998857825994
10
95.199997872114182
20
52.999998815357685
0
LWPOLYLINE
5
148
100
AcDbEntity
8
0
100
AcDbPolyline
90
4
70
1
43
0.0
10
78.899998236447573
20
50.999998860061169
10
78.899998236447573
20
49.799998886883259
10
80.099998209625483
20
49.799998886883259
10
80.099998209625483
20
50.999998860061169
0
LWPOLYLINE
5
149
100
AcDbEntity
8
0
100
AcDbPolyline
90
4
70
1
43
0.0
10
77.199998274445534
20
59.199998676776886
10
77.199998274445534
20
56.399998739361763
10
78.499998245388269
20
56.399998739361763
10
78.499998245388269
20
59.199998676776886
0
LWPOLYLINE
5
150
100
AcDbEntity
8
0
100
AcDbPolyline
90
4
70
1
43
0.0
10
75.599998310208321
20
60.899998638778925
10
75.599998310208321
20
59.599998667836189
10
76.79999828338623
20
59.599998667836189
10
76.79999828338623
20
60.899998638778925
0
LWPOLYLINE
5
151
100
AcDbEntity
8
0
100
AcDbPolyline
90
4
70
1
43
0.0
10
93.599997907876968
20
57.599998712539673
10
93.599997907876968
20
56.399998739361763
10
94.799997881054878
20
56.399998739361763
10
94.799997881054878
20
57.599998712539673
0
LWPOLYLINE
5
152
100
AcDbEntity
8
0
100
AcDbPolyline
90
6
70
1
43
0.0
10
100.09999776259065
20
60.899998638778925
10
100.09999776259065
20
59.599998667836189
10
103.09999769553542
20
59.599998667836189
10
103.09999769553542
20
62.499998603016138
10
101.79999772459269
20
62.499998603016138
10
101.79999772459269
20
60.899998638778925
0
LWPOLYLINE
5
153
100
AcDbEntity
8
0
100
AcDbPolyline
90
4
70
1
43
0.0
10
101.79999772459269
20
67.399998493492603
10
101.79999772459269
20
66.199998520314693
10
102.9999976977706
20
66.199998520314693
10
102.9999976977706
20
67.399998493492603
0
LWPOLYLINE
5
154
100
AcDbEntity
8
0
100
AcDbPolyline
90
11
70
1
43
0.0
10
98.499997798353434
20
67.399998493492603
10
98.499997798353434
20
65.79999852925539
10
96.89999783411622
20
65.79999852925539
10
96.89999783411622
20
64.59999855607748
10
98.499997798353434
20
64.59999855607748
10
98.499997798353434
20
62.999998591840267
10
101.39999773353338
20
62.999998591840267
10
101.39999773353338
20
64.099998567253351
10
99.949997765943408
20
64.099998567253351
10
99.799997769296169
20
64.099998567253351
10
99.799997769296169
20
67.399998493492603
0
LWPOLYLINE
5
155
100
AcDbEntity
8
0
100
AcDbPolyline
90
30
70
1
43
0.0
10
82.108624004119093
20
65.749998530372977
10
82.108624004119093
20
64.500000961124897
10
85.399998091161251
20
64.500000961124897
10
85.399998091161251
20
62.899998594075441
10
86.999998055398464
20
62.899998594075441
10
86.999998055398464
20
60.999998636543751
10
85.399998091161251
20
60.999998636543751
10
85.399998091161251
20
59.599998667836189
10
88.699998017400503
20
59.599998667836189
10
88.699998017400503
20
57.999998703598976
10
93.199997916817665
20
57.999998703598976
10
93.199997916817665
20
59.599998667836189
10
96.89999783411622
20
59.599998667836189
10
96.89999783411622
20
57.999998703598976
10
99.799997769296169
20
57.999998703598976
10
99.799997769296169
20
59.199998676776886
10
98.199997805058956
20
59.199998676776886
10
98.199997805058956
20
62.500000931322575
10
96.500001437962055
20
62.500000931322575
10
96.500001437962055
20
64.161052787425078
10
93.664518595364527
20
64.161052787425078
10
93.664518595364527
20
60.899998638778925
10
91.599997952580452
20
60.899998638778925
10
91.599997952580452
20
67.399998493492603
10
90.299997981637716
20
67.399998493492603
10
90.299997981637716
20
65.79999852925539
10
88.699998017400503
20
65.79999852925539
10
88.699998017400503
20
64.099998567253351
10
86.699998062103987
20
64.099998567253351
10
86.699998062103987
20
65.749998530372977
0
LWPOLYLINE
5
156
100
AcDbEntity
8
0
100
AcDbPolyline
90
5
70
1
43
0.0
10
93.299997914582491
20
95.599997863173485
10
93.299997914582491
20
83.782886816515088
10
105.00000156462193
20
83.782886816515088
10
105.00000156462193
20
95.000001415610313
10
105.00000156462193
20
95.599997863173485
0
LWPOLYLINE
5
157
100
AcDbEntity
8
0
100
AcDbPolyline
90
4
70
1
43
0.0
10
95.199997872114182
20
93.699997905641794
10
95.199997872114182
20
85.89999807998538
10
102.9999976977706
20
85.89999807998538
10
102.9999976977706
20
93.699997905641794
0
LWPOLYLINE
5
158
100
AcDbEntity
8
0
100
AcDbPolyline
90
4
70
1
43
0.0
10
96.499997843056917
20
92.399997934699059
10
96.499997843056917
20
87.199998050928116
10
101.79999772459269
20
87.199998050928116
10
101.79999772459269
20
92.399997934699059
0
LWPOLYLINE
5
159
100
AcDbEntity
8
0
100
AcDbPolyline
90
4
70
1
43
0.0
10
50.599998869001865
20
52.999998815357685
10
50.599998869001865
20
41.199999079108238
10
62.499998603016138
20
41.199999079108238
10
62.499998603016138
20
52.999998815357685
0
LWPOLYLINE
5
160
100
AcDbEntity
8
0
100
AcDbPolyline
90
4
70
1
43
0.0
10
52.599998824298382
20
50.999998860061169
10
52.599998824298382
20
43.221213285183744
10
60.382340165952854
20
43.221213285183744
10
60.382340165952854
20
50.999998860061169
0
LWPOLYLINE
5
161
100
AcDbEntity
8
0
100
AcDbPolyline
90
4
70
1
43
0.0
10
53.899998795241117
20
49.699998889118433
10
53.899998795241117
20
44.599999003112316
10
59.199998676776886
20
44.599999003112316
10
59.199998676776886
20
49.699998889118433
0
CIRCLE
5
162
100
AcDbEntity
8
0
100
AcDbCircle
10
76.79999828338623
20
72.49999837949872
30
0
40
72.176739374021452
210
0
220
0
230
1
0
CIRCLE
5
163
100
AcDbEntity
8
0
100
AcDbCircle
10
75
20
135
30
0
40
5
210
0
220
0
230
1
0
LWPOLYLINE
5
164
100
AcDbEntity
8
0
100
AcDbPolyline
90
28
70
1
43
0.0
10
51.716102622449398
20
115.70621490478516
10
50.72740163654089
20
115.70621490478516
10
50.346046350896358
20
114.29378509521484
10
51.151130460202694
20
114.29378509521484
10
50.896893404424191
20
112.82485842704773
10
49.936441443860531
20
112.82485842704773
10
49.159605167806149
20
110
10
47.930791638791561
20
110
10
48.707627914845943
20
112.82485842704773
10
48.043785952031612
20
112.82485842704773
10
47.252825759351254
20
110
10
46.038136444985867
20
110
10
46.800848208367825
20
112.82485842704773
10
45.953390561044216
20
112.82485842704773
10
46.221752129495144
20
114.29378509521484
10
47.210452817380428
20
114.29378509521484
10
47.605932913720608
20
115.70621490478516
10
46.744351051747799
20
115.70621490478516
10
47.012712620198727
20
117.17514038085938
10
48.001413010060787
20
117.17514038085938
10
48.77824928611517
20
120
10
50.021187327802181
20
120
10
49.244351051747799
20
117.17514038085938
10
49.90819301456213
20
117.17514038085938
10
50.699153207242489
20
120
10
51.927966736257076
20
120
10
51.137006543576717
20
117.17514038085938
10
51.984464190900326
20
117.17514038085938
0
LWPOLYLINE
5
165
100
AcDbEntity
8
0
100
AcDbPolyline
90
4
70
1
43
0.0
10
48.820622228085995
20
115.70621490478516
10
48.453390561044216
20
114.29378509521484
10
49.117232523858547
20
114.29378509521484
10
49.512712620198727
20
115.70621490478516
0
SPLINE
5
166
100
AcDbEntity
8
0
100
AcDbSpline
70
0
71
2
72
6
73
3
74
0
42
0.000000001
43
0.0000000001
44
0.0000000001
40
0
40
0
40
0
40
1
40
1
40
1
10
56.419492624700069
20
115.5084753036499
30
0
10
56.221753023564816
20
115.72033882141113
30
0
10
55.939267538487911
20
115.84745764732361
30
0
0
SPLINE
5
167
100
AcDbEntity
8
0
100
AcDbSpline
70
0
71
2
72
6
73
3
74
0
42
0.000000001
43
0.0000000001
44
0.0000000001
40
0
40
0
40
0
40
1
40
1
40
1
10
55.939267538487911
20
115.84745764732361
30
0
10
55.656780861318111
20
115.98870038986206
30
0
10
55.303673408925533
20
115.98870038986206
30
0
0
SPLINE
5
168
100
AcDbEntity
8
0
100
AcDbSpline
70
0
71
2
72
6
73
3
74
0
42
0.000000001
43
0.0000000001
44
0.0000000001
40
0
40
0
40
0
40
1
40
1
40
1
10
55.303673408925533
20
115.98870038986206
30
0
10
54.978814981877804
20
115.98870038986206
30
0
10
54.724577330052853
20
115.79096078872681
30
0
0
SPLINE
5
169
100
AcDbEntity
8
0
100
AcDbSpline
70
0
71
2
72
6
73
3
74
0
42
0.000000001
43
0.0000000001
44
0.0000000001
40
0
40
0
40
0
40
1
40
1
40
1
10
54.724577330052853
20
115.79096078872681
30
0
10
54.484464786946774
20
115.60734510421753
30
0
10
54.484464786946774
20
115.24011373519897
30
0
0
SPLINE
5
170
100
AcDbEntity
8
0
100
AcDbSpline
70
0
71
2
72
6
73
3
74
0
42
0.000000001
43
0.0000000001
44
0.0000000001
40
0
40
0
40
0
40
1
40
1
40
1
10
54.484464786946774
20
115.24011373519897
30
0
10
54.484464786946774
20
114.9435031414032
30
0
10
54.668080471456051
20
114.7740113735199
30
0
0
SPLINE
5
171
100
AcDbEntity
8
0
100
AcDbSpline
70
0
71
2
72
6
73
3
74
0
42
0.000000001
43
0.0000000001
44
0.0000000001
40
0
40
0
40
0
40
1
40
1
40
1
10
54.668080471456051
20
114.7740113735199
30
0
10
54.851696155965328
20
114.61864471435547
30
0
10
55.303673408925533
20
114.39265489578247
30
0
0
SPLINE
5
172
100
AcDbEntity
8
0
100
AcDbSpline
70
0
71
2
72
6
73
3
74
0
42
0.000000001
43
0.0000000001
44
0.0000000001
40
0
40
0
40
0
40
1
40
1
40
1
10
55.303673408925533
20
114.39265489578247
30
0
10
55.60028400272131
20
114.23728823661804
30
0
10
55.868645571172237
20
114.05367255210876
30
0
0
SPLINE
5
173
100
AcDbEntity
8
0
100
AcDbSpline
70
0
71
2
72
6
73
3
74
0
42
0.000000001
43
0.0000000001
44
0.0000000001
40
0
40
0
40
0
40
1
40
1
40
1
10
55.868645571172237
20
114.05367255210876
30
0
10
56.137007139623165
20
113.87005686759949
30
0
10
56.334746740758419
20
113.62994432449341
30
0
0
SPLINE
5
174
100
AcDbEntity
8
0
100
AcDbSpline
70
0
71
2
72
6
73
3
74
0
42
0.000000001
43
0.0000000001
44
0.0000000001
40
0
40
0
40
0
40
1
40
1
40
1
10
56.334746740758419
20
113.62994432449341
30
0
10
56.546611450612545
20
113.38983058929443
30
0
10
56.673730276525021
20
113.07909607887268
30
0
0
SPLINE
5
175
100
AcDbEntity
8
0
100
AcDbSpline
70
0
71
2
72
6
73
3
74
0
42
0.000000001
43
0.0000000001
44
0.0000000001
40
0
40
0
40
0
40
1
40
1
40
1
10
56.673730276525021
20
113.07909607887268
30
0
10
56.800849102437496
20
112.76836156845093
30
0
10
56.800849102437496
20
112.3870050907135
30
0
0
SPLINE
5
176
100
AcDbEntity
8
0
100
AcDbSpline
70
0
71
2
72
6
73
3
74
0
42
0.000000001
43
0.0000000001
44
0.0000000001
40
0
40
0
40
0
40
1
40
1
40
1
10
56.800849102437496
20
112.3870050907135
30
0
10
56.800849102437496
20
111.66666626930237
30
0
10
56.532487533986568
20
111.15819215774536
30
0
0
SPLINE
5
177
100
AcDbEntity
8
0
100
AcDbSpline
70
0
71
2
72
6
73
3
74
0
42
0.000000001
43
0.0000000001
44
0.0000000001
40
0
40
0
40
0
40
1
40
1
40
1
10
56.532487533986568
20
111.15819215774536
30
0
10
56.278249882161617
20
110.66384196281433
30
0
10
55.868645571172237
20
110.35310745239258
30
0
0
SPLINE
5
178
100
AcDbEntity
8
0
100
AcDbSpline
70
0
71
2
72
6
73
3
74
0
42
0.000000001
43
0.0000000001
44
0.0000000001
40
0
40
0
40
0
40
1
40
1
40
1
10
55.868645571172237
20
110.35310745239258
30
0
10
55.473165176808834
20
110.04237294197083
30
0
10
54.978814981877804
20
109.91525411605835
30
0
0
SPLINE
5
179
100
AcDbEntity
8
0
100
AcDbSpline
70
0
71
2
72
6
73
3
74
0
42
0.000000001
43
0.0000000001
44
0.0000000001
40
0
40
0
40
0
40
1
40
1
40
1
10
54.978814981877804
20
109.91525411605835
30
0
10
54.484464786946774
20
109.7740113735199
30
0
10
54.018362425267696
20
109.7740113735199
30
0
0
SPLINE
5
180
100
AcDbEntity
8
0
100
AcDbSpline
70
0
71
2
72
6
73
3
74
0
42
0.000000001
43
0.0000000001
44
0.0000000001
40
0
40
0
40
0
40
1
40
1
40
1
10
54.018362425267696
20
109.7740113735199
30
0
10
53.298023603856564
20
109.7740113735199
30
0
10
52.648306153714657
20
110.02824902534485
30
0
0
SPLINE
5
181
100
AcDbEntity
8
0
100
AcDbSpline
70
0
71
2
72
6
73
3
74
0
42
0.000000001
43
0.0000000001
44
0.0000000001
40
0
40
0
40
0
40
1
40
1
40
1
10
52.648306153714657
20
110.02824902534485
30
0
10
51.99858870357275
20
110.2824854850769
30
0
10
51.588983796536922
20
110.70621490478516
30
0
0
LINE
5
182
100
AcDbEntity
8
0
100
AcDbLine
10
51.588983796536922
20
110.70621490478516
30
0
11
52.733052037656307
21
112.03389883041382
31
0
0
SPLINE
5
183
100
AcDbEntity
8
0
100
AcDbSpline
70
0
71
2
72
6
73
3
74
0
42
0.000000001
43
0.0000000001
44
0.0000000001
40
0
40
0
40
0
40
1
40
1
40
1
10
52.733052037656307
20
112.03389883041382
30
0
10
52.987289093434811
20
111.75141215324402
30
0
10
53.312148116528988
20
111.56779646873474
30
0
0
SPLINE
5
184
100
AcDbEntity
8
0
100
AcDbSpline
70
0
71
2
72
6
73
3
74
0
42
0.000000001
43
0.0000000001
44
0.0000000001
40
0
40
0
40
0
40
1
40
1
40
1
10
53.312148116528988
20
111.56779646873474
30
0
10
53.651131056249142
20
111.39830470085144
30
0
10
54.018362425267696
20
111.39830470085144
30
0
0
SPLINE
5
185
100
AcDbEntity
8
0
100
AcDbSpline
70
0
71
2
72
6
73
3
74
0
42
0.000000001
43
0.0000000001
44
0.0000000001
40
0
40
0
40
0
40
1
40
1
40
1
10
54.018362425267696
20
111.39830470085144
30
0
10
54.357345961034298
20
111.39830470085144
30
0
10
54.611583016812801
20
111.59604549407959
30
0
0
SPLINE
5
186
100
AcDbEntity
8
0
100
AcDbSpline
70
0
71
2
72
6
73
3
74
0
42
0.000000001
43
0.0000000001
44
0.0000000001
40
0
40
0
40
0
40
1
40
1
40
1
10
54.611583016812801
20
111.59604549407959
30
0
10
54.865820072591305
20
111.79378509521484
30
0
10
54.865820072591305
20
112.1610164642334
30
0
0
SPLINE
5
187
100
AcDbEntity
8
0
100
AcDbSpline
70
0
71
2
72
6
73
3
74
0
42
0.000000001
43
0.0000000001
44
0.0000000001
40
0
40
0
40
0
40
1
40
1
40
1
10
54.865820072591305
20
112.1610164642334
30
0
10
54.865820072591305
20
112.48587608337402
30
0
10
54.611583016812801
20
112.69773960113525
30
0
0
SPLINE
5
188
100
AcDbEntity
8
0
100
AcDbSpline
70
0
71
2
72
6
73
3
74
0
42
0.000000001
43
0.0000000001
44
0.0000000001
40
0
40
0
40
0
40
1
40
1
40
1
10
54.611583016812801
20
112.69773960113525
30
0
10
54.357345961034298
20
112.92372941970825
30
0
10
53.905368708074093
20
113.14971804618835
30
0
0
SPLINE
5
189
100
AcDbEntity
8
0
100
AcDbSpline
70
0
71
2
72
6
73
3
74
0
42
0.000000001
43
0.0000000001
44
0.0000000001
40
0
40
0
40
0
40
1
40
1
40
1
10
53.905368708074093
20
113.14971804618835
30
0
10
53.622882626950741
20
113.27683687210083
30
0
10
53.382769487798214
20
113.44632744789124
30
0
0
SPLINE
5
190
100
AcDbEntity
8
0
100
AcDbSpline
70
0
71
2
72
6
73
3
74
0
42
0.000000001
43
0.0000000001
44
0.0000000001
40
0
40
0
40
0
40
1
40
1
40
1
10
53.382769487798214
20
113.44632744789124
30
0
10
53.142656348645687
20
113.61581921577454
30
0
10
52.95904066413641
20
113.84180784225464
30
0
0
SPLINE
5
191
100
AcDbEntity
8
0
100
AcDbSpline
70
0
71
2
72
6
73
3
74
0
42
0.000000001
43
0.0000000001
44
0.0000000001
40
0
40
0
40
0
40
1
40
1
40
1
10
52.95904066413641
20
113.84180784225464
30
0
10
52.775424979627132
20
114.06779646873474
30
0
10
52.662430666387081
20
114.35028314590454
30
0
0
SPLINE
5
192
100
AcDbEntity
8
0
100
AcDbSpline
70
0
71
2
72
6
73
3
74
0
42
0.000000001
43
0.0000000001
44
0.0000000001
40
0
40
0
40
0
40
1
40
1
40
1
10
52.662430666387081
20
114.35028314590454
30
0
10
52.563560269773006
20
114.64689254760742
30
0
10
52.563560269773006
20
115.02824783325195
30
0
0
SPLINE
5
193
100
AcDbEntity
8
0
100
AcDbSpline
70
0
71
2
72
6
73
3
74
0
42
0.000000001
43
0.0000000001
44
0.0000000001
40
0
40
0
40
0
40
1
40
1
40
1
10
52.563560269773006
20
115.02824783325195
30
0
10
52.563560269773006
20
115.70621490478516
30
0
10
52.817797921597958
20
116.18643999099731
30
0
0
SPLINE
5
194
100
AcDbEntity
8
0
100
AcDbSpline
70
0
71
2
72
6
73
3
74
0
42
0.000000001
43
0.0000000001
44
0.0000000001
40
0
40
0
40
0
40
1
40
1
40
1
10
52.817797921597958
20
116.18643999099731
30
0
10
53.086159490048885
20
116.68079137802124
30
0
10
53.495763801038265
20
116.97740077972412
30
0
0
SPLINE
5
195
100
AcDbEntity
8
0
100
AcDbSpline
70
0
71
2
72
6
73
3
74
0
42
0.000000001
43
0.0000000001
44
0.0000000001
40
0
40
0
40
0
40
1
40
1
40
1
10
53.495763801038265
20
116.97740077972412
30
0
10
53.905368708074093
20
117.28813648223877
30
0
10
54.399718903005123
20
117.42937803268433
30
0
0
SPLINE
5
196
100
AcDbEntity
8
0
100
AcDbSpline
70
0
71
2
72
6
73
3
74
0
42
0.000000001
43
0.0000000001
44
0.0000000001
40
0
40
0
40
0
40
1
40
1
40
1
10
54.399718903005123
20
117.42937803268433
30
0
10
54.90819301456213
20
117.57062196731567
30
0
10
55.388419292867184
20
117.57062196731567
30
0
0
SPLINE
5
197
100
AcDbEntity
8
0
100
AcDbSpline
70
0
71
2
72
6
73
3
74
0
42
0.000000001
43
0.0000000001
44
0.0000000001
40
0
40
0
40
0
40
1
40
1
40
1
10
55.388419292867184
20
117.57062196731567
30
0
10
56.038137339055538
20
117.57062196731567
30
0
10
56.58898439258337
20
117.37288117408752
30
0
0
SPLINE
5
198
100
AcDbEntity
8
0
100
AcDbSpline
70
0
71
2
72
6
73
3
74
0
42
0.000000001
43
0.0000000001
44
0.0000000001
40
0
40
0
40
0
40
1
40
1
40
1
10
56.58898439258337
20
117.37288117408752
30
0
10
57.153955362737179
20
117.17514157295227
30
0
10
57.49293889850378
20
116.85028314590454
30
0
0
LINE
5
199
100
AcDbEntity
8
0
100
AcDbLine
10
57.49293889850378
20
116.85028314590456
30
0
11
56.419492624700069
21
115.5084753036499
31
0
0
SPLINE
5
200
100
AcDbEntity
8
0
100
AcDbSpline
70
0
71
2
72
6
73
3
74
0
42
0.000000001
43
0.0000000001
44
0.0000000001
40
0
40
0
40
0
40
1
40
1
40
1
10
63.396892212331295
20
115.38135528564453
30
0
10
63.396892212331295
20
114.81638431549072
30
0
10
63.269773386418819
20
114.13841843605042
30
0
0
LINE
5
201
100
AcDbEntity
8
0
100
AcDbLine
10
63.269773386418819
20
114.1384184360504
30
0
11
62.803672216832638
21
111.44067764282227
31
0
0
SPLINE
5
202
100
AcDbEntity
8
0
100
AcDbSpline
70
0
71
2
72
6
73
3
74
0
42
0.000000001
43
0.0000000001
44
0.0000000001
40
0
40
0
40
0
40
1
40
1
40
1
10
62.803672216832638
20
111.44067764282227
30
0
10
62.775423191487789
20
111.28531098365784
30
0
10
62.747174166142941
20
111.07344627380371
30
0
0
SPLINE
5
203
100
AcDbEntity
8
0
100
AcDbSpline
70
0
71
2
72
6
73
3
74
0
42
0.000000001
43
0.0000000001
44
0.0000000001
40
0
40
0
40
0
40
1
40
1
40
1
10
62.747174166142941
20
111.07344627380371
30
0
10
62.718926332890987
20
110.86158156394958
30
0
10
62.690678499639034
20
110.64971804618835
30
0
0
SPLINE
5
204
100
AcDbEntity
8
0
100
AcDbSpline
70
0
71
2
72
6
73
3
74
0
42
0.000000001
43
0.0000000001
44
0.0000000001
40
0
40
0
40
0
40
1
40
1
40
1
10
62.690678499639034
20
110.64971804618835
30
0
10
62.66242828220129
20
110.45197725296021
30
0
10
62.634180448949337
20
110.26836156845093
30
0
0
SPLINE
5
205
100
AcDbEntity
8
0
100
AcDbSpline
70
0
71
2
72
6
73
3
74
0
42
0.000000001
43
0.0000000001
44
0.0000000001
40
0
40
0
40
0
40
1
40
1
40
1
10
62.634180448949337
20
110.26836156845093
30
0
10
62.62005653232336
20
110.08474588394165
30
0
10
62.62005653232336
20
110
30
0
0
LINE
5
206
100
AcDbEntity
8
0
100
AcDbLine
10
62.62005653232336
20
110
30
0
11
60.896892212331295
21
110
31
0
0
SPLINE
5
207
100
AcDbEntity
8
0
100
AcDbSpline
70
0
71
2
72
6
73
3
74
0
42
0.000000001
43
0.0000000001
44
0.0000000001
40
0
40
0
40
0
40
1
40
1
40
1
10
60.896892212331295
20
110
30
0
10
60.911017321050167
20
110.1694917678833
30
0
10
60.93926515430212
20
110.45197725296021
30
0
0
SPLINE
5
208
100
AcDbEntity
8
0
100
AcDbSpline
70
0
71
2
72
6
73
3
74
0
42
0.000000001
43
0.0000000001
44
0.0000000001
40
0
40
0
40
0
40
1
40
1
40
1
10
60.93926515430212
20
110.45197725296021
30
0
10
60.981638096272945
20
110.73446273803711
30
0
10
61.024011038243771
20
110.91807961463928
30
0
0
LINE
5
209
100
AcDbEntity
8
0
100
AcDbLine
10
61.024011038243763
20
110.91807961463928
30
0
11
60.981638096272945
21
110.91807961463928
31
0
0
SPLINE
5
210
100
AcDbEntity
8
0
100
AcDbSpline
70
0
71
2
72
6
73
3
74
0
42
0.000000001
43
0.0000000001
44
0.0000000001
40
0
40
0
40
0
40
1
40
1
40
1
10
60.981638096272945
20
110.91807961463928
30
0
10
60.741525553166866
20
110.42372941970825
30
0
10
60.331920050084591
20
110.1129949092865
30
0
0
SPLINE
5
211
100
AcDbEntity
8
0
100
AcDbSpline
70
0
71
2
72
6
73
3
74
0
42
0.000000001
43
0.0000000001
44
0.0000000001
40
0
40
0
40
0
40
1
40
1
40
1
10
60.331920050084591
20
110.1129949092865
30
0
10
59.922315739095211
20
109.81638431549072
30
0
10
59.25847377628088
20
109.81638431549072
30
0
0
SPLINE
5
212
100
AcDbEntity
8
0
100
AcDbSpline
70
0
71
2
72
6
73
3
74
0
42
0.000000001
43
0.0000000001
44
0.0000000001
40
0
40
0
40
0
40
1
40
1
40
1
10
59.25847377628088
20
109.81638431549072
30
0
10
58.961864374577999
20
109.81638431549072
30
0
10
58.665253780782223
20
109.92937803268433
30
0
0
SPLINE
5
213
100
AcDbEntity
8
0
100
AcDbSpline
70
0
71
2
72
6
73
3
74
0
42
0.000000001
43
0.0000000001
44
0.0000000001
40
0
40
0
40
0
40
1
40
1
40
1
10
58.665253780782223
20
109.92937803268433
30
0
10
58.382768295705318
20
110.04237294197083
30
0
10
58.142654560506344
20
110.26836156845093
30
0
0
SPLINE
5
214
100
AcDbEntity
8
0
100
AcDbSpline
70
0
71
2
72
6
73
3
74
0
42
0.000000001
43
0.0000000001
44
0.0000000001
40
0
40
0
40
0
40
1
40
1
40
1
10
58.142654560506344
20
110.26836156845093
30
0
10
57.916665934026241
20
110.49435019493103
30
0
10
57.775423191487789
20
110.83333373069763
30
0
0
SPLINE
5
215
100
AcDbEntity
8
0
100
AcDbSpline
70
0
71
2
72
6
73
3
74
0
42
0.000000001
43
0.0000000001
44
0.0000000001
40
0
40
0
40
0
40
1
40
1
40
1
10
57.775423191487789
20
110.83333373069763
30
0
10
57.634180448949337
20
111.18644118309021
30
0
10
57.634180448949337
20
111.65254235267639
30
0
0
SPLINE
5
216
100
AcDbEntity
8
0
100
AcDbSpline
70
0
71
2
72
6
73
3
74
0
42
0.000000001
43
0.0000000001
44
0.0000000001
40
0
40
0
40
0
40
1
40
1
40
1
10
57.634180448949337
20
111.65254235267639
30
0
10
57.634180448949337
20
112.45762705802917
30
0
10
57.916665934026241
20
113.00847411155701
30
0
0
SPLINE
5
217
100
AcDbEntity
8
0
100
AcDbSpline
70
0
71
2
72
6
73
3
74
0
42
0.000000001
43
0.0000000001
44
0.0000000001
40
0
40
0
40
0
40
1
40
1
40
1
10
57.916665934026241
20
113.00847411155701
30
0
10
58.199152611196041
20
113.57344627380371
30
0
10
58.665253780782223
20
113.91242980957031
30
0
0
SPLINE
5
218
100
AcDbEntity
8
0
100
AcDbSpline
70
0
71
2
72
6
73
3
74
0
42
0.000000001
43
0.0000000001
44
0.0000000001
40
0
40
0
40
0
40
1
40
1
40
1
10
58.665253780782223
20
113.91242980957031
30
0
10
59.145480059087276
20
114.26553726196289
30
0
10
59.766949079930782
20
114.42090392112732
30
0
0
SPLINE
5
219
100
AcDbEntity
8
0
100
AcDbSpline
70
0
71
2
72
6
73
3
74
0
42
0.000000001
43
0.0000000001
44
0.0000000001
40
0
40
0
40
0
40
1
40
1
40
1
10
59.766949079930782
20
114.42090392112732
30
0
10
60.402542017400265
20
114.57627058029175
30
0
10
61.094633005559444
20
114.57627058029175
30
0
0
LINE
5
220
100
AcDbEntity
8
0
100
AcDbLine
10
61.094633005559444
20
114.57627058029175
30
0
11
61.447740457952023
21
114.57627058029175
31
0
0
SPLINE
5
221
100
AcDbEntity
8
0
100
AcDbSpline
70
0
71
2
72
6
73
3
74
0
42
0.000000001
43
0.0000000001
44
0.0000000001
40
0
40
0
40
0
40
1
40
1
40
1
10
61.447740457952023
20
114.57627058029175
30
0
10
61.518361233174801
20
114.90113019943237
30
0
10
61.518361233174801
20
115.0564980506897
30
0
0
SPLINE
5
222
100
AcDbEntity
8
0
100
AcDbSpline
70
0
71
2
72
6
73
3
74
0
42
0.000000001
43
0.0000000001
44
0.0000000001
40
0
40
0
40
0
40
1
40
1
40
1
10
61.518361233174801
20
115.0564980506897
30
0
10
61.518361233174801
20
115.81920862197876
30
0
10
60.798022411763668
20
115.81920862197876
30
0
0
SPLINE
5
223
100
AcDbEntity
8
0
100
AcDbSpline
70
0
71
2
72
6
73
3
74
0
42
0.000000001
43
0.0000000001
44
0.0000000001
40
0
40
0
40
0
40
1
40
1
40
1
10
60.798022411763668
20
115.81920862197876
30
0
10
60.402542017400265
20
115.81920862197876
30
0
10
60.03531064838171
20
115.63559293746948
30
0
0
SPLINE
5
224
100
AcDbEntity
8
0
100
AcDbSpline
70
0
71
2
72
6
73
3
74
0
42
0.000000001
43
0.0000000001
44
0.0000000001
40
0
40
0
40
0
40
1
40
1
40
1
10
60.03531064838171
20
115.63559293746948
30
0
10
59.682203195989132
20
115.46610116958618
30
0
10
59.413841627538204
20
115.225989818573
30
0
0
LINE
5
225
100
AcDbEntity
8
0
100
AcDbLine
10
59.413841627538204
20
115.225989818573
30
0
11
58.622880838811398
21
116.53954744338989
31
0
0
SPLINE
5
226
100
AcDbEntity
8
0
100
AcDbSpline
70
0
71
2
72
6
73
3
74
0
42
0.000000001
43
0.0000000001
44
0.0000000001
40
0
40
0
40
0
40
1
40
1
40
1
10
58.622880838811398
20
116.53954744338989
30
0
10
59.117231033742428
20
117.00564980506897
30
0
10
59.781072996556759
20
117.28813648223877
30
0
0
SPLINE
5
227
100
AcDbEntity
8
0
100
AcDbSpline
70
0
71
2
72
6
73
3
74
0
42
0.000000001
43
0.0000000001
44
0.0000000001
40
0
40
0
40
0
40
1
40
1
40
1
10
59.781072996556759
20
117.28813648223877
30
0
10
60.44491495937109
20
117.57062196731567
30
0
10
61.122880838811398
20
117.57062196731567
30
0
0
SPLINE
5
228
100
AcDbEntity
8
0
100
AcDbSpline
70
0
71
2
72
6
73
3
74
0
42
0.000000001
43
0.0000000001
44
0.0000000001
40
0
40
0
40
0
40
1
40
1
40
1
10
61.122880838811398
20
117.57062196731567
30
0
10
62.323445938527584
20
117.57062196731567
30
0
10
62.86016907542944
20
116.97740077972412
30
0
0
SPLINE
5
229
100
AcDbEntity
8
0
100
AcDbSpline
70
0
71
2
72
6
73
3
74
0
42
0.000000001
43
0.0000000001
44
0.0000000001
40
0
40
0
40
0
40
1
40
1
40
1
10
62.86016907542944
20
116.97740077972412
30
0
10
63.396892212331295
20
116.39830589294434
30
0
10
63.396892212331295
20
115.38135528564453
30
0
0
SPLINE
5
230
100
AcDbEntity
8
0
100
AcDbSpline
70
0
71
2
72
6
73
3
74
0
42
0.000000001
43
0.0000000001
44
0.0000000001
40
0
40
0
40
0
40
1
40
1
40
1
10
60.896892212331295
20
113.23446273803711
30
0
10
60.614406727254391
20
113.23446273803711
30
0
10
60.346045158803463
20
113.16384196281433
30
0
0
SPLINE
5
231
100
AcDbEntity
8
0
100
AcDbSpline
70
0
71
2
72
6
73
3
74
0
42
0.000000001
43
0.0000000001
44
0.0000000001
40
0
40
0
40
0
40
1
40
1
40
1
10
60.346045158803463
20
113.16384196281433
30
0
10
60.077683590352535
20
113.10734510421753
30
0
10
59.865818880498409
20
112.95197725296021
30
0
0
SPLINE
5
232
100
AcDbEntity
8
0
100
AcDbSpline
70
0
71
2
72
6
73
3
74
0
42
0.000000001
43
0.0000000001
44
0.0000000001
40
0
40
0
40
0
40
1
40
1
40
1
10
59.865818880498409
20
112.95197725296021
30
0
10
59.668079279363155
20
112.81073451042175
30
0
10
59.54096045345068
20
112.58474588394165
30
0
0
SPLINE
5
233
100
AcDbEntity
8
0
100
AcDbSpline
70
0
71
2
72
6
73
3
74
0
42
0.000000001
43
0.0000000001
44
0.0000000001
40
0
40
0
40
0
40
1
40
1
40
1
10
59.54096045345068
20
112.58474588394165
30
0
10
59.427965544164181
20
112.35875725746155
30
0
10
59.427965544164181
20
112.04802274703979
30
0
0
SPLINE
5
234
100
AcDbEntity
8
0
100
AcDbSpline
70
0
71
2
72
6
73
3
74
0
42
0.000000001
43
0.0000000001
44
0.0000000001
40
0
40
0
40
0
40
1
40
1
40
1
10
59.427965544164181
20
112.04802274703979
30
0
10
59.427965544164181
20
111.70903921127319
30
0
10
59.583333395421505
20
111.53954744338989
30
0
0
SPLINE
5
235
100
AcDbEntity
8
0
100
AcDbSpline
70
0
71
2
72
6
73
3
74
0
42
0.000000001
43
0.0000000001
44
0.0000000001
40
0
40
0
40
0
40
1
40
1
40
1
10
59.583333395421505
20
111.53954744338989
30
0
10
59.752825163304806
20
111.37005686759949
30
0
10
59.992937706410885
20
111.37005686759949
30
0
0
SPLINE
5
236
100
AcDbEntity
8
0
100
AcDbSpline
70
0
71
2
72
6
73
3
74
0
42
0.000000001
43
0.0000000001
44
0.0000000001
40
0
40
0
40
0
40
1
40
1
40
1
10
59.992937706410885
20
111.37005686759949
30
0
10
60.247174166142941
20
111.37005686759949
30
0
10
60.44491495937109
20
111.49717569351196
30
0
0
SPLINE
5
237
100
AcDbEntity
8
0
100
AcDbSpline
70
0
71
2
72
6
73
3
74
0
42
0.000000001
43
0.0000000001
44
0.0000000001
40
0
40
0
40
0
40
1
40
1
40
1
10
60.44491495937109
20
111.49717569351196
30
0
10
60.656779669225216
20
111.63841843605042
30
0
10
60.798022411763668
20
111.85028195381165
30
0
0
SPLINE
5
238
100
AcDbEntity
8
0
100
AcDbSpline
70
0
71
2
72
6
73
3
74
0
42
0.000000001
43
0.0000000001
44
0.0000000001
40
0
40
0
40
0
40
1
40
1
40
1
10
60.798022411763668
20
111.85028195381165
30
0
10
60.953389070928097
20
112.07627058029175
30
0
10
61.052258871495724
20
112.34463214874268
30
0
0
SPLINE
5
239
100
AcDbEntity
8
0
100
AcDbSpline
70
0
71
2
72
6
73
3
74
0
42
0.000000001
43
0.0000000001
44
0.0000000001
40
0
40
0
40
0
40
1
40
1
40
1
10
61.052258871495724
20
112.34463214874268
30
0
10
61.151129864156246
20
112.6129937171936
30
0
10
61.207626722753048
20
112.88135528564453
30
0
0
LINE
5
240
100
AcDbEntity
8
0
100
AcDbLine
10
61.207626722753048
20
112.88135528564453
30
0
11
61.278248690068722
21
113.23446273803711
31
0
0
LINE
5
241
100
AcDbEntity
8
0
100
AcDbLine
10
61.278248690068722
20
113.23446273803711
30
0
11
60.896892212331295
21
113.23446273803711
31
0
0
LWPOLYLINE
5
242
100
AcDbEntity
8
0
100
AcDbPolyline
90
13
70
1
43
0.0
10
68.693502806127071
20
113.87005686759949
10
70.162430666387081
20
110
10
68.001414202153683
20
110
10
66.843222044408321
20
113.40395450592041
10
66.814974211156368
20
113.40395450592041
10
66.235876940190792
20
110
10
64.216103218495846
20
110
10
66.052261255681515
20
120.67796587944031
10
68.086160086095333
20
120.67796587944031
10
66.970339678227901
20
114.33615803718567
10
66.998589895665646
20
114.33615803718567
10
69.08898439258337
20
117.34463214874268
10
71.391244791448116
20
117.34463214874268
0
SPLINE
5
243
100
AcDbEntity
8
0
100
AcDbSpline
70
0
71
2
72
6
73
3
74
0
42
0.000000001
43
0.0000000001
44
0.0000000001
40
0
40
0
40
0
40
1
40
1
40
1
10
76.84321966022253
20
115.38135528564453
30
0
10
76.84321966022253
20
114.81638431549072
30
0
10
76.71610202640295
20
114.13841843605042
30
0
0
LINE
5
244
100
AcDbEntity
8
0
100
AcDbLine
10
76.71610202640295
20
114.1384184360504
30
0
11
76.249998472630978
21
111.44067764282227
31
0
0
SPLINE
5
245
100
AcDbEntity
8
0
100
AcDbSpline
70
0
71
2
72
6
73
3
74
0
42
0.000000001
43
0.0000000001
44
0.0000000001
40
0
40
0
40
0
40
1
40
1
40
1
10
76.249998472630978
20
111.44067764282227
30
0
10
76.221750639379025
20
111.28531098365784
30
0
10
76.193502806127071
20
111.07344627380371
30
0
0
SPLINE
5
246
100
AcDbEntity
8
0
100
AcDbSpline
70
0
71
2
72
6
73
3
74
0
42
0.000000001
43
0.0000000001
44
0.0000000001
40
0
40
0
40
0
40
1
40
1
40
1
10
76.193502806127071
20
111.07344627380371
30
0
10
76.165254972875118
20
110.86158156394958
30
0
10
76.137004755437374
20
110.64971804618835
30
0
0
SPLINE
5
247
100
AcDbEntity
8
0
100
AcDbSpline
70
0
71
2
72
6
73
3
74
0
42
0.000000001
43
0.0000000001
44
0.0000000001
40
0
40
0
40
0
40
1
40
1
40
1
10
76.137004755437374
20
110.64971804618835
30
0
10
76.108756922185421
20
110.45197725296021
30
0
10
76.080506704747677
20
110.26836156845093
30
0
0
SPLINE
5
248
100
AcDbEntity
8
0
100
AcDbSpline
70
0
71
2
72
6
73
3
74
0
42
0.000000001
43
0.0000000001
44
0.0000000001
40
0
40
0
40
0
40
1
40
1
40
1
10
76.080506704747677
20
110.26836156845093
30
0
10
76.0663827881217
20
110.08474588394165
30
0
10
76.0663827881217
20
110
30
0
0
LINE
5
249
100
AcDbEntity
8
0
100
AcDbLine
10
76.0663827881217
20
110
30
0
11
74.34321966022253
21
110
31
0
0
SPLINE
5
250
100
AcDbEntity
8
0
100
AcDbSpline
70
0
71
2
72
6
73
3
74
0
42
0.000000001
43
0.0000000001
44
0.0000000001
40
0
40
0
40
0
40
1
40
1
40
1
10
74.34321966022253
20
110
30
0
10
74.357343576848507
20
110.1694917678833
30
0
10
74.385593794286251
20
110.45197725296021
30
0
0
SPLINE
5
251
100
AcDbEntity
8
0
100
AcDbSpline
70
0
71
2
72
6
73
3
74
0
42
0.000000001
43
0.0000000001
44
0.0000000001
40
0
40
0
40
0
40
1
40
1
40
1
10
74.385593794286251
20
110.45197725296021
30
0
10
74.427965544164181
20
110.73446273803711
30
0
10
74.47033729404211
20
110.91807961463928
30
0
0
LINE
5
252
100
AcDbEntity
8
0
100
AcDbLine
10
74.470337294042125
20
110.91807961463928
30
0
11
74.427965544164181
21
110.91807961463928
31
0
0
SPLINE
5
253
100
AcDbEntity
8
0
100
AcDbSpline
70
0
71
2
72
6
73
3
74
0
42
0.000000001
43
0.0000000001
44
0.0000000001
40
0
40
0
40
0
40
1
40
1
40
1
10
74.427965544164181
20
110.91807961463928
30
0
10
74.187851808965206
20
110.42372941970825
30
0
10
73.778248690068722
20
110.1129949092865
30
0
0
SPLINE
5
254
100
AcDbEntity
8
0
100
AcDbSpline
70
0
71
2
72
6
73
3
74
0
42
0.000000001
43
0.0000000001
44
0.0000000001
40
0
40
0
40
0
40
1
40
1
40
1
10
73.778248690068722
20
110.1129949092865
30
0
10
73.368643186986446
20
109.81638431549072
30
0
10
72.704802416265011
20
109.81638431549072
30
0
0
SPLINE
5
255
100
AcDbEntity
8
0
100
AcDbSpline
70
0
71
2
72
6
73
3
74
0
42
0.000000001
43
0.0000000001
44
0.0000000001
40
0
40
0
40
0
40
1
40
1
40
1
10
72.704802416265011
20
109.81638431549072
30
0
10
72.408190630376339
20
109.81638431549072
30
0
10
72.111581228673458
20
109.92937803268433
30
0
0
SPLINE
5
256
100
AcDbEntity
8
0
100
AcDbSpline
70
0
71
2
72
6
73
3
74
0
42
0.000000001
43
0.0000000001
44
0.0000000001
40
0
40
0
40
0
40
1
40
1
40
1
10
72.111581228673458
20
109.92937803268433
30
0
10
71.829095743596554
20
110.04237294197083
30
0
10
71.588982008397579
20
110.26836156845093
30
0
0
SPLINE
5
257
100
AcDbEntity
8
0
100
AcDbSpline
70
0
71
2
72
6
73
3
74
0
42
0.000000001
43
0.0000000001
44
0.0000000001
40
0
40
0
40
0
40
1
40
1
40
1
10
71.588982008397579
20
110.26836156845093
30
0
10
71.362994574010372
20
110.49435019493103
30
0
10
71.221750639379025
20
110.83333373069763
30
0
0
SPLINE
5
258
100
AcDbEntity
8
0
100
AcDbSpline
70
0
71
2
72
6
73
3
74
0
42
0.000000001
43
0.0000000001
44
0.0000000001
40
0
40
0
40
0
40
1
40
1
40
1
10
71.221750639379025
20
110.83333373069763
30
0
10
71.080509088933468
20
111.18644118309021
30
0
10
71.080509088933468
20
111.65254235267639
30
0
0
SPLINE
5
259
100
AcDbEntity
8
0
100
AcDbSpline
70
0
71
2
72
6
73
3
74
0
42
0.000000001
43
0.0000000001
44
0.0000000001
40
0
40
0
40
0
40
1
40
1
40
1
10
71.080509088933468
20
111.65254235267639
30
0
10
71.080509088933468
20
112.45762705802917
30
0
10
71.362994574010372
20
113.00847411155701
30
0
0
SPLINE
5
260
100
AcDbEntity
8
0
100
AcDbSpline
70
0
71
2
72
6
73
3
74
0
42
0.000000001
43
0.0000000001
44
0.0000000001
40
0
40
0
40
0
40
1
40
1
40
1
10
71.362994574010372
20
113.00847411155701
30
0
10
71.645480059087276
20
113.57344627380371
30
0
10
72.111581228673458
20
113.91242980957031
30
0
0
SPLINE
5
261
100
AcDbEntity
8
0
100
AcDbSpline
70
0
71
2
72
6
73
3
74
0
42
0.000000001
43
0.0000000001
44
0.0000000001
40
0
40
0
40
0
40
1
40
1
40
1
10
72.111581228673458
20
113.91242980957031
30
0
10
72.591806314885616
20
114.26553726196289
30
0
10
73.213275335729122
20
114.42090392112732
30
0
0
SPLINE
5
262
100
AcDbEntity
8
0
100
AcDbSpline
70
0
71
2
72
6
73
3
74
0
42
0.000000001
43
0.0000000001
44
0.0000000001
40
0
40
0
40
0
40
1
40
1
40
1
10
73.213275335729122
20
114.42090392112732
30
0
10
73.848870657384396
20
114.57627058029175
30
0
10
74.540959261357784
20
114.57627058029175
30
0
0
LINE
5
263
100
AcDbEntity
8
0
100
AcDbLine
10
74.540959261357784
20
114.57627058029175
30
0
11
74.894066713750362
21
114.57627058029175
31
0
0
SPLINE
5
264
100
AcDbEntity
8
0
100
AcDbSpline
70
0
71
2
72
6
73
3
74
0
42
0.000000001
43
0.0000000001
44
0.0000000001
40
0
40
0
40
0
40
1
40
1
40
1
10
74.894066713750362
20
114.57627058029175
30
0
10
74.964688681066036
20
114.90113019943237
30
0
10
74.964688681066036
20
115.0564980506897
30
0
0
SPLINE
5
265
100
AcDbEntity
8
0
100
AcDbSpline
70
0
71
2
72
6
73
3
74
0
42
0.000000001
43
0.0000000001
44
0.0000000001
40
0
40
0
40
0
40
1
40
1
40
1
10
74.964688681066036
20
115.0564980506897
30
0
10
74.964688681066036
20
115.81920862197876
30
0
10
74.244349859654903
20
115.81920862197876
30
0
0
SPLINE
5
266
100
AcDbEntity
8
0
100
AcDbSpline
70
0
71
2
72
6
73
3
74
0
42
0.000000001
43
0.0000000001
44
0.0000000001
40
0
40
0
40
0
40
1
40
1
40
1
10
74.244349859654903
20
115.81920862197876
30
0
10
73.848870657384396
20
115.81920862197876
30
0
10
73.48163690418005
20
115.63559293746948
30
0
0
SPLINE
5
267
100
AcDbEntity
8
0
100
AcDbSpline
70
0
71
2
72
6
73
3
74
0
42
0.000000001
43
0.0000000001
44
0.0000000001
40
0
40
0
40
0
40
1
40
1
40
1
10
73.48163690418005
20
115.63559293746948
30
0
10
73.128529451787472
20
115.46610116958618
30
0
10
72.860167883336544
20
115.225989818573
30
0
0
LINE
5
268
100
AcDbEntity
8
0
100
AcDbLine
10
72.860167883336544
20
115.225989818573
30
0
11
72.069209478795528
21
116.53954744338989
31
0
0
SPLINE
5
269
100
AcDbEntity
8
0
100
AcDbSpline
70
0
71
2
72
6
73
3
74
0
42
0.000000001
43
0.0000000001
44
0.0000000001
40
0
40
0
40
0
40
1
40
1
40
1
10
72.069209478795528
20
116.53954744338989
30
0
10
72.563558481633663
20
117.00564980506897
30
0
10
73.22740163654089
20
117.28813648223877
30
0
0
SPLINE
5
270
100
AcDbEntity
8
0
100
AcDbSpline
70
0
71
2
72
6
73
3
74
0
42
0.000000001
43
0.0000000001
44
0.0000000001
40
0
40
0
40
0
40
1
40
1
40
1
10
73.22740163654089
20
117.28813648223877
30
0
10
73.891242407262325
20
117.57062196731567
30
0
10
74.569209478795528
20
117.57062196731567
30
0
0
SPLINE
5
271
100
AcDbEntity
8
0
100
AcDbSpline
70
0
71
2
72
6
73
3
74
0
42
0.000000001
43
0.0000000001
44
0.0000000001
40
0
40
0
40
0
40
1
40
1
40
1
10
74.569209478795528
20
117.57062196731567
30
0
10
75.769773386418819
20
117.57062196731567
30
0
10
76.306496523320675
20
116.97740077972412
30
0
0
SPLINE
5
272
100
AcDbEntity
8
0
100
AcDbSpline
70
0
71
2
72
6
73
3
74
0
42
0.000000001
43
0.0000000001
44
0.0000000001
40
0
40
0
40
0
40
1
40
1
40
1
10
76.306496523320675
20
116.97740077972412
30
0
10
76.84321966022253
20
116.39830589294434
30
0
10
76.84321966022253
20
115.38135528564453
30
0
0
SPLINE
5
273
100
AcDbEntity
8
0
100
AcDbSpline
70
0
71
2
72
6
73
3
74
0
42
0.000000001
43
0.0000000001
44
0.0000000001
40
0
40
0
40
0
40
1
40
1
40
1
10
74.34321966022253
20
113.23446273803711
30
0
10
74.060734175145626
20
113.23446273803711
30
0
10
73.792372606694698
20
113.16384196281433
30
0
0
SPLINE
5
274
100
AcDbEntity
8
0
100
AcDbSpline
70
0
71
2
72
6
73
3
74
0
42
0.000000001
43
0.0000000001
44
0.0000000001
40
0
40
0
40
0
40
1
40
1
40
1
10
73.792372606694698
20
113.16384196281433
30
0
10
73.524011038243771
20
113.10734510421753
30
0
10
73.31214752048254
20
112.95197725296021
30
0
0
SPLINE
5
275
100
AcDbEntity
8
0
100
AcDbSpline
70
0
71
2
72
6
73
3
74
0
42
0.000000001
43
0.0000000001
44
0.0000000001
40
0
40
0
40
0
40
1
40
1
40
1
10
73.31214752048254
20
112.95197725296021
30
0
10
73.114405535161495
20
112.81073451042175
30
0
10
72.987287901341915
20
112.58474588394165
30
0
0
SPLINE
5
276
100
AcDbEntity
8
0
100
AcDbSpline
70
0
71
2
72
6
73
3
74
0
42
0.000000001
43
0.0000000001
44
0.0000000001
40
0
40
0
40
0
40
1
40
1
40
1
10
72.987287901341915
20
112.58474588394165
30
0
10
72.874294184148312
20
112.35875725746155
30
0
10
72.874294184148312
20
112.04802274703979
30
0
0
SPLINE
5
277
100
AcDbEntity
8
0
100
AcDbSpline
70
0
71
2
72
6
73
3
74
0
42
0.000000001
43
0.0000000001
44
0.0000000001
40
0
40
0
40
0
40
1
40
1
40
1
10
72.874294184148312
20
112.04802274703979
30
0
10
72.874294184148312
20
111.70903921127319
30
0
10
73.029659651219845
20
111.53954744338989
30
0
0
SPLINE
5
278
100
AcDbEntity
8
0
100
AcDbSpline
70
0
71
2
72
6
73
3
74
0
42
0.000000001
43
0.0000000001
44
0.0000000001
40
0
40
0
40
0
40
1
40
1
40
1
10
73.029659651219845
20
111.53954744338989
30
0
10
73.199151419103146
20
111.37005686759949
30
0
10
73.43926515430212
20
111.37005686759949
30
0
0
SPLINE
5
279
100
AcDbEntity
8
0
100
AcDbSpline
70
0
71
2
72
6
73
3
74
0
42
0.000000001
43
0.0000000001
44
0.0000000001
40
0
40
0
40
0
40
1
40
1
40
1
10
73.43926515430212
20
111.37005686759949
30
0
10
73.693502806127071
20
111.37005686759949
30
0
10
73.891242407262325
20
111.49717569351196
30
0
0
SPLINE
5
280
100
AcDbEntity
8
0
100
AcDbSpline
70
0
71
2
72
6
73
3
74
0
42
0.000000001
43
0.0000000001
44
0.0000000001
40
0
40
0
40
0
40
1
40
1
40
1
10
73.891242407262325
20
111.49717569351196
30
0
10
74.103105925023556
20
111.63841843605042
30
0
10
74.244349859654903
20
111.85028195381165
30
0
0
SPLINE
5
281
100
AcDbEntity
8
0
100
AcDbSpline
70
0
71
2
72
6
73
3
74
0
42
0.000000001
43
0.0000000001
44
0.0000000001
40
0
40
0
40
0
40
1
40
1
40
1
10
74.244349859654903
20
111.85028195381165
30
0
10
74.399717710912228
20
112.07627058029175
30
0
10
74.498587511479855
20
112.34463214874268
30
0
0
SPLINE
5
282
100
AcDbEntity
8
0
100
AcDbSpline
70
0
71
2
72
6
73
3
74
0
42
0.000000001
43
0.0000000001
44
0.0000000001
40
0
40
0
40
0
40
1
40
1
40
1
10
74.498587511479855
20
112.34463214874268
30
0
10
74.597457312047482
20
112.6129937171936
30
0
10
74.653952978551388
20
112.88135528564453
30
0
0
LINE
5
283
100
AcDbEntity
8
0
100
AcDbLine
10
74.653952978551388
20
112.88135528564453
30
0
11
74.724574945867062
21
113.23446273803711
31
0
0
LINE
5
284
100
AcDbEntity
8
0
100
AcDbLine
10
74.724574945867062
20
113.23446273803711
30
0
11
74.34321966022253
21
113.23446273803711
31
0
0
SPLINE
5
285
100
AcDbEntity
8
0
100
AcDbSpline
70
0
71
2
72
6
73
3
74
0
42
0.000000001
43
0.0000000001
44
0.0000000001
40
0
40
0
40
0
40
1
40
1
40
1
10
83.26977577060461
20
110.45197725296021
30
0
10
83.114407919347286
20
109.57627058029175
30
0
10
82.831922434270382
20
108.87005567550659
30
0
0
SPLINE
5
286
100
AcDbEntity
8
0
100
AcDbSpline
70
0
71
2
72
6
73
3
74
0
42
0.000000001
43
0.0000000001
44
0.0000000001
40
0
40
0
40
0
40
1
40
1
40
1
10
82.831922434270382
20
108.87005567550659
30
0
10
82.563560865819454
20
108.16384077072144
30
0
10
82.111583612859249
20
107.6694917678833
30
0
0
SPLINE
5
287
100
AcDbEntity
8
0
100
AcDbSpline
70
0
71
2
72
6
73
3
74
0
42
0.000000001
43
0.0000000001
44
0.0000000001
40
0
40
0
40
0
40
1
40
1
40
1
10
82.111583612859249
20
107.6694917678833
30
0
10
81.673730276525021
20
107.1610164642334
30
0
10
81.038137339055538
20
106.89265489578247
30
0
0
SPLINE
5
288
100
AcDbEntity
8
0
100
AcDbSpline
70
0
71
2
72
6
73
3
74
0
42
0.000000001
43
0.0000000001
44
0.0000000001
40
0
40
0
40
0
40
1
40
1
40
1
10
81.038137339055538
20
106.89265489578247
30
0
10
80.402544401586056
20
106.61016941070557
30
0
10
79.540961645543575
20
106.61016941070557
30
0
0
SPLINE
5
289
100
AcDbEntity
8
0
100
AcDbSpline
70
0
71
2
72
6
73
3
74
0
42
0.000000001
43
0.0000000001
44
0.0000000001
40
0
40
0
40
0
40
1
40
1
40
1
10
79.540961645543575
20
106.61016941070557
30
0
10
78.806498907506466
20
106.61016941070557
30
0
10
78.128531835973263
20
106.89265489578247
30
0
0
SPLINE
5
290
100
AcDbEntity
8
0
100
AcDbSpline
70
0
71
2
72
6
73
3
74
0
42
0.000000001
43
0.0000000001
44
0.0000000001
40
0
40
0
40
0
40
1
40
1
40
1
10
78.128531835973263
20
106.89265489578247
30
0
10
77.450567148625851
20
107.1610164642334
30
0
10
77.026837728917599
20
107.57062196731567
30
0
0
LINE
5
291
100
AcDbEntity
8
0
100
AcDbLine
10
77.026837728917585
20
107.57062196731567
30
0
11
78.14265813678503
21
109.11016941070557
31
0
0
SPLINE
5
292
100
AcDbEntity
8
0
100
AcDbSpline
70
0
71
2
72
6
73
3
74
0
42
0.000000001
43
0.0000000001
44
0.0000000001
40
0
40
0
40
0
40
1
40
1
40
1
10
78.14265813678503
20
109.11016941070557
30
0
10
78.425143621861935
20
108.82768392562866
30
0
10
78.792374990880489
20
108.64406824111938
30
0
0
SPLINE
5
293
100
AcDbEntity
8
0
100
AcDbSpline
70
0
71
2
72
6
73
3
74
0
42
0.000000001
43
0.0000000001
44
0.0000000001
40
0
40
0
40
0
40
1
40
1
40
1
10
78.792374990880489
20
108.64406824111938
30
0
10
79.159606359899044
20
108.46045255661011
30
0
10
79.611583612859249
20
108.46045255661011
30
0
0
SPLINE
5
294
100
AcDbEntity
8
0
100
AcDbSpline
70
0
71
2
72
6
73
3
74
0
42
0.000000001
43
0.0000000001
44
0.0000000001
40
0
40
0
40
0
40
1
40
1
40
1
10
79.611583612859249
20
108.46045255661011
30
0
10
79.964691065251827
20
108.46045255661011
30
0
10
80.233052633702755
20
108.60169410705566
30
0
0
SPLINE
5
295
100
AcDbEntity
8
0
100
AcDbSpline
70
0
71
2
72
6
73
3
74
0
42
0.000000001
43
0.0000000001
44
0.0000000001
40
0
40
0
40
0
40
1
40
1
40
1
10
80.233052633702755
20
108.60169410705566
30
0
10
80.515538118779659
20
108.72881412506104
30
0
10
80.713280104100704
20
108.96892547607422
30
0
0
SPLINE
5
296
100
AcDbEntity
8
0
100
AcDbSpline
70
0
71
2
72
6
73
3
74
0
42
0.000000001
43
0.0000000001
44
0.0000000001
40
0
40
0
40
0
40
1
40
1
40
1
10
80.713280104100704
20
108.96892547607422
30
0
10
80.911019705235958
20
109.19491529464722
30
0
10
81.038137339055538
20
109.51977372169495
30
0
0
SPLINE
5
297
100
AcDbEntity
8
0
100
AcDbSpline
70
0
71
2
72
6
73
3
74
0
42
0.000000001
43
0.0000000001
44
0.0000000001
40
0
40
0
40
0
40
1
40
1
40
1
10
81.038137339055538
20
109.51977372169495
30
0
10
81.179381273686886
20
109.8305082321167
30
0
10
81.25000324100256
20
110.21186470985413
30
0
0
LINE
5
298
100
AcDbEntity
8
0
100
AcDbLine
10
81.25000324100256
20
110.21186470985413
30
0
11
81.391244791448116
21
110.94632744789124
31
0
0
LINE
5
299
100
AcDbEntity
8
0
100
AcDbLine
10
81.391244791448116
20
110.94632744789124
30
0
11
81.362996958196163
21
110.94632744789124
31
0
0
SPLINE
5
300
100
AcDbEntity
8
0
100
AcDbSpline
70
0
71
2
72
6
73
3
74
0
42
0.000000001
43
0.0000000001
44
0.0000000001
40
0
40
0
40
0
40
1
40
1
40
1
10
81.362996958196163
20
110.94632744789124
30
0
10
81.122883222997189
20
110.52259922027588
30
0
10
80.713280104100704
20
110.19773960113525
30
0
0
SPLINE
5
301
100
AcDbEntity
8
0
100
AcDbSpline
70
0
71
2
72
6
73
3
74
0
42
0.000000001
43
0.0000000001
44
0.0000000001
40
0
40
0
40
0
40
1
40
1
40
1
10
80.713280104100704
20
110.19773960113525
30
0
10
80.317798517644405
20
109.8870050907135
30
0
10
79.65395774692297
20
109.8870050907135
30
0
0
SPLINE
5
302
100
AcDbEntity
8
0
100
AcDbSpline
70
0
71
2
72
6
73
3
74
0
42
0.000000001
43
0.0000000001
44
0.0000000001
40
0
40
0
40
0
40
1
40
1
40
1
10
79.65395774692297
20
109.8870050907135
30
0
10
79.173730276525021
20
109.8870050907135
30
0
10
78.806498907506466
20
110.07062196731567
30
0
0
SPLINE
5
303
100
AcDbEntity
8
0
100
AcDbSpline
70
0
71
2
72
6
73
3
74
0
42
0.000000001
43
0.0000000001
44
0.0000000001
40
0
40
0
40
0
40
1
40
1
40
1
10
78.806498907506466
20
110.07062196731567
30
0
10
78.453391455113888
20
110.26836156845093
30
0
10
78.199153803288937
20
110.62146902084351
30
0
0
SPLINE
5
304
100
AcDbEntity
8
0
100
AcDbSpline
70
0
71
2
72
6
73
3
74
0
42
0.000000001
43
0.0000000001
44
0.0000000001
40
0
40
0
40
0
40
1
40
1
40
1
10
78.199153803288937
20
110.62146902084351
30
0
10
77.959042452275753
20
110.97457647323608
30
0
10
77.831922434270382
20
111.44067764282227
30
0
0
SPLINE
5
305
100
AcDbEntity
8
0
100
AcDbSpline
70
0
71
2
72
6
73
3
74
0
42
0.000000001
43
0.0000000001
44
0.0000000001
40
0
40
0
40
0
40
1
40
1
40
1
10
77.831922434270382
20
111.44067764282227
30
0
10
77.718928717076778
20
111.92090392112732
30
0
10
77.718928717076778
20
112.5
30
0
0
SPLINE
5
306
100
AcDbEntity
8
0
100
AcDbSpline
70
0
71
2
72
6
73
3
74
0
42
0.000000001
43
0.0000000001
44
0.0000000001
40
0
40
0
40
0
40
1
40
1
40
1
10
77.718928717076778
20
112.5
30
0
10
77.718928717076778
20
113.34745764732361
30
0
10
77.916668318212032
20
114.25141334533691
30
0
0
SPLINE
5
307
100
AcDbEntity
8
0
100
AcDbSpline
70
0
71
2
72
6
73
3
74
0
42
0.000000001
43
0.0000000001
44
0.0000000001
40
0
40
0
40
0
40
1
40
1
40
1
10
77.916668318212032
20
114.25141334533691
30
0
10
78.128531835973263
20
115.15536785125732
30
0
10
78.524013422429562
20
115.88983058929443
30
0
0
SPLINE
5
308
100
AcDbEntity
8
0
100
AcDbSpline
70
0
71
2
72
6
73
3
74
0
42
0.000000001
43
0.0000000001
44
0.0000000001
40
0
40
0
40
0
40
1
40
1
40
1
10
78.524013422429562
20
115.88983058929443
30
0
10
78.919492624700069
20
116.62429451942444
30
0
10
79.498589895665646
20
117.09039688110352
30
0
0
SPLINE
5
309
100
AcDbEntity
8
0
100
AcDbSpline
70
0
71
2
72
6
73
3
74
0
42
0.000000001
43
0.0000000001
44
0.0000000001
40
0
40
0
40
0
40
1
40
1
40
1
10
79.498589895665646
20
117.09039688110352
30
0
10
80.077684782445431
20
117.57062196731567
30
0
10
80.840397737920284
20
117.57062196731567
30
0
0
SPLINE
5
310
100
AcDbEntity
8
0
100
AcDbSpline
70
0
71
2
72
6
73
3
74
0
42
0.000000001
43
0.0000000001
44
0.0000000001
40
0
40
0
40
0
40
1
40
1
40
1
10
80.840397737920284
20
117.57062196731567
30
0
10
81.475990675389767
20
117.57062196731567
30
0
10
81.843222044408321
20
117.24576354026794
30
0
0
SPLINE
5
311
100
AcDbEntity
8
0
100
AcDbSpline
70
0
71
2
72
6
73
3
74
0
42
0.000000001
43
0.0000000001
44
0.0000000001
40
0
40
0
40
0
40
1
40
1
40
1
10
81.843222044408321
20
117.24576354026794
30
0
10
82.210453413426876
20
116.92090511322021
30
0
10
82.295199297368526
20
116.45480275154114
30
0
0
LINE
5
312
100
AcDbEntity
8
0
100
AcDbLine
10
82.295199297368512
20
116.45480275154114
30
0
11
82.351697348058224
21
116.45480275154114
31
0
0
LINE
5
313
100
AcDbEntity
8
0
100
AcDbLine
10
82.351697348058224
20
116.45480275154114
30
0
11
82.507065199315548
21
117.34463334083557
31
0
0
LINE
5
314
100
AcDbEntity
8
0
100
AcDbLine
10
82.507065199315548
20
117.34463334083557
30
0
11
84.470342062413692
21
117.34463334083557
31
0
0
LINE
5
315
100
AcDbEntity
8
0
100
AcDbLine
10
84.470342062413692
20
117.34463334083557
30
0
11
83.26977577060461
21
110.45197725296021
31
0
0
SPLINE
5
316
100
AcDbEntity
8
0
100
AcDbSpline
70
0
71
2
72
6
73
3
74
0
42
0.000000001
43
0.0000000001
44
0.0000000001
40
0
40
0
40
0
40
1
40
1
40
1
10
81.970342062413692
20
114.53389883041382
30
0
10
81.970342062413692
20
115.09887099266052
30
0
10
81.786726377904415
20
115.45197725296021
30
0
0
SPLINE
5
317
100
AcDbEntity
8
0
100
AcDbSpline
70
0
71
2
72
6
73
3
74
0
42
0.000000001
43
0.0000000001
44
0.0000000001
40
0
40
0
40
0
40
1
40
1
40
1
10
81.786726377904415
20
115.45197725296021
30
0
10
81.617234610021114
20
115.80508470535278
30
0
10
81.221753023564816
20
115.80508470535278
30
0
0
SPLINE
5
318
100
AcDbEntity
8
0
100
AcDbSpline
70
0
71
2
72
6
73
3
74
0
42
0.000000001
43
0.0000000001
44
0.0000000001
40
0
40
0
40
0
40
1
40
1
40
1
10
81.221753023564816
20
115.80508470535278
30
0
10
80.868645571172237
20
115.80508470535278
30
0
10
80.60028400272131
20
115.49435138702393
30
0
0
SPLINE
5
319
100
AcDbEntity
8
0
100
AcDbSpline
70
0
71
2
72
6
73
3
74
0
42
0.000000001
43
0.0000000001
44
0.0000000001
40
0
40
0
40
0
40
1
40
1
40
1
10
80.60028400272131
20
115.49435138702393
30
0
10
80.331922434270382
20
115.18361568450928
30
0
10
80.148306749761105
20
114.7175145149231
30
0
0
SPLINE
5
320
100
AcDbEntity
8
0
100
AcDbSpline
70
0
71
2
72
6
73
3
74
0
42
0.000000001
43
0.0000000001
44
0.0000000001
40
0
40
0
40
0
40
1
40
1
40
1
10
80.148306749761105
20
114.7175145149231
30
0
10
79.964691065251827
20
114.26553726196289
30
0
10
79.8658212646842
20
113.72881412506104
30
0
0
SPLINE
5
321
100
AcDbEntity
8
0
100
AcDbSpline
70
0
71
2
72
6
73
3
74
0
42
0.000000001
43
0.0000000001
44
0.0000000001
40
0
40
0
40
0
40
1
40
1
40
1
10
79.8658212646842
20
113.72881412506104
30
0
10
79.78107538074255
20
113.20621490478516
30
0
10
79.78107538074255
20
112.76836156845093
30
0
0
SPLINE
5
322
100
AcDbEntity
8
0
100
AcDbSpline
70
0
71
2
72
6
73
3
74
0
42
0.000000001
43
0.0000000001
44
0.0000000001
40
0
40
0
40
0
40
1
40
1
40
1
10
79.78107538074255
20
112.76836156845093
30
0
10
79.78107538074255
20
112.23163843154907
30
0
10
79.950567148625851
20
111.89265489578247
30
0
0
SPLINE
5
323
100
AcDbEntity
8
0
100
AcDbSpline
70
0
71
2
72
6
73
3
74
0
42
0.000000001
43
0.0000000001
44
0.0000000001
40
0
40
0
40
0
40
1
40
1
40
1
10
79.950567148625851
20
111.89265489578247
30
0
10
80.120058916509151
20
111.55367255210876
30
0
10
80.529662035405636
20
111.55367255210876
30
0
0
SPLINE
5
324
100
AcDbEntity
8
0
100
AcDbSpline
70
0
71
2
72
6
73
3
74
0
42
0.000000001
43
0.0000000001
44
0.0000000001
40
0
40
0
40
0
40
1
40
1
40
1
10
80.529662035405636
20
111.55367255210876
30
0
10
80.882769487798214
20
111.55367255210876
30
0
10
81.151131056249142
20
111.85028314590454
30
0
0
SPLINE
5
325
100
AcDbEntity
8
0
100
AcDbSpline
70
0
71
2
72
6
73
3
74
0
42
0.000000001
43
0.0000000001
44
0.0000000001
40
0
40
0
40
0
40
1
40
1
40
1
10
81.151131056249142
20
111.85028314590454
30
0
10
81.419492624700069
20
112.1610164642334
30
0
10
81.603108309209347
20
112.6129949092865
30
0
0
SPLINE
5
326
100
AcDbEntity
8
0
100
AcDbSpline
70
0
71
2
72
6
73
3
74
0
42
0.000000001
43
0.0000000001
44
0.0000000001
40
0
40
0
40
0
40
1
40
1
40
1
10
81.603108309209347
20
112.6129949092865
30
0
10
81.786726377904415
20
113.0649721622467
30
0
10
81.871469877660275
20
113.58757019042969
30
0
0
SPLINE
5
327
100
AcDbEntity
8
0
100
AcDbSpline
70
0
71
2
72
6
73
3
74
0
42
0.000000001
43
0.0000000001
44
0.0000000001
40
0
40
0
40
0
40
1
40
1
40
1
10
81.871469877660275
20
113.58757019042969
30
0
10
81.970342062413692
20
114.11016941070557
30
0
10
81.970342062413692
20
114.53389883041382
30
0
0
SPLINE
5
328
100
AcDbEntity
8
0
100
AcDbSpline
70
0
71
2
72
6
73
3
74
0
42
0.000000001
43
0.0000000001
44
0.0000000001
40
0
40
0
40
0
40
1
40
1
40
1
10
91.03814210742712
20
111.79378509521484
30
0
10
91.009894274175167
20
111.61016941070557
30
0
10
90.967512987554073
20
111.35593175888062
30
0
0
SPLINE
5
329
100
AcDbEntity
8
0
100
AcDbSpline
70
0
71
2
72
6
73
3
74
0
42
0.000000001
43
0.0000000001
44
0.0000000001
40
0
40
0
40
0
40
1
40
1
40
1
10
90.967512987554073
20
111.35593175888062
30
0
10
90.925141237676144
20
111.10169529914856
30
0
10
90.882769487798214
20
110.83333373069763
30
0
0
SPLINE
5
330
100
AcDbEntity
8
0
100
AcDbSpline
70
0
71
2
72
6
73
3
74
0
42
0.000000001
43
0.0000000001
44
0.0000000001
40
0
40
0
40
0
40
1
40
1
40
1
10
90.882769487798214
20
110.83333373069763
30
0
10
90.840397737920284
20
110.5649721622467
30
0
10
90.798025988042355
20
110.3389835357666
30
0
0
SPLINE
5
331
100
AcDbEntity
8
0
100
AcDbSpline
70
0
71
2
72
6
73
3
74
0
42
0.000000001
43
0.0000000001
44
0.0000000001
40
0
40
0
40
0
40
1
40
1
40
1
10
90.798025988042355
20
110.3389835357666
30
0
10
90.769778154790401
20
110.1129949092865
30
0
10
90.755654238164425
20
110
30
0
0
LINE
5
332
100
AcDbEntity
8
0
100
AcDbLine
10
90.755654238164425
20
110
30
0
11
88.820620439946651
21
110
31
0
0
SPLINE
5
333
100
AcDbEntity
8
0
100
AcDbSpline
70
0
71
2
72
6
73
3
74
0
42
0.000000001
43
0.0000000001
44
0.0000000001
40
0
40
0
40
0
40
1
40
1
40
1
10
88.820620439946651
20
110
30
0
10
88.848868273198605
20
110.19773960113525
30
0
10
88.877125643193722
20
110.49435019493103
30
0
0
SPLINE
5
334
100
AcDbEntity
8
0
100
AcDbSpline
70
0
71
2
72
6
73
3
74
0
42
0.000000001
43
0.0000000001
44
0.0000000001
40
0
40
0
40
0
40
1
40
1
40
1
10
88.877125643193722
20
110.49435019493103
30
0
10
88.919497393071651
20
110.79096078872681
30
0
10
88.961869142949581
20
111.07344627380371
30
0
0
LINE
5
335
100
AcDbEntity
8
0
100
AcDbLine
10
88.961869142949581
20
111.07344627380371
30
0
11
88.919497393071651
21
111.07344627380371
31
0
0
SPLINE
5
336
100
AcDbEntity
8
0
100
AcDbSpline
70
0
71
2
72
6
73
3
74
0
42
0.000000001
43
0.0000000001
44
0.0000000001
40
0
40
0
40
0
40
1
40
1
40
1
10
88.919497393071651
20
111.07344627380371
30
0
10
88.637009523808956
20
110.50847411155701
30
0
10
88.142653368413448
20
110.14124274253845
30
0
0
SPLINE
5
337
100
AcDbEntity
8
0
100
AcDbSpline
70
0
71
2
72
6
73
3
74
0
42
0.000000001
43
0.0000000001
44
0.0000000001
40
0
40
0
40
0
40
1
40
1
40
1
10
88.142653368413448
20
110.14124274253845
30
0
10
87.662430666387081
20
109.7740113735199
30
0
10
86.984463594853878
20
109.7740113735199
30
0
0
SPLINE
5
338
100
AcDbEntity
8
0
100
AcDbSpline
70
0
71
2
72
6
73
3
74
0
42
0.000000001
43
0.0000000001
44
0.0000000001
40
0
40
0
40
0
40
1
40
1
40
1
10
86.984463594853878
20
109.7740113735199
30
0
10
86.532488726079464
20
109.7740113735199
30
0
10
86.221753023564816
20
109.92937803268433
30
0
0
SPLINE
5
339
100
AcDbEntity
8
0
100
AcDbSpline
70
0
71
2
72
6
73
3
74
0
42
0.000000001
43
0.0000000001
44
0.0000000001
40
0
40
0
40
0
40
1
40
1
40
1
10
86.221753023564816
20
109.92937803268433
30
0
10
85.911017321050167
20
110.08474588394165
30
0
10
85.713282488286495
20
110.3389835357666
30
0
0
SPLINE
5
340
100
AcDbEntity
8
0
100
AcDbSpline
70
0
71
2
72
6
73
3
74
0
42
0.000000001
43
0.0000000001
44
0.0000000001
40
0
40
0
40
0
40
1
40
1
40
1
10
85.713282488286495
20
110.3389835357666
30
0
10
85.529662035405636
20
110.59321999549866
30
0
10
85.4307946190238
20
110.90395450592041
30
0
0
SPLINE
5
341
100
AcDbEntity
8
0
100
AcDbSpline
70
0
71
2
72
6
73
3
74
0
42
0.000000001
43
0.0000000001
44
0.0000000001
40
0
40
0
40
0
40
1
40
1
40
1
10
85.4307946190238
20
110.90395450592041
30
0
10
85.346051119267941
20
111.22881412506104
30
0
10
85.346051119267941
20
111.55367255210876
30
0
0
SPLINE
5
342
100
AcDbEntity
8
0
100
AcDbSpline
70
0
71
2
72
6
73
3
74
0
42
0.000000001
43
0.0000000001
44
0.0000000001
40
0
40
0
40
0
40
1
40
1
40
1
10
85.346051119267941
20
111.55367255210876
30
0
10
85.346051119267941
20
111.82203412055969
30
0
10
85.374298952519894
20
112.14689254760742
30
0
0
SPLINE
5
343
100
AcDbEntity
8
0
100
AcDbSpline
70
0
71
2
72
6
73
3
74
0
42
0.000000001
43
0.0000000001
44
0.0000000001
40
0
40
0
40
0
40
1
40
1
40
1
10
85.374298952519894
20
112.14689254760742
30
0
10
85.416670702397823
20
112.48587608337402
30
0
10
85.487290285527706
20
112.82485842704773
30
0
0
LINE
5
344
100
AcDbEntity
8
0
100
AcDbLine
10
85.48729028552772
20
112.82485842704773
30
0
11
86.264124773442745
21
117.34463214874268
31
0
0
LINE
5
345
100
AcDbEntity
8
0
100
AcDbLine
10
86.264124773442745
20
117.34463214874268
30
0
11
88.326273821294308
21
117.34463214874268
31
0
0
LINE
5
346
100
AcDbEntity
8
0
100
AcDbLine
10
88.326273821294308
20
117.34463214874268
30
0
11
87.535315416753292
21
112.8389835357666
31
0
0
SPLINE
5
347
100
AcDbEntity
8
0
100
AcDbSpline
70
0
71
2
72
6
73
3
74
0
42
0.000000001
43
0.0000000001
44
0.0000000001
40
0
40
0
40
0
40
1
40
1
40
1
10
87.535315416753292
20
112.8389835357666
30
0
10
87.507067583501339
20
112.69773960113525
30
0
10
87.492943666875362
20
112.5564968585968
30
0
0
SPLINE
5
348
100
AcDbEntity
8
0
100
AcDbSpline
70
0
71
2
72
6
73
3
74
0
42
0.000000001
43
0.0000000001
44
0.0000000001
40
0
40
0
40
0
40
1
40
1
40
1
10
87.492943666875362
20
112.5564968585968
30
0
10
87.478819750249386
20
112.42937803268433
30
0
10
87.478819750249386
20
112.31638431549072
30
0
0
SPLINE
5
349
100
AcDbEntity
8
0
100
AcDbSpline
70
0
71
2
72
6
73
3
74
0
42
0.000000001
43
0.0000000001
44
0.0000000001
40
0
40
0
40
0
40
1
40
1
40
1
10
87.478819750249386
20
112.31638431549072
30
0
10
87.478819750249386
20
112.01977372169495
30
0
10
87.591811083257198
20
111.80790901184082
30
0
0
SPLINE
5
350
100
AcDbEntity
8
0
100
AcDbSpline
70
0
71
2
72
6
73
3
74
0
42
0.000000001
43
0.0000000001
44
0.0000000001
40
0
40
0
40
0
40
1
40
1
40
1
10
87.591811083257198
20
111.80790901184082
30
0
10
87.718926332890987
20
111.59604549407959
30
0
10
88.057909868657589
20
111.59604549407959
30
0
0
SPLINE
5
351
100
AcDbEntity
8
0
100
AcDbSpline
70
0
71
2
72
6
73
3
74
0
42
0.000000001
43
0.0000000001
44
0.0000000001
40
0
40
0
40
0
40
1
40
1
40
1
10
88.057909868657589
20
111.59604549407959
30
0
10
88.48163690418005
20
111.59604549407959
30
0
10
88.778248690068722
20
111.99152588844299
30
0
0
SPLINE
5
352
100
AcDbEntity
8
0
100
AcDbSpline
70
0
71
2
72
6
73
3
74
0
42
0.000000001
43
0.0000000001
44
0.0000000001
40
0
40
0
40
0
40
1
40
1
40
1
10
88.778248690068722
20
111.99152588844299
30
0
10
89.08898439258337
20
112.40113019943237
30
0
10
89.201975725591183
20
113.03672313690186
30
0
0
LINE
5
353
100
AcDbEntity
8
0
100
AcDbLine
10
89.201975725591183
20
113.03672313690186
30
0
11
89.950571916997433
21
117.34463214874268
31
0
0
LINE
5
354
100
AcDbEntity
8
0
100
AcDbLine
10
89.950571916997433
20
117.34463214874268
30
0
11
92.012711428105831
21
117.34463214874268
31
0
0
LINE
5
355
100
AcDbEntity
8
0
100
AcDbLine
10
92.012711428105831
20
117.34463214874268
30
0
11
91.03814210742712
21
111.79378509521484
31
0
0
SPLINE
5
356
100
AcDbEntity
8
0
100
AcDbSpline
70
0
71
2
72
6
73
3
74
0
42
0.000000001
43
0.0000000001
44
0.0000000001
40
0
40
0
40
0
40
1
40
1
40
1
10
96.927967928349972
20
115.3954803943634
30
0
10
96.814976595342159
20
115.52259922027588
30
0
10
96.659603975713253
20
115.60734510421753
30
0
0
SPLINE
5
357
100
AcDbEntity
8
0
100
AcDbSpline
70
0
71
2
72
6
73
3
74
0
42
0.000000001
43
0.0000000001
44
0.0000000001
40
0
40
0
40
0
40
1
40
1
40
1
10
96.659603975713253
20
115.60734510421753
30
0
10
96.504240892827511
20
115.69209098815918
30
0
10
96.235876940190792
20
115.69209098815918
30
0
0
SPLINE
5
358
100
AcDbEntity
8
0
100
AcDbSpline
70
0
71
2
72
6
73
3
74
0
42
0.000000001
43
0.0000000001
44
0.0000000001
40
0
40
0
40
0
40
1
40
1
40
1
10
96.235876940190792
20
115.69209098815918
30
0
10
95.896893404424191
20
115.69209098815918
30
0
10
95.614405535161495
20
115.42372941970825
30
0
0
SPLINE
5
359
100
AcDbEntity
8
0
100
AcDbSpline
70
0
71
2
72
6
73
3
74
0
42
0.000000001
43
0.0000000001
44
0.0000000001
40
0
40
0
40
0
40
1
40
1
40
1
10
95.614405535161495
20
115.42372941970825
30
0
10
95.346041582524776
20
115.15536785125732
30
0
10
95.148306749761105
20
114.74576234817505
30
0
0
SPLINE
5
360
100
AcDbEntity
8
0
100
AcDbSpline
70
0
71
2
72
6
73
3
74
0
42
0.000000001
43
0.0000000001
44
0.0000000001
40
0
40
0
40
0
40
1
40
1
40
1
10
95.148306749761105
20
114.74576234817505
30
0
10
94.964686296880245
20
114.35028314590454
30
0
10
94.865818880498409
20
113.85593175888062
30
0
0
SPLINE
5
361
100
AcDbEntity
8
0
100
AcDbSpline
70
0
71
2
72
6
73
3
74
0
42
0.000000001
43
0.0000000001
44
0.0000000001
40
0
40
0
40
0
40
1
40
1
40
1
10
94.865818880498409
20
113.85593175888062
30
0
10
94.766951464116573
20
113.36158275604248
30
0
10
94.766951464116573
20
112.92372941970825
30
0
0
SPLINE
5
362
100
AcDbEntity
8
0
100
AcDbSpline
70
0
71
2
72
6
73
3
74
0
42
0.000000001
43
0.0000000001
44
0.0000000001
40
0
40
0
40
0
40
1
40
1
40
1
10
94.766951464116573
20
112.92372941970825
30
0
10
94.766951464116573
20
112.3305082321167
30
0
10
94.964686296880245
20
111.99152588844299
30
0
0
SPLINE
5
363
100
AcDbEntity
8
0
100
AcDbSpline
70
0
71
2
72
6
73
3
74
0
42
0.000000001
43
0.0000000001
44
0.0000000001
40
0
40
0
40
0
40
1
40
1
40
1
10
94.964686296880245
20
111.99152588844299
30
0
10
95.176554583013058
20
111.66666626930237
30
0
10
95.628529451787472
20
111.66666626930237
30
0
0
SPLINE
5
364
100
AcDbEntity
8
0
100
AcDbSpline
70
0
71
2
72
6
73
3
74
0
42
0.000000001
43
0.0000000001
44
0.0000000001
40
0
40
0
40
0
40
1
40
1
40
1
10
95.628529451787472
20
111.66666626930237
30
0
10
95.854521654546261
20
111.66666626930237
30
0
10
96.02400865405798
20
111.73728823661804
30
0
0
SPLINE
5
365
100
AcDbEntity
8
0
100
AcDbSpline
70
0
71
2
72
6
73
3
74
0
42
0.000000001
43
0.0000000001
44
0.0000000001
40
0
40
0
40
0
40
1
40
1
40
1
10
96.02400865405798
20
111.73728823661804
30
0
10
96.207629106938839
20
111.82203412055969
30
0
10
96.377116106450558
20
111.9350278377533
30
0
0
LINE
5
366
100
AcDbEntity
8
0
100
AcDbLine
10
96.377116106450558
20
111.9350278377533
30
0
11
96.913844011723995
21
110.31073451042175
31
0
0
SPLINE
5
367
100
AcDbEntity
8
0
100
AcDbSpline
70
0
71
2
72
6
73
3
74
0
42
0.000000001
43
0.0000000001
44
0.0000000001
40
0
40
0
40
0
40
1
40
1
40
1
10
96.913844011723995
20
110.31073451042175
30
0
10
96.617232225835323
20
110.07062196731567
30
0
10
96.179381273686886
20
109.92937803268433
30
0
0
SPLINE
5
368
100
AcDbEntity
8
0
100
AcDbSpline
70
0
71
2
72
6
73
3
74
0
42
0.000000001
43
0.0000000001
44
0.0000000001
40
0
40
0
40
0
40
1
40
1
40
1
10
96.179381273686886
20
109.92937803268433
30
0
10
95.741530321538448
20
109.7740113735199
30
0
10
95.218926332890987
20
109.7740113735199
30
0
0
SPLINE
5
369
100
AcDbEntity
8
0
100
AcDbSpline
70
0
71
2
72
6
73
3
74
0
42
0.000000001
43
0.0000000001
44
0.0000000001
40
0
40
0
40
0
40
1
40
1
40
1
10
95.218926332890987
20
109.7740113735199
30
0
10
94.569207094609737
20
109.7740113735199
30
0
10
94.103108309209347
20
110
30
0
0
SPLINE
5
370
100
AcDbEntity
8
0
100
AcDbSpline
70
0
71
2
72
6
73
3
74
0
42
0.000000001
43
0.0000000001
44
0.0000000001
40
0
40
0
40
0
40
1
40
1
40
1
10
94.103108309209347
20
110
30
0
10
93.637009523808956
20
110.2259886264801
30
0
10
93.326273821294308
20
110.62146902084351
30
0
0
SPLINE
5
371
100
AcDbEntity
8
0
100
AcDbSpline
70
0
71
2
72
6
73
3
74
0
42
0.000000001
43
0.0000000001
44
0.0000000001
40
0
40
0
40
0
40
1
40
1
40
1
10
93.326273821294308
20
110.62146902084351
30
0
10
93.029662035405636
20
111.01694941520691
30
0
10
92.88842286914587
20
111.53954744338989
30
0
0
SPLINE
5
372
100
AcDbEntity
8
0
100
AcDbSpline
70
0
71
2
72
6
73
3
74
0
42
0.000000001
43
0.0000000001
44
0.0000000001
40
0
40
0
40
0
40
1
40
1
40
1
10
92.88842286914587
20
111.53954744338989
30
0
10
92.747174166142941
20
112.07627058029175
30
0
10
92.747174166142941
20
112.68361568450928
30
0
0
SPLINE
5
373
100
AcDbEntity
8
0
100
AcDbSpline
70
0
71
2
72
6
73
3
74
0
42
0.000000001
43
0.0000000001
44
0.0000000001
40
0
40
0
40
0
40
1
40
1
40
1
10
92.747174166142941
20
112.68361568450928
30
0
10
92.747174166142941
20
113.57344627380371
30
0
10
92.987290285527706
20
114.43502902984619
30
0
0
SPLINE
5
374
100
AcDbEntity
8
0
100
AcDbSpline
70
0
71
2
72
6
73
3
74
0
42
0.000000001
43
0.0000000001
44
0.0000000001
40
0
40
0
40
0
40
1
40
1
40
1
10
92.987290285527706
20
114.43502902984619
30
0
10
93.227406404912472
20
115.31073451042175
30
0
10
93.679381273686886
20
116.00282430648804
30
0
0
SPLINE
5
375
100
AcDbEntity
8
0
100
AcDbSpline
70
0
71
2
72
6
73
3
74
0
42
0.000000001
43
0.0000000001
44
0.0000000001
40
0
40
0
40
0
40
1
40
1
40
1
10
93.679381273686886
20
116.00282430648804
30
0
10
94.145480059087276
20
116.70903921127319
30
0
10
94.795199297368526
20
117.13276863098145
30
0
0
SPLINE
5
376
100
AcDbEntity
8
0
100
AcDbSpline
70
0
71
2
72
6
73
3
74
0
42
0.000000001
43
0.0000000001
44
0.0000000001
40
0
40
0
40
0
40
1
40
1
40
1
10
94.795199297368526
20
117.13276863098145
30
0
10
95.444918535649776
20
117.57062196731567
30
0
10
96.278248690068722
20
117.57062196731567
30
0
0
SPLINE
5
377
100
AcDbEntity
8
0
100
AcDbSpline
70
0
71
2
72
6
73
3
74
0
42
0.000000001
43
0.0000000001
44
0.0000000001
40
0
40
0
40
0
40
1
40
1
40
1
10
96.278248690068722
20
117.57062196731567
30
0
10
96.956215761601925
20
117.57062196731567
30
0
10
97.351694963872433
20
117.40113019943237
30
0
0
SPLINE
5
378
100
AcDbEntity
8
0
100
AcDbSpline
70
0
71
2
72
6
73
3
74
0
42
0.000000001
43
0.0000000001
44
0.0000000001
40
0
40
0
40
0
40
1
40
1
40
1
10
97.351694963872433
20
117.40113019943237
30
0
10
97.747174166142941
20
117.23163843154907
30
0
10
97.987290285527706
20
117.00564980506897
30
0
0
LINE
5
379
100
AcDbEntity
8
0
100
AcDbLine
10
97.987290285527706
20
117.00564980506896
30
0
11
96.927967928349972
21
115.3954803943634
31
0
0
SPLINE
5
380
100
AcDbEntity
8
0
100
AcDbSpline
70
0
71
2
72
6
73
3
74
0
42
0.000000001
43
0.0000000001
44
0.0000000001
40
0
40
0
40
0
40
1
40
1
40
1
10
104.37147226184607
20
115.79096078872681
30
0
10
104.37147226184607
20
115.52259922027588
30
0
10
104.32910051196814
20
115.18361568450928
30
0
0
SPLINE
5
381
100
AcDbEntity
8
0
100
AcDbSpline
70
0
71
2
72
6
73
3
74
0
42
0.000000001
43
0.0000000001
44
0.0000000001
40
0
40
0
40
0
40
1
40
1
40
1
10
104.32910051196814
20
115.18361568450928
30
0
10
104.30085267871618
20
114.84463214874268
30
0
10
104.23022355884314
20
114.50564980506897
30
0
0
LINE
5
382
100
AcDbEntity
8
0
100
AcDbLine
10
104.23022355884314
20
114.50564980506897
30
0
11
103.4533890709281
21
110
31
0
0
LINE
5
383
100
AcDbEntity
8
0
100
AcDbLine
10
103.4533890709281
20
110
30
0
11
101.3912495598197
21
110
31
0
0
LINE
5
384
100
AcDbEntity
8
0
100
AcDbLine
10
101.3912495598197
20
110
30
0
11
102.18220796436071
21
114.50564980506897
31
0
0
SPLINE
5
385
100
AcDbEntity
8
0
100
AcDbSpline
70
0
71
2
72
6
73
3
74
0
42
0.000000001
43
0.0000000001
44
0.0000000001
40
0
40
0
40
0
40
1
40
1
40
1
10
102.18220796436071
20
114.50564980506897
30
0
10
102.21045579761267
20
114.63276863098145
30
0
10
102.22457971423864
20
114.75988745689392
30
0
0
SPLINE
5
386
100
AcDbEntity
8
0
100
AcDbSpline
70
0
71
2
72
6
73
3
74
0
42
0.000000001
43
0.0000000001
44
0.0000000001
40
0
40
0
40
0
40
1
40
1
40
1
10
102.22457971423864
20
114.75988745689392
30
0
10
102.23870363086462
20
114.90113019943237
30
0
10
102.23870363086462
20
115.02824783325195
30
0
0
SPLINE
5
387
100
AcDbEntity
8
0
100
AcDbSpline
70
0
71
2
72
6
73
3
74
0
42
0.000000001
43
0.0000000001
44
0.0000000001
40
0
40
0
40
0
40
1
40
1
40
1
10
102.23870363086462
20
115.02824783325195
30
0
10
102.23870363086462
20
115.32485961914062
30
0
10
102.11158838123083
20
115.53672313690186
30
0
0
SPLINE
5
388
100
AcDbEntity
8
0
100
AcDbSpline
70
0
71
2
72
6
73
3
74
0
42
0.000000001
43
0.0000000001
44
0.0000000001
40
0
40
0
40
0
40
1
40
1
40
1
10
102.11158838123083
20
115.53672313690186
30
0
10
101.99858751147985
20
115.74858784675598
30
0
10
101.65960397571325
20
115.74858784675598
30
0
0
SPLINE
5
389
100
AcDbEntity
8
0
100
AcDbSpline
70
0
71
2
72
6
73
3
74
0
42
0.000000001
43
0.0000000001
44
0.0000000001
40
0
40
0
40
0
40
1
40
1
40
1
10
101.65960397571325
20
115.74858784675598
30
0
10
101.23587694019079
20
115.74858784675598
30
0
10
100.92514123767614
20
115.3389835357666
30
0
0
SPLINE
5
390
100
AcDbEntity
8
0
100
AcDbSpline
70
0
71
2
72
6
73
3
74
0
42
0.000000001
43
0.0000000001
44
0.0000000001
40
0
40
0
40
0
40
1
40
1
40
1
10
100.92514123767614
20
115.3389835357666
30
0
10
100.62852945178747
20
114.9435031414032
30
0
10
100.51553811877966
20
114.30790901184082
30
0
0
LINE
5
391
100
AcDbEntity
8
0
100
AcDbLine
10
100.51553811877966
20
114.30790901184083
30
0
11
99.766951464116573
21
110
31
0
0
LINE
5
392
100
AcDbEntity
8
0
100
AcDbLine
10
99.766951464116573
20
110
30
0
11
97.704802416265011
21
110
31
0
0
LINE
5
393
100
AcDbEntity
8
0
100
AcDbLine
10
97.704802416265011
20
110
30
0
11
99.569207094609737
21
120.67796587944031
31
0
0
LINE
5
394
100
AcDbEntity
8
0
100
AcDbLine
10
99.569207094609737
20
120.67796587944031
30
0
11
101.61723222583532
21
120.67796587944031
31
0
0
LINE
5
395
100
AcDbEntity
8
0
100
AcDbLine
10
101.61723222583532
20
120.67796587944031
30
0
11
100.85452165454626
21
116.34180784225464
31
0
0
LINE
5
396
100
AcDbEntity
8
0
100
AcDbLine
10
100.85452165454626
20
116.34180784225464
30
0
11
100.88276948779821
21
116.34180784225464
31
0
0
SPLINE
5
397
100
AcDbEntity
8
0
100
AcDbSpline
70
0
71
2
72
6
73
3
74
0
42
0.000000001
43
0.0000000001
44
0.0000000001
40
0
40
0
40
0
40
1
40
1
40
1
10
100.88276948779821
20
116.34180784225464
30
0
10
101.16525735706091
20
116.83615803718567
30
0
10
101.61723222583532
20
117.20339059829712
30
0
0
SPLINE
5
398
100
AcDbEntity
8
0
100
AcDbSpline
70
0
71
2
72
6
73
3
74
0
42
0.000000001
43
0.0000000001
44
0.0000000001
40
0
40
0
40
0
40
1
40
1
40
1
10
101.61723222583532
20
117.20339059829712
30
0
10
102.08333101123571
20
117.57062196731567
30
0
10
102.76129808276892
20
117.57062196731567
30
0
0
SPLINE
5
399
100
AcDbEntity
8
0
100
AcDbSpline
70
0
71
2
72
6
73
3
74
0
42
0.000000001
43
0.0000000001
44
0.0000000001
40
0
40
0
40
0
40
1
40
1
40
1
10
102.76129808276892
20
117.57062196731567
30
0
10
103.19915857166052
20
117.57062196731567
30
0
10
103.509884737432
20
117.40113019943237
30
0
0
SPLINE
5
400
100
AcDbEntity
8
0
100
AcDbSpline
70
0
71
2
72
6
73
3
74
0
42
0.000000001
43
0.0000000001
44
0.0000000001
40
0
40
0
40
0
40
1
40
1
40
1
10
103.509884737432
20
117.40113019943237
30
0
10
103.82062043994665
20
117.24576234817505
30
0
10
104.00424089282751
20
116.9915246963501
30
0
0
SPLINE
5
401
100
AcDbEntity
8
0
100
AcDbSpline
70
0
71
2
72
6
73
3
74
0
42
0.000000001
43
0.0000000001
44
0.0000000001
40
0
40
0
40
0
40
1
40
1
40
1
10
104.00424089282751
20
116.9915246963501
30
0
10
104.20197572559118
20
116.73728823661804
30
0
10
104.28672876209021
20
116.41242980957031
30
0
0
SPLINE
5
402
100
AcDbEntity
8
0
100
AcDbSpline
70
0
71
2
72
6
73
3
74
0
42
0.000000001
43
0.0000000001
44
0.0000000001
40
0
40
0
40
0
40
1
40
1
40
1
10
104.28672876209021
20
116.41242980957031
30
0
10
104.37147226184607
20
116.10169410705566
30
0
10
104.37147226184607
20
115.79096078872681
30
0
0
SPLINE
5
403
100
AcDbEntity
8
0
100
AcDbSpline
70
0
71
2
72
6
73
3
74
0
42
0.000000001
43
0.0000000001
44
0.0000000001
40
0
40
0
40
0
40
1
40
1
40
1
10
109.04660310596228
20
119.5762711763382
30
0
10
109.04660310596228
20
119.29378509521484
30
0
10
108.94773568958044
20
119.03954744338989
30
0
0
SPLINE
5
404
100
AcDbEntity
8
0
100
AcDbSpline
70
0
71
2
72
6
73
3
74
0
42
0.000000001
43
0.0000000001
44
0.0000000001
40
0
40
0
40
0
40
1
40
1
40
1
10
108.94773568958044
20
119.03954744338989
30
0
10
108.8488682731986
20
118.79943490028381
30
0
10
108.67937173694372
20
118.61581921577454
30
0
0
SPLINE
5
405
100
AcDbEntity
8
0
100
AcDbSpline
70
0
71
2
72
6
73
3
74
0
42
0.000000001
43
0.0000000001
44
0.0000000001
40
0
40
0
40
0
40
1
40
1
40
1
10
108.67937173694372
20
118.61581921577454
30
0
10
108.509884737432
20
118.43220353126526
30
0
10
108.26976861804724
20
118.31920862197876
30
0
0
SPLINE
5
406
100
AcDbEntity
8
0
100
AcDbSpline
70
0
71
2
72
6
73
3
74
0
42
0.000000001
43
0.0000000001
44
0.0000000001
40
0
40
0
40
0
40
1
40
1
40
1
10
108.26976861804724
20
118.31920862197876
30
0
10
108.04378595203161
20
118.22033882141113
30
0
10
107.77542199939489
20
118.22033882141113
30
0
0
SPLINE
5
407
100
AcDbEntity
8
0
100
AcDbSpline
70
0
71
2
72
6
73
3
74
0
42
0.000000001
43
0.0000000001
44
0.0000000001
40
0
40
0
40
0
40
1
40
1
40
1
10
107.77542199939489
20
118.22033882141113
30
0
10
107.28107538074255
20
118.22033882141113
30
0
10
107.01271142810583
20
118.53107333183289
30
0
0
SPLINE
5
408
100
AcDbEntity
8
0
100
AcDbSpline
70
0
71
2
72
6
73
3
74
0
42
0.000000001
43
0.0000000001
44
0.0000000001
40
0
40
0
40
0
40
1
40
1
40
1
10
107.01271142810583
20
118.53107333183289
30
0
10
106.74434747546911
20
118.85593175888062
30
0
10
106.74434747546911
20
119.26553666591644
30
0
0
SPLINE
5
409
100
AcDbEntity
8
0
100
AcDbSpline
70
0
71
2
72
6
73
3
74
0
42
0.000000001
43
0.0000000001
44
0.0000000001
40
0
40
0
40
0
40
1
40
1
40
1
10
106.74434747546911
20
119.26553666591644
30
0
10
106.74434747546911
20
119.53389823436737
30
0
10
106.82909097522497
20
119.7740113735199
30
0
0
SPLINE
5
410
100
AcDbEntity
8
0
100
AcDbSpline
70
0
71
2
72
6
73
3
74
0
42
0.000000001
43
0.0000000001
44
0.0000000001
40
0
40
0
40
0
40
1
40
1
40
1
10
106.82909097522497
20
119.7740113735199
30
0
10
106.92796792834997
20
120.02824902534485
30
0
10
107.09745492786169
20
120.21186470985413
30
0
0
SPLINE
5
411
100
AcDbEntity
8
0
100
AcDbSpline
70
0
71
2
72
6
73
3
74
0
42
0.000000001
43
0.0000000001
44
0.0000000001
40
0
40
0
40
0
40
1
40
1
40
1
10
107.09745492786169
20
120.21186470985413
30
0
10
107.26694192737341
20
120.40960431098938
30
0
10
107.4929341301322
20
120.52259922027588
30
0
0
SPLINE
5
412
100
AcDbEntity
8
0
100
AcDbSpline
70
0
71
2
72
6
73
3
74
0
42
0.000000001
43
0.0000000001
44
0.0000000001
40
0
40
0
40
0
40
1
40
1
40
1
10
107.4929341301322
20
120.52259922027588
30
0
10
107.71892633289099
20
120.63559293746948
30
0
10
107.98728074878454
20
120.63559293746948
30
0
0
SPLINE
5
413
100
AcDbEntity
8
0
100
AcDbSpline
70
0
71
2
72
6
73
3
74
0
42
0.000000001
43
0.0000000001
44
0.0000000001
40
0
40
0
40
0
40
1
40
1
40
1
10
107.98728074878454
20
120.63559293746948
30
0
10
108.49576082080603
20
120.63559293746948
30
0
10
108.76412477344275
20
120.32485842704773
30
0
0
SPLINE
5
414
100
AcDbEntity
8
0
100
AcDbSpline
70
0
71
2
72
6
73
3
74
0
42
0.000000001
43
0.0000000001
44
0.0000000001
40
0
40
0
40
0
40
1
40
1
40
1
10
108.76412477344275
20
120.32485842704773
30
0
10
109.04660310596228
20
120.02824902534485
30
0
10
109.04660310596228
20
119.5762711763382
30
0
0
LWPOLYLINE
5
415
100
AcDbEntity
8
0
100
AcDbPolyline
90
4
70
1
43
0.0
10
107.3093232139945
20
110
10
105.24717416614294
20
110
10
106.51835527271032
20
117.34463214874268
10
108.58050432056189
20
117.34463214874268
0
ENDSEC
0
SECTION
2
OBJECTS
0
DICTIONARY
5
C
100
AcDbDictionary
3
ACAD_GROUP
350
D
3
ACAD_MLINESTYLE
350
17
0
DICTIONARY
5
D
100
AcDbDictionary
0
DICTIONARY
5
1A
330
C
100
AcDbDictionary
0
DICTIONARY
5
17
100
AcDbDictionary
0
ENDSEC
0
EOF
