  0
SECTION
  2
HEADER
  9
$ACADVER
  1
AC1027
  9
$ACADMAINTVER
 70
   125
  9
$DWGCODEPAGE
  3
ANSI_1252
  9
$REQUIREDVERSIONS
160
                 0
  9
$INSBASE
 10
0.0
 20
0.0
 30
0.0
  9
$EXTMIN
 10
1.000000000000000E+20
 20
1.000000000000000E+20
 30
1.000000000000000E+20
  9
$EXTMAX
 10
-1.000000000000000E+20
 20
-1.000000000000000E+20
 30
-1.000000000000000E+20
  9
$LIMMIN
 10
0.0
 20
0.0
  9
$LIMMAX
 10
12.0
 20
9.0
  9
$ORTHOMODE
 70
     0
  9
$REGENMODE
 70
     1
  9
$FILLMODE
 70
     1
  9
$QTEXTMODE
 70
     0
  9
$MIRRTEXT
 70
     0
  9
$LTSCALE
 40
1.0
  9
$ATTMODE
 70
     1
  9
$TEXTSIZE
 40
0.2
  9
$TRACEWID
 40
0.05
  9
$TEXTSTYLE
  7
Standard
  9
$CLAYER
  8
0
  9
$CELTYPE
  6
ByLayer
  9
$CECOLOR
 62
   256
  9
$CELTSCALE
 40
1.0
  9
$DISPSILH
 70
     0
  9
$DIMSCALE
 40
1.0
  9
$DIMASZ
 40
0.18
  9
$DIMEXO
 40
0.0625
  9
$DIMDLI
 40
0.38
  9
$DIMRND
 40
0.0
  9
$DIMDLE
 40
0.0
  9
$DIMEXE
 40
0.18
  9
$DIMTP
 40
0.0
  9
$DIMTM
 40
0.0
  9
$DIMTXT
 40
0.18
  9
$DIMCEN
 40
0.09
  9
$DIMTSZ
 40
0.0
  9
$DIMTOL
 70
     0
  9
$DIMLIM
 70
     0
  9
$DIMTIH
 70
     1
  9
$DIMTOH
 70
     1
  9
$DIMSE1
 70
     0
  9
$DIMSE2
 70
     0
  9
$DIMTAD
 70
     0
  9
$DIMZIN
 70
     0
  9
$DIMBLK
  1

  9
$DIMASO
 70
     1
  9
$DIMSHO
 70
     1
  9
$DIMPOST
  1

  9
$DIMAPOST
  1

  9
$DIMALT
 70
     0
  9
$DIMALTD
 70
     2
  9
$DIMALTF
 40
25.4
  9
$DIMLFAC
 40
1.0
  9
$DIMTOFL
 70
     0
  9
$DIMTVP
 40
0.0
  9
$DIMTIX
 70
     0
  9
$DIMSOXD
 70
     0
  9
$DIMSAH
 70
     0
  9
$DIMBLK1
  1

  9
$DIMBLK2
  1

  9
$DIMSTYLE
  2
Standard
  9
$DIMCLRD
 70
     0
  9
$DIMCLRE
 70
     0
  9
$DIMCLRT
 70
     0
  9
$DIMTFAC
 40
1.0
  9
$DIMGAP
 40
0.09
  9
$DIMJUST
 70
     0
  9
$DIMSD1
 70
     0
  9
$DIMSD2
 70
     0
  9
$DIMTOLJ
 70
     1
  9
$DIMTZIN
 70
     0
  9
$DIMALTZ
 70
     0
  9
$DIMALTTZ
 70
     0
  9
$DIMUPT
 70
     0
  9
$DIMDEC
 70
     4
  9
$DIMTDEC
 70
     4
  9
$DIMALTU
 70
     2
  9
$DIMALTTD
 70
     2
  9
$DIMTXSTY
  7
Standard
  9
$DIMAUNIT
 70
     0
  9
$DIMADEC
 70
     0
  9
$DIMALTRND
 40
0.0
  9
$DIMAZIN
 70
     0
  9
$DIMDSEP
 70
    46
  9
$DIMATFIT
 70
     3
  9
$DIMFRAC
 70
     0
  9
$DIMLDRBLK
  1

  9
$DIMLUNIT
 70
     2
  9
$DIMLWD
 70
    -2
  9
$DIMLWE
 70
    -2
  9
$DIMTMOVE
 70
     0
  9
$DIMFXL
 40
1.0
  9
$DIMFXLON
 70
     0
  9
$DIMJOGANG
 40
0.7853981633974483
  9
$DIMTFILL
 70
     0
  9
$DIMTFILLCLR
 70
     0
  9
$DIMARCSYM
 70
     0
  9
$DIMLTYPE
  6

  9
$DIMLTEX1
  6

  9
$DIMLTEX2
  6

  9
$DIMTXTDIRECTION
 70
     0
  9
$LUNITS
 70
     2
  9
$LUPREC
 70
     4
  9
$SKETCHINC
 40
0.1
  9
$FILLETRAD
 40
0.0
  9
$AUNITS
 70
     0
  9
$AUPREC
 70
     0
  9
$MENU
  1
.
  9
$ELEVATION
 40
0.0
  9
$PELEVATION
 40
0.0
  9
$THICKNESS
 40
0.0
  9
$LIMCHECK
 70
     0
  9
$CHAMFERA
 40
0.0
  9
$CHAMFERB
 40
0.0
  9
$CHAMFERC
 40
0.0
  9
$CHAMFERD
 40
0.0
  9
$SKPOLY
 70
     0
  9
$TDCREATE
 40
2459916.146226852
  9
$TDUCREATE
 40
2459916.146226852
  9
$TDUPDATE
 40
2459916.146226852
  9
$TDUUPDATE
 40
2459916.146226852
  9
$TDINDWG
 40
0.0000000000
  9
$TDUSRTIMER
 40
0.0000000000
  9
$USRTIMER
 70
     1
  9
$ANGBASE
 50
0.0
  9
$ANGDIR
 70
     0
  9
$PDMODE
 70
     0
  9
$PDSIZE
 40
0.0
  9
$PLINEWID
 40
0.0
  9
$SPLFRAME
 70
     0
  9
$SPLINETYPE
 70
     6
  9
$SPLINESEGS
 70
     8
  9
$HANDSEED
  5
BD
  9
$SURFTAB1
 70
     6
  9
$SURFTAB2
 70
     6
  9
$SURFTYPE
 70
     6
  9
$SURFU
 70
     6
  9
$SURFV
 70
     6
  9
$UCSBASE
  2

  9
$UCSNAME
  2

  9
$UCSORG
 10
0.0
 20
0.0
 30
0.0
  9
$UCSXDIR
 10
1.0
 20
0.0
 30
0.0
  9
$UCSYDIR
 10
0.0
 20
1.0
 30
0.0
  9
$UCSORTHOREF
  2

  9
$UCSORTHOVIEW
 70
     0
  9
$UCSORGTOP
 10
0.0
 20
0.0
 30
0.0
  9
$UCSORGBOTTOM
 10
0.0
 20
0.0
 30
0.0
  9
$UCSORGLEFT
 10
0.0
 20
0.0
 30
0.0
  9
$UCSORGRIGHT
 10
0.0
 20
0.0
 30
0.0
  9
$UCSORGFRONT
 10
0.0
 20
0.0
 30
0.0
  9
$UCSORGBACK
 10
0.0
 20
0.0
 30
0.0
  9
$PUCSBASE
  2

  9
$PUCSNAME
  2

  9
$PUCSORG
 10
0.0
 20
0.0
 30
0.0
  9
$PUCSXDIR
 10
1.0
 20
0.0
 30
0.0
  9
$PUCSYDIR
 10
0.0
 20
1.0
 30
0.0
  9
$PUCSORTHOREF
  2

  9
$PUCSORTHOVIEW
 70
     0
  9
$PUCSORGTOP
 10
0.0
 20
0.0
 30
0.0
  9
$PUCSORGBOTTOM
 10
0.0
 20
0.0
 30
0.0
  9
$PUCSORGLEFT
 10
0.0
 20
0.0
 30
0.0
  9
$PUCSORGRIGHT
 10
0.0
 20
0.0
 30
0.0
  9
$PUCSORGFRONT
 10
0.0
 20
0.0
 30
0.0
  9
$PUCSORGBACK
 10
0.0
 20
0.0
 30
0.0
  9
$USERI1
 70
     0
  9
$USERI2
 70
     0
  9
$USERI3
 70
     0
  9
$USERI4
 70
     0
  9
$USERI5
 70
     0
  9
$USERR1
 40
0.0
  9
$USERR2
 40
0.0
  9
$USERR3
 40
0.0
  9
$USERR4
 40
0.0
  9
$USERR5
 40
0.0
  9
$WORLDVIEW
 70
     1
  9
$SHADEDGE
 70
     3
  9
$SHADEDIF
 70
    70
  9
$TILEMODE
 70
     1
  9
$MAXACTVP
 70
    64
  9
$PINSBASE
 10
0.0
 20
0.0
 30
0.0
  9
$PLIMCHECK
 70
     0
  9
$PEXTMIN
 10
1.000000000000000E+20
 20
1.000000000000000E+20
 30
1.000000000000000E+20
  9
$PEXTMAX
 10
-1.000000000000000E+20
 20
-1.000000000000000E+20
 30
-1.000000000000000E+20
  9
$PLIMMIN
 10
0.0
 20
0.0
  9
$PLIMMAX
 10
12.0
 20
9.0
  9
$UNITMODE
 70
     0
  9
$VISRETAIN
 70
     1
  9
$PLINEGEN
 70
     0
  9
$PSLTSCALE
 70
     1
  9
$TREEDEPTH
 70
  3020
  9
$CMLSTYLE
  2
Standard
  9
$CMLJUST
 70
     0
  9
$CMLSCALE
 40
1.0
  9
$PROXYGRAPHICS
 70
     1
  9
$MEASUREMENT
 70
     0
  9
$CELWEIGHT
370
    -1
  9
$ENDCAPS
280
     0
  9
$JOINSTYLE
280
     0
  9
$LWDISPLAY
290
     0
  9
$INSUNITS
 70
     5
  9
$HYPERLINKBASE
  1

  9
$STYLESHEET
  1

  9
$XEDIT
290
     1
  9
$CEPSNTYPE
380
     0
  9
$PSTYLEMODE
290
     1
  9
$FINGERPRINTGUID
  2
{7090AEB8-8F1A-494F-BFA4-C77C015D7CC8}
  9
$VERSIONGUID
  2
{375BB0B3-5DF3-F847-B02A-992C5E9AB052}
  9
$EXTNAMES
290
     1
  9
$PSVPSCALE
 40
0.0
  9
$OLESTARTUP
290
     0
  9
$SORTENTS
280
   127
  9
$INDEXCTL
280
     0
  9
$HIDETEXT
280
     1
  9
$XCLIPFRAME
280
     2
  9
$HALOGAP
280
     0
  9
$OBSCOLOR
 70
   257
  9
$OBSLTYPE
280
     0
  9
$INTERSECTIONDISPLAY
280
     0
  9
$INTERSECTIONCOLOR
 70
   257
  9
$DIMASSOC
280
     2
  9
$PROJECTNAME
  1

  9
$CAMERADISPLAY
290
     0
  9
$LENSLENGTH
 40
50.0
  9
$CAMERAHEIGHT
 40
0.0
  9
$STEPSPERSEC
 40
2.0
  9
$STEPSIZE
 40
6.0
  9
$3DDWFPREC
 40
2.0
  9
$PSOLWIDTH
 40
0.25
  9
$PSOLHEIGHT
 40
4.0
  9
$LOFTANG1
 40
1.570796326794896
  9
$LOFTANG2
 40
1.570796326794896
  9
$LOFTMAG1
 40
0.0
  9
$LOFTMAG2
 40
0.0
  9
$LOFTPARAM
 70
     7
  9
$LOFTNORMALS
280
     1
  9
$LATITUDE
 40
37.795
  9
$LONGITUDE
 40
-122.394
  9
$NORTHDIRECTION
 40
0.0
  9
$TIMEZONE
 70
 -8000
  9
$LIGHTGLYPHDISPLAY
280
     1
  9
$TILEMODELIGHTSYNCH
280
     1
  9
$CMATERIAL
347
11
  9
$SOLIDHIST
280
     0
  9
$SHOWHIST
280
     1
  9
$DWFFRAME
280
     2
  9
$DGNFRAME
280
     0
  9
$REALWORLDSCALE
290
     1
  9
$INTERFERECOLOR
 62
     1
  9
$INTERFEREOBJVS
345
33
  9
$INTERFEREVPVS
346
30
  9
$CSHADOW
280
     0
  9
$SHADOWPLANELOCATION
 40
0.0
  0
ENDSEC
  0
SECTION
  2
CLASSES
  0
CLASS
  1
ACDBDICTIONARYWDFLT
  2
AcDbDictionaryWithDefault
  3
ObjectDBX Classes
 90
        0
 91
        1
280
     0
281
     0
  0
CLASS
  1
MATERIAL
  2
AcDbMaterial
  3
ObjectDBX Classes
 90
     1153
 91
        3
280
     0
281
     0
  0
CLASS
  1
VISUALSTYLE
  2
AcDbVisualStyle
  3
ObjectDBX Classes
 90
     4095
 91
       24
280
     0
281
     0
  0
CLASS
  1
SCALE
  2
AcDbScale
  3
ObjectDBX Classes
 90
     1153
 91
       17
280
     0
281
     0
  0
CLASS
  1
TABLESTYLE
  2
AcDbTableStyle
  3
ObjectDBX Classes
 90
     4095
 91
        1
280
     0
281
     0
  0
CLASS
  1
MLEADERSTYLE
  2
AcDbMLeaderStyle
  3
ACDB_MLEADERSTYLE_CLASS
 90
     4095
 91
        1
280
     0
281
     0
  0
CLASS
  1
ACDBSECTIONVIEWSTYLE
  2
AcDbSectionViewStyle
  3
ObjectDBX Classes
 90
     1025
 91
        1
280
     0
281
     0
  0
CLASS
  1
ACDBDETAILVIEWSTYLE
  2
AcDbDetailViewStyle
  3
ObjectDBX Classes
 90
     1025
 91
        1
280
     0
281
     0
  0
CLASS
  1
DICTIONARYVAR
  2
AcDbDictionaryVar
  3
ObjectDBX Classes
 90
        0
 91
        5
280
     0
281
     0
  0
CLASS
  1
CELLSTYLEMAP
  2
AcDbCellStyleMap
  3
ObjectDBX Classes
 90
     1152
 91
        1
280
     0
281
     0
  0
ENDSEC
  0
SECTION
  2
TABLES
  0
TABLE
  2
VPORT
  5
8
330
0
100
AcDbSymbolTable
 70
     1
1001
ACAD
1000
DbSaveVer
1071
      267
  0
VPORT
  5
57
330
8
100
AcDbSymbolTableRecord
100
AcDbViewportTableRecord
  2
*Active
 70
     0
 10
0.0
 20
0.0
 11
1.0
 21
1.0
 12
500.0
 22
500.0
 13
0.0
 23
0.0
 14
1.0
 24
1.0
 15
0.0
 25
0.0
 16
0.0
 26
0.0
 36
1.0
 17
0.0
 27
0.0
 37
0.0
 40
12.0
 41
1.0
 42
50.0
 43
0.0
 44
0.0
 50
0.0
 51
0.0
 71
     0
 72
   100
 73
     1
 74
     1
 75
     0
 76
     0
 77
     0
 78
     0
281
     0
 65
     1
110
0.0
120
0.0
130
0.0
111
1.0
121
0.0
131
0.0
112
0.0
122
1.0
132
0.0
 79
     0
146
0.0
 60
     3
 61
     5
292
     1
282
     1
141
0.0
142
0.0
 63
   250
421
  3355443
  0
ENDTAB
  0
TABLE
  2
LTYPE
  5
5
330
0
100
AcDbSymbolTable
 70
     1
  0
LTYPE
  5
5B
330
5
100
AcDbSymbolTableRecord
100
AcDbLinetypeTableRecord
  2
ByBlock
 70
     0
  3

 72
    65
 73
     0
 40
0.0
  0
LTYPE
  5
5C
330
5
100
AcDbSymbolTableRecord
100
AcDbLinetypeTableRecord
  2
ByLayer
 70
     0
  3

 72
    65
 73
     0
 40
0.0
  0
LTYPE
  5
5D
330
5
100
AcDbSymbolTableRecord
100
AcDbLinetypeTableRecord
  2
Continuous
 70
     0
  3
Solid line
 72
    65
 73
     0
 40
0.0
  0
ENDTAB
  0
TABLE
  2
LAYER
  5
2
330
0
100
AcDbSymbolTable
 70
     2
  0
LAYER
  5
54
330
2
100
AcDbSymbolTableRecord
100
AcDbLayerTableRecord
  2
0
 70
     0
 62
     7
  6
Continuous
370
    -3
390
F
347
21
348
0
  0
LAYER
  5
7A
330
2
100
AcDbSymbolTableRecord
100
AcDbLayerTableRecord
  2
会話 v1_Sketch1
 70
     0
 62
     7
  6
Continuous
370
    -3
390
F
347
21
348
0
1001
NFusion_SketchTransform
1000
1.000000;0.000000;0.000000;0.000000;0.000000;1.000000;0.000000;0.000000;0.000000;0.000000;1.000000;0.000000;0.000000;0.000000;0.000000;1.000000
  0
ENDTAB
  0
TABLE
  2
STYLE
  5
3
330
0
100
AcDbSymbolTable
 70
     2
  0
STYLE
  5
55
330
3
100
AcDbSymbolTableRecord
100
AcDbTextStyleTableRecord
  2
Standard
 70
     0
 40
0.0
 41
1.0
 50
0.0
 71
     0
 42
0.2
  3
txt
  4

  0
STYLE
  5
5A
330
3
100
AcDbSymbolTableRecord
100
AcDbTextStyleTableRecord
  2
Annotative
 70
     0
 40
0.0
 41
1.0
 50
0.0
 71
     0
 42
0.2
  3
txt
  4

1001
AcadAnnotative
1000
AnnotativeData
1002
{
1070
     1
1070
     1
1002
}
  0
ENDTAB
  0
TABLE
  2
VIEW
  5
6
330
0
100
AcDbSymbolTable
 70
     0
  0
ENDTAB
  0
TABLE
  2
UCS
  5
7
330
0
100
AcDbSymbolTable
 70
     0
  0
ENDTAB
  0
TABLE
  2
APPID
  5
9
330
0
100
AcDbSymbolTable
 70
     4
  0
APPID
  5
56
330
9
100
AcDbSymbolTableRecord
100
AcDbRegAppTableRecord
  2
ACAD
 70
     0
  0
APPID
  5
5E
330
9
100
AcDbSymbolTableRecord
100
AcDbRegAppTableRecord
  2
AcadAnnotative
 70
     0
  0
APPID
  5
78
330
9
100
AcDbSymbolTableRecord
100
AcDbRegAppTableRecord
  2
EDIT_IN_FUSION_ACAD_ADDIN
 70
     0
  0
APPID
  5
79
330
9
100
AcDbSymbolTableRecord
100
AcDbRegAppTableRecord
  2
NFusion_SketchTransform
 70
     0
  0
ENDTAB
  0
TABLE
  2
DIMSTYLE
  5
A
330
0
100
AcDbSymbolTable
 70
     2
100
AcDbDimStyleTable
 71
     0
  0
DIMSTYLE
105
58
330
A
100
AcDbSymbolTableRecord
100
AcDbDimStyleTableRecord
  2
Standard
 70
     0
340
55
  0
DIMSTYLE
105
59
330
A
100
AcDbSymbolTableRecord
100
AcDbDimStyleTableRecord
  2
Annotative
 70
     0
340
55
1001
AcadAnnotative
1000
AnnotativeData
1002
{
1070
     1
1070
     1
1002
}
  0
ENDTAB
  0
TABLE
  2
BLOCK_RECORD
  5
1
330
0
100
AcDbSymbolTable
 70
     1
  0
BLOCK_RECORD
  5
70
330
1
100
AcDbSymbolTableRecord
100
AcDbBlockTableRecord
  2
*Model_Space
340
73
 70
     0
280
     1
281
     0
  0
BLOCK_RECORD
  5
6C
330
1
100
AcDbSymbolTableRecord
100
AcDbBlockTableRecord
  2
*Paper_Space
340
6F
 70
     0
280
     1
281
     0
  0
BLOCK_RECORD
  5
74
330
1
100
AcDbSymbolTableRecord
100
AcDbBlockTableRecord
  2
*Paper_Space0
340
77
 70
     0
280
     1
281
     0
  0
ENDTAB
  0
ENDSEC
  0
SECTION
  2
BLOCKS
  0
BLOCK
  5
71
330
70
100
AcDbEntity
  8
0
100
AcDbBlockBegin
  2
*Model_Space
 70
     0
 10
0.0
 20
0.0
 30
0.0
  3
*Model_Space
  1

  0
ENDBLK
  5
72
330
70
100
AcDbEntity
  8
0
100
AcDbBlockEnd
  0
BLOCK
  5
6D
330
6C
100
AcDbEntity
 67
     1
  8
0
100
AcDbBlockBegin
  2
*Paper_Space
 70
     0
 10
0.0
 20
0.0
 30
0.0
  3
*Paper_Space
  1

  0
ENDBLK
  5
6E
330
6C
100
AcDbEntity
 67
     1
  8
0
100
AcDbBlockEnd
  0
BLOCK
  5
75
330
74
100
AcDbEntity
 67
     1
  8
0
100
AcDbBlockBegin
  2
*Paper_Space0
 70
     0
 10
0.0
 20
0.0
 30
0.0
  3
*Paper_Space0
  1

  0
ENDBLK
  5
76
330
74
100
AcDbEntity
 67
     1
  8
0
100
AcDbBlockEnd
  0
ENDSEC
  0
SECTION
  2
ENTITIES
  0
POINT
  5
7B
330
70
100
AcDbEntity
  8
会話 v1_Sketch1
100
AcDbPoint
 10
0.0
 20
0.0
 30
0.0
  0
LINE
  5
7C
330
70
100
AcDbEntity
  8
会話 v1_Sketch1
100
AcDbLine
 10
1.531541876425408
 20
1.50851194428028
 30
0.0
 11
1.531541876425408
 21
1.564697539870212
 31
0.0
  0
LINE
  5
7D
330
70
100
AcDbEntity
  8
会話 v1_Sketch1
100
AcDbLine
 10
1.680207704971514
 20
0.5926325595861637
 30
0.0
 11
1.612030236927451
 21
1.314369114198857
 31
0.0
  0
LINE
  5
7E
330
70
100
AcDbEntity
  8
会話 v1_Sketch1
100
AcDbLine
 10
1.612030236927451
 20
1.314369114198857
 30
0.0
 11
1.59762158577793
 21
1.551688074308624
 31
0.0
  0
SPLINE
  5
7F
330
70
100
AcDbEntity
  8
会話 v1_Sketch1
100
AcDbSpline
210
0.0
220
0.0
230
1.0
 70
    12
 71
     5
 72
    26
 73
    20
 74
     0
 42
0.000000001
 43
0.0000000001
 40
0.0
 40
0.0
 40
0.0
 40
0.0
 40
0.0
 40
0.0
 40
0.0666666666666667
 40
0.1333333333333333
 40
0.2
 40
0.2666666666666666
 40
0.3333333333333333
 40
0.4
 40
0.4666666666666666
 40
0.5333333333333333
 40
0.6
 40
0.6666666666666666
 40
0.7333333333333333
 40
0.8
 40
0.8666666666666666
 40
0.9333333333333332
 40
1.0
 40
1.0
 40
1.0
 40
1.0
 40
1.0
 40
1.0
 10
1.531541876425408
 20
1.564697539870212
 30
0.0
 41
1.0
 10
1.532245894021804
 20
1.566123189077388
 30
0.0
 41
1.0
 10
1.533661212687109
 20
1.568896567514169
 30
0.0
 41
1.0
 10
1.535806040929701
 20
1.572822876814763
 30
0.0
 41
1.0
 10
1.53870983146841
 20
1.57758702774938
 30
0.0
 41
1.0
 10
1.542416190362509
 20
1.582728381253794
 30
0.0
 41
1.0
 10
1.546205627071995
 20
1.587004586150569
 30
0.0
 41
1.0
 10
1.550088405267386
 20
1.590341660064171
 30
0.0
 41
1.0
 10
1.554079116392724
 20
1.592644137680443
 30
0.0
 41
1.0
 10
1.558196958364009
 20
1.593798499412193
 30
0.0
 41
1.0
 10
1.562463376742004
 20
1.593683770622776
 30
0.0
 41
1.0
 10
1.56689931945024
 20
1.59218587137427
 30
0.0
 41
1.0
 10
1.571522521169124
 20
1.589212483624459
 30
0.0
 41
1.0
 10
1.5763432699368
 20
1.584718571111388
 30
0.0
 41
1.0
 10
1.581362848636167
 20
1.57871502122979
 30
0.0
 41
1.0
 10
1.58657807357264
 20
1.571238014795967
 30
0.0
 41
1.0
 10
1.590902664886345
 20
1.564113219260419
 30
0.0
 41
1.0
 10
1.594229811279551
 20
1.558142682454144
 30
0.0
 41
1.0
 10
1.596484839135865
 20
1.55388571297494
 30
0.0
 41
1.0
 10
1.59762158577793
 20
1.551688074308624
 30
0.0
 41
1.0
  0
CIRCLE
  5
80
330
70
100
AcDbEntity
  8
会話 v1_Sketch1
100
AcDbCircle
 10
3.500000052154064
 20
2.400000035762786
 30
0.0
 40
0.6708204032459398
  0
LINE
  5
81
330
70
100
AcDbEntity
  8
会話 v1_Sketch1
100
AcDbLine
 10
1.555420754551129
 20
1.171398370740685
 30
0.0
 11
1.609580050272633
 21
0.5980602193586822
 31
0.0
  0
SPLINE
  5
82
330
70
100
AcDbEntity
  8
会話 v1_Sketch1
100
AcDbSpline
210
0.0
220
0.0
230
1.0
 70
    12
 71
     5
 72
    31
 73
    25
 74
     0
 42
0.000000001
 43
0.0000000001
 40
0.0
 40
0.0
 40
0.0
 40
0.0
 40
0.0
 40
0.0
 40
0.05
 40
0.1
 40
0.15
 40
0.2
 40
0.25
 40
0.3
 40
0.35
 40
0.4
 40
0.45
 40
0.5
 40
0.55
 40
0.6
 40
0.65
 40
0.7000000000000001
 40
0.7500000000000001
 40
0.8000000000000001
 40
0.8500000000000001
 40
0.9000000000000001
 40
0.9500000000000003
 40
1.0
 40
1.0
 40
1.0
 40
1.0
 40
1.0
 40
1.0
 10
1.612030236927451
 20
0.572122188435279
 30
0.0
 41
1.0
 10
1.612741309482629
 20
0.5717345343139069
 30
0.0
 41
1.0
 10
1.614167866572138
 20
0.5709350567354448
 30
0.0
 41
1.0
 10
1.61632093766918
 20
0.569663330613094
 30
0.0
 41
1.0
 10
1.619218282118322
 20
0.5678220992182565
 30
0.0
 41
1.0
 10
1.622886442012992
 20
0.5652871957770308
 30
0.0
 41
1.0
 10
1.626606583654098
 20
0.5625533690683089
 30
0.0
 41
1.0
 10
1.630388765152435
 20
0.5596942170358914
 30
0.0
 41
1.0
 10
1.634249315694678
 20
0.5568391240385093
 30
0.0
 41
1.0
 10
1.63821127875956
 20
0.5541851717674585
 30
0.0
 41
1.0
 10
1.642293911384331
 20
0.5519618499710346
 30
0.0
 41
1.0
 10
1.646502626616211
 20
0.5503993127969422
 30
0.0
 41
1.0
 10
1.650819194685679
 20
0.549696610829095
 30
0.0
 41
1.0
 10
1.655189612983421
 20
0.5499852278980707
 30
0.0
 41
1.0
 10
1.65951748522699
 20
0.5513038431941153
 30
0.0
 41
1.0
 10
1.663683500808382
 20
0.5536290823508204
 30
0.0
 41
1.0
 10
1.667561449915441
 20
0.5568969854225494
 30
0.0
 41
1.0
 10
1.671034498181619
 20
0.5610254299689296
 30
0.0
 41
1.0
 10
1.674014164119773
 20
0.5659364885142172
 30
0.0
 41
1.0
 10
1.676451099131428
 20
0.5715718988630711
 30
0.0
 41
1.0
 10
1.678321710848788
 20
0.5778892304995838
 30
0.0
 41
1.0
 10
1.679360481111761
 20
0.5834668337580761
 30
0.0
 41
1.0
 10
1.679883328168226
 20
0.5879381177282414
 30
0.0
 41
1.0
 10
1.680118481500381
 20
0.5910464925961457
 30
0.0
 41
1.0
 10
1.680207704971514
 20
0.5926325595861637
 30
0.0
 41
1.0
  0
LINE
  5
83
330
70
100
AcDbEntity
  8
会話 v1_Sketch1
100
AcDbLine
 10
1.531541876425408
 20
1.564697539870212
 30
0.0
 11
1.555420754551129
 21
1.171398370740685
 31
0.0
  0
SPLINE
  5
84
330
70
100
AcDbEntity
  8
会話 v1_Sketch1
100
AcDbSpline
210
0.0
220
0.0
230
1.0
 70
    28
 71
     5
 72
    12
 73
     6
 74
     0
 42
0.000000001
 43
0.0000000001
 40
0.0
 40
0.0
 40
0.0
 40
0.0
 40
0.0
 40
0.0
 40
0.0000014554965661
 40
0.0000014554965661
 40
0.0000014554965661
 40
0.0000014554965661
 40
0.0000014554965661
 40
0.0000014554965661
 10
1.618207863785612
 20
0.5684335925004837
 30
0.0
 41
1.0
 10
1.61820786132179
 20
0.5684336006195143
 30
0.0
 41
1.0
 10
1.618207858857968
 20
0.5684336087385447
 30
0.0
 41
1.0
 10
1.618207856394146
 20
0.5684336168575753
 30
0.0
 41
1.0
 10
1.618207853930324
 20
0.5684336249766058
 30
0.0
 41
1.0
 10
1.618207851466502
 20
0.5684336330956363
 30
0.0
 41
1.0
  0
SPLINE
  5
85
330
70
100
AcDbEntity
  8
会話 v1_Sketch1
100
AcDbSpline
210
0.0
220
0.0
230
1.0
 70
    12
 71
     5
 72
    26
 73
    20
 74
     0
 42
0.000000001
 43
0.0000000001
 40
0.0
 40
0.0
 40
0.0
 40
0.0
 40
0.0
 40
0.0
 40
0.0666666666666667
 40
0.1333333333333333
 40
0.2
 40
0.2666666666666666
 40
0.3333333333333333
 40
0.4
 40
0.4666666666666666
 40
0.5333333333333333
 40
0.6
 40
0.6666666666666666
 40
0.7333333333333333
 40
0.8
 40
0.8666666666666666
 40
0.9333333333333332
 40
1.0
 40
1.0
 40
1.0
 40
1.0
 40
1.0
 40
1.0
 10
1.80000002682209
 20
0.6000000089406968
 30
0.0
 41
1.0
 10
1.799077660538699
 20
0.6227053629826245
 30
0.0
 41
1.0
 10
1.797096393161906
 20
0.6677099368289098
 30
0.0
 41
1.0
 10
1.793714888747199
 20
0.7339984008343033
 30
0.0
 41
1.0
 10
1.788381045767423
 20
0.8199284640103988
 30
0.0
 41
1.0
 10
1.780297182160762
 20
0.9231087617786476
 30
0.0
 41
1.0
 10
1.770735700248313
 20
1.021818585494116
 30
0.0
 41
1.0
 10
1.759624791309067
 20
1.115730806295097
 30
0.0
 41
1.0
 10
1.746895811599531
 20
1.204447941069547
 30
0.0
 41
1.0
 10
1.732497700119892
 20
1.287527515447281
 30
0.0
 41
1.0
 10
1.716424176263569
 20
1.364528236273207
 30
0.0
 41
1.0
 10
1.698711079171892
 20
1.435032143572649
 30
0.0
 41
1.0
 10
1.679414721735301
 20
1.498652799008437
 30
0.0
 41
1.0
 10
1.65860214934197
 20
1.555074556958811
 30
0.0
 41
1.0
 10
1.636341867721328
 20
1.604092114836056
 30
0.0
 41
1.0
 10
1.612701489213053
 20
1.645709282942491
 30
0.0
 41
1.0
 10
1.592731393965355
 20
1.673197212742035
 30
0.0
 41
1.0
 10
1.577176184212148
 20
1.690616134549926
 30
0.0
 41
1.0
 10
1.566551182984929
 20
1.700818302899052
 30
0.0
 41
1.0
 10
1.561174966199113
 20
1.705566763954416
 30
0.0
 41
1.0
  0
SPLINE
  5
86
330
70
100
AcDbEntity
  8
会話 v1_Sketch1
100
AcDbSpline
210
0.0
220
0.0
230
1.0
 70
    12
 71
     5
 72
    26
 73
    20
 74
     0
 42
0.000000001
 43
0.0000000001
 40
0.0
 40
0.0
 40
0.0
 40
0.0
 40
0.0
 40
0.0
 40
0.0666666666666667
 40
0.1333333333333333
 40
0.2
 40
0.2666666666666666
 40
0.3333333333333333
 40
0.4
 40
0.4666666666666666
 40
0.5333333333333333
 40
0.6
 40
0.6666666666666666
 40
0.7333333333333333
 40
0.8
 40
0.8666666666666666
 40
0.9333333333333332
 40
1.0
 40
1.0
 40
1.0
 40
1.0
 40
1.0
 40
1.0
 10
4.020846901132034
 20
1.9772488402343
 30
0.0
 41
1.0
 10
4.034204297981187
 20
1.975286643483155
 30
0.0
 41
1.0
 10
4.060708627611343
 20
1.968816364155942
 30
0.0
 41
1.0
 10
4.099833725535871
 20
1.951473458927918
 30
0.0
 41
1.0
 10
4.150728593104299
 20
1.912962069549876
 30
0.0
 41
1.0
 10
4.212101440851873
 20
1.838856644773713
 30
0.0
 41
1.0
 10
4.270947389146621
 20
1.73897957541903
 30
0.0
 41
1.0
 10
4.326776104283842
 20
1.614728451460383
 30
0.0
 41
1.0
 10
4.378844558242306
 20
1.469350950016667
 30
0.0
 41
1.0
 10
4.426094248825258
 20
1.309016572812593
 30
0.0
 41
1.0
 10
4.467200606063292
 20
1.142325496533011
 30
0.0
 41
1.0
 10
4.500670689925702
 20
0.9792437894470607
 30
0.0
 41
1.0
 10
4.524942021040069
 20
0.8302824193051447
 30
0.0
 41
1.0
 10
4.538496213669385
 20
0.705630706416628
 30
0.0
 41
1.0
 10
4.540013508525976
 20
0.6141886182344424
 30
0.0
 41
1.0
 10
4.528513003085059
 20
0.5627243808003657
 30
0.0
 41
1.0
 10
4.5086179327566
 20
0.5560172065859579
 30
0.0
 41
1.0
 10
4.487731668435187
 20
0.5704779570296635
 30
0.0
 41
1.0
 10
4.471174255951266
 20
0.5887251300929048
 30
0.0
 41
1.0
 10
4.462237314678302
 20
0.6000000089406968
 30
0.0
 41
1.0
  0
SPLINE
  5
87
330
70
100
AcDbEntity
  8
会話 v1_Sketch1
100
AcDbSpline
210
0.0
220
0.0
230
1.0
 70
    12
 71
     5
 72
    26
 73
    20
 74
     0
 42
0.000000001
 43
0.0000000001
 40
0.0
 40
0.0
 40
0.0
 40
0.0
 40
0.0
 40
0.0
 40
0.0666666666666667
 40
0.1333333333333333
 40
0.2
 40
0.2666666666666666
 40
0.3333333333333333
 40
0.4
 40
0.4666666666666666
 40
0.5333333333333333
 40
0.6
 40
0.6666666666666666
 40
0.7333333333333333
 40
0.8
 40
0.8666666666666666
 40
0.9333333333333332
 40
1.0
 40
1.0
 40
1.0
 40
1.0
 40
1.0
 40
1.0
 10
3.972828889608461
 20
1.568982437086303
 30
0.0
 41
1.0
 10
3.978158300275497
 20
1.558950473836548
 30
0.0
 41
1.0
 10
3.98883279951783
 20
1.537971659682653
 30
0.0
 41
1.0
 10
4.004891575070462
 20
1.503758823885915
 30
0.0
 41
1.0
 10
4.026398077838464
 20
1.452612148590123
 30
0.0
 41
1.0
 10
4.053388336901918
 20
1.379377498888329
 30
0.0
 41
1.0
 10
4.080325834569032
 20
1.297003443146346
 30
0.0
 41
1.0
 10
4.106879606720505
 20
1.206174345262526
 30
0.0
 41
1.0
 10
4.132489083262462
 20
1.10837295950933
 30
0.0
 41
1.0
 10
4.156284979407395
 20
1.006272170798946
 30
0.0
 41
1.0
 10
4.1770550444662
 20
0.903939558764765
 30
0.0
 41
1.0
 10
4.1933917173435
 20
0.8062201515325801
 30
0.0
 41
1.0
 10
4.203813169021917
 20
0.7182741552393557
 30
0.0
 41
1.0
 10
4.206907867570024
 20
0.6450486166802853
 30
0.0
 41
1.0
 10
4.201483737277023
 20
0.5907633743643757
 30
0.0
 41
1.0
 10
4.186758153596032
 20
0.5582866353307742
 30
0.0
 41
1.0
 10
4.167377562473912
 20
0.5505172170339553
 30
0.0
 41
1.0
 10
4.148600425903395
 20
0.5549260063408856
 30
0.0
 41
1.0
 10
4.134211001705109
 20
0.562380877140229
 30
0.0
 41
1.0
 10
4.126548441509378
 20
0.5672372753381043
 30
0.0
 41
1.0
  0
SPLINE
  5
88
330
70
100
AcDbEntity
  8
会話 v1_Sketch1
100
AcDbSpline
210
0.0
220
0.0
230
1.0
 70
    12
 71
     5
 72
    21
 73
    15
 74
     0
 42
0.000000001
 43
0.0000000001
 40
0.0
 40
0.0
 40
0.0
 40
0.0
 40
0.0
 40
0.0
 40
0.1
 40
0.2
 40
0.3
 40
0.4
 40
0.5
 40
0.6
 40
0.7
 40
0.8
 40
0.9
 40
1.0
 40
1.0
 40
1.0
 40
1.0
 40
1.0
 40
1.0
 10
1.114125533546776
 20
1.368047955305448
 30
0.0
 41
1.0
 10
1.113432555670599
 20
1.369897860503282
 30
0.0
 41
1.0
 10
1.111995129401056
 20
1.373491953584847
 30
0.0
 41
1.0
 10
1.109684583242232
 20
1.378565951117762
 30
0.0
 41
1.0
 10
1.106289919485365
 20
1.384686476632044
 30
0.0
 41
1.0
 10
1.101487842390153
 20
1.391189500326494
 30
0.0
 41
1.0
 10
1.096077038921032
 20
1.396442237046498
 30
0.0
 41
1.0
 10
1.090007762986493
 20
1.400342511344074
 30
0.0
 41
1.0
 10
1.08325273088734
 20
1.402834284159709
 30
0.0
 41
1.0
 10
1.075838916058258
 20
1.403972957288969
 30
0.0
 41
1.0
 10
1.06781595962532
 20
1.403860490587696
 30
0.0
 41
1.0
 10
1.06095022657348
 20
1.402851650739962
 30
0.0
 41
1.0
 10
1.055565270650377
 20
1.401610997477721
 30
0.0
 41
1.0
 10
1.051872272433512
 20
1.400572282871537
 30
0.0
 41
1.0
 10
1.050000015646219
 20
1.400000020861625
 30
0.0
 41
1.0
  0
CIRCLE
  5
89
330
70
100
AcDbEntity
  8
会話 v1_Sketch1
100
AcDbCircle
 10
1.244179601427416
 20
2.320836400779612
 30
0.0
 40
0.6921291695093843
  0
SPLINE
  5
8A
330
70
100
AcDbEntity
  8
会話 v1_Sketch1
100
AcDbSpline
210
0.0
220
0.0
230
1.0
 70
    12
 71
     5
 72
    36
 73
    30
 74
     0
 42
0.000000001
 43
0.0000000001
 40
0.0
 40
0.0
 40
0.0
 40
0.0
 40
0.0
 40
0.0
 40
0.04
 40
0.08
 40
0.12
 40
0.16
 40
0.2
 40
0.24
 40
0.28
 40
0.32
 40
0.36
 40
0.4
 40
0.44
 40
0.4799999999999999
 40
0.52
 40
0.56
 40
0.6
 40
0.6400000000000001
 40
0.6800000000000001
 40
0.7200000000000001
 40
0.7600000000000002
 40
0.8000000000000001
 40
0.8400000000000002
 40
0.8800000000000002
 40
0.9200000000000002
 40
0.9600000000000003
 40
1.0
 40
1.0
 40
1.0
 40
1.0
 40
1.0
 40
1.0
 10
4.126548441509378
 20
0.5672372753381043
 30
0.0
 41
1.0
 10
4.125916891983493
 20
0.5767990805440456
 30
0.0
 41
1.0
 10
4.124585973565214
 20
0.596261157483364
 30
0.0
 41
1.0
 10
4.122386140856343
 20
0.6264696764172846
 30
0.0
 41
1.0
 10
4.119045033113652
 20
0.6687837733822536
 30
0.0
 41
1.0
 10
4.114167193708937
 20
0.7250604933036165
 30
0.0
 41
1.0
 10
4.10853375805946
 20
0.7846381930379584
 30
0.0
 41
1.0
 10
4.102045264025907
 20
0.8473092837282113
 30
0.0
 41
1.0
 10
4.094541234201498
 20
0.9126840872680993
 30
0.0
 41
1.0
 10
4.085791087781998
 20
0.9801421214161534
 30
0.0
 41
1.0
 10
4.075468434857604
 20
1.048753471202938
 30
0.0
 41
1.0
 10
4.063178312688742
 20
1.117285784154372
 30
0.0
 41
1.0
 10
4.048576157148861
 20
1.184362519066762
 30
0.0
 41
1.0
 10
4.031468839573157
 20
1.248586796632559
 30
0.0
 41
1.0
 10
4.011921616479212
 20
1.308676051087467
 30
0.0
 41
1.0
 10
3.990374474877285
 20
1.363600618236437
 30
0.0
 41
1.0
 10
3.967740037134729
 20
1.412709289505523
 30
0.0
 41
1.0
 10
3.945561522459715
 20
1.455903389334842
 30
0.0
 41
1.0
 10
3.926011423517455
 20
1.49368560668599
 30
0.0
 41
1.0
 10
3.911333248572245
 20
1.526759594016739
 30
0.0
 41
1.0
 10
3.903331787263399
 20
1.555678189718643
 30
0.0
 41
1.0
 10
3.90292073101735
 20
1.580528469073864
 30
0.0
 41
1.0
 10
3.909438911118499
 20
1.600468575689243
 30
0.0
 41
1.0
 10
3.920757001897975
 20
1.613793304428721
 30
0.0
 41
1.0
 10
3.934324427142541
 20
1.618624555988095
 30
0.0
 41
1.0
 10
3.94809390802186
 20
1.613532227682102
 30
0.0
 41
1.0
 10
3.958520574491835
 20
1.601045274677022
 30
0.0
 41
1.0
 10
3.965859989027128
 20
1.586876296321134
 30
0.0
 41
1.0
 10
3.970541254599745
 20
1.575301839663817
 30
0.0
 41
1.0
 10
3.972828889608461
 20
1.568982437086303
 30
0.0
 41
1.0
  0
SPLINE
  5
8B
330
70
100
AcDbEntity
  8
会話 v1_Sketch1
100
AcDbSpline
210
0.0
220
0.0
230
1.0
 70
    28
 71
     5
 72
    16
 73
    10
 74
     0
 42
0.000000001
 43
0.0000000001
 40
0.0
 40
0.0
 40
0.0
 40
0.0
 40
0.0
 40
0.0
 40
0.2
 40
0.4
 40
0.6000000000000001
 40
0.8
 40
1.0
 40
1.0
 40
1.0
 40
1.0
 40
1.0
 40
1.0
 10
3.383506778427599
 20
1.568982437086303
 30
0.0
 41
1.0
 10
3.383506778427372
 20
1.528912630616144
 30
0.0
 41
1.0
 10
3.38350677842699
 20
1.448773017675885
 30
0.0
 41
1.0
 10
3.38350677842664
 20
1.32856359826569
 30
0.0
 41
1.0
 10
3.383506778426555
 20
1.168284372385768
 30
0.0
 41
1.0
 10
3.383506778426831
 20
0.9679353400362691
 30
0.0
 41
1.0
 10
3.383506778427158
 20
0.8076561141568905
 30
0.0
 41
1.0
 10
3.383506778427392
 20
0.6874466947474591
 30
0.0
 41
1.0
 10
3.383506778427532
 20
0.607307081807882
 30
0.0
 41
1.0
 10
3.383506778427599
 20
0.5672372753381043
 30
0.0
 41
1.0
  0
SPLINE
  5
8C
330
70
100
AcDbEntity
  8
会話 v1_Sketch1
100
AcDbSpline
210
0.0
220
0.0
230
1.0
 70
    12
 71
     5
 72
    26
 73
    20
 74
     0
 42
0.000000001
 43
0.0000000001
 40
0.0
 40
0.0
 40
0.0
 40
0.0
 40
0.0
 40
0.0
 40
0.0666666666666667
 40
0.1333333333333333
 40
0.2
 40
0.2666666666666666
 40
0.3333333333333333
 40
0.4
 40
0.4666666666666666
 40
0.5333333333333333
 40
0.6
 40
0.6666666666666666
 40
0.7333333333333333
 40
0.8
 40
0.8666666666666666
 40
0.9333333333333332
 40
1.0
 40
1.0
 40
1.0
 40
1.0
 40
1.0
 40
1.0
 10
0.6000000089406968
 20
0.6000000089406968
 30
0.0
 41
1.0
 10
0.600224821181779
 20
0.6153104226599261
 30
0.0
 41
1.0
 10
0.6009060963823128
 20
0.6462044982786044
 30
0.0
 41
1.0
 10
0.6026229547846333
 20
0.6933653262875714
 30
0.0
 41
1.0
 10
0.6063121494284874
 20
0.7578980422699014
 30
0.0
 41
1.0
 10
0.6133313018667146
 20
0.8413050390774323
 30
0.0
 41
1.0
 10
0.6228751976990209
 20
0.9272952569566438
 30
0.0
 41
1.0
 10
0.6350915867186373
 20
1.015438575056948
 30
0.0
 41
1.0
 10
0.6501435460793387
 20
1.104920622126618
 30
0.0
 41
1.0
 10
0.6681818136688574
 20
1.194352067653577
 30
0.0
 41
1.0
 10
0.6893426369943155
 20
1.281908184738383
 30
0.0
 41
1.0
 10
0.7137511675545771
 20
1.365582403819821
 30
0.0
 41
1.0
 10
0.7415108803944511
 20
1.443410982969963
 30
0.0
 41
1.0
 10
0.7726907631813848
 20
1.513696990903771
 30
0.0
 41
1.0
 10
0.8072917609824179
 20
1.575315936293647
 30
0.0
 41
1.0
 10
0.8452381166363652
 20
1.627838929567682
 30
0.0
 41
1.0
 10
0.8781956534903997
 20
1.662535747101481
 30
0.0
 41
1.0
 10
0.9043403319303521
 20
1.684495779056316
 30
0.0
 41
1.0
 10
0.9223995771573266
 20
1.697343034151314
 30
0.0
 41
1.0
 10
0.9315865633072235
 20
1.703318482169522
 30
0.0
 41
1.0
  0
SPLINE
  5
8D
330
70
100
AcDbEntity
  8
会話 v1_Sketch1
100
AcDbSpline
210
0.0
220
0.0
230
1.0
 70
    12
 71
     5
 72
    21
 73
    15
 74
     0
 42
0.000000001
 43
0.0000000001
 40
0.0
 40
0.0
 40
0.0
 40
0.0
 40
0.0
 40
0.0
 40
0.1
 40
0.2
 40
0.3
 40
0.4
 40
0.5
 40
0.6
 40
0.7
 40
0.8
 40
0.9
 40
1.0
 40
1.0
 40
1.0
 40
1.0
 40
1.0
 40
1.0
 10
3.383506778427599
 20
0.5672372753381043
 30
0.0
 41
1.0
 10
3.382004975517386
 20
0.5656230430138864
 30
0.0
 41
1.0
 10
3.379029357844803
 20
0.5625661229756889
 30
0.0
 41
1.0
 10
3.374649893780494
 20
0.5584953644970283
 30
0.0
 41
1.0
 10
3.368981313204169
 20
0.5541139685404809
 30
0.0
 41
1.0
 10
3.362199306773322
 20
0.550498776116168
 30
0.0
 41
1.0
 10
3.355747779845785
 20
0.5489091545863815
 30
0.0
 41
1.0
 10
3.349653105245892
 20
0.5495067479419971
 30
0.0
 41
1.0
 10
3.343928582841962
 20
0.5523730735734823
 30
0.0
 41
1.0
 10
3.338558269077581
 20
0.5574104104335138
 30
0.0
 41
1.0
 10
3.333514896033758
 20
0.5644516283316558
 30
0.0
 41
1.0
 10
3.329720019917025
 20
0.5715545186523325
 30
0.0
 41
1.0
 10
3.327000148824965
 20
0.5776557169632742
 30
0.0
 41
1.0
 10
3.325242111379755
 20
0.5820615746474522
 30
0.0
 41
1.0
 10
3.32437689565635
 20
0.5843491046625095
 30
0.0
 41
1.0
  0
SPLINE
  5
8E
330
70
100
AcDbEntity
  8
会話 v1_Sketch1
100
AcDbSpline
210
0.0
220
0.0
230
1.0
 70
    12
 71
     5
 72
    26
 73
    20
 74
     0
 42
0.000000001
 43
0.0000000001
 40
0.0
 40
0.0
 40
0.0
 40
0.0
 40
0.0
 40
0.0
 40
0.0666666666666667
 40
0.1333333333333333
 40
0.2
 40
0.2666666666666666
 40
0.3333333333333333
 40
0.4
 40
0.4666666666666666
 40
0.5333333333333333
 40
0.6
 40
0.6666666666666666
 40
0.7333333333333333
 40
0.8
 40
0.8666666666666666
 40
0.9333333333333332
 40
1.0
 40
1.0
 40
1.0
 40
1.0
 40
1.0
 40
1.0
 10
4.462237314678302
 20
0.6000000089406968
 30
0.0
 41
1.0
 10
4.462566598075515
 20
0.6280867481180675
 30
0.0
 41
1.0
 10
4.462616621554412
 20
0.6837024324780891
 30
0.0
 41
1.0
 10
4.460866025742094
 20
0.7654525843975087
 30
0.0
 41
1.0
 10
4.454854102833735
 20
0.8710816494480015
 30
0.0
 41
1.0
 10
4.441075082509468
 20
0.9973131279793019
 30
0.0
 41
1.0
 10
4.420910347009911
 20
1.117436463380562
 30
0.0
 41
1.0
 10
4.394342351530194
 20
1.231050330013977
 30
0.0
 41
1.0
 10
4.361579380012876
 20
1.337690265494724
 30
0.0
 41
1.0
 10
4.323168721010961
 20
1.436871466656734
 30
0.0
 41
1.0
 10
4.28020576711267
 20
1.528165694939373
 30
0.0
 41
1.0
 10
4.234200158596573
 20
1.611208872772275
 30
0.0
 41
1.0
 10
4.186812709437025
 20
1.685688707419615
 30
0.0
 41
1.0
 10
4.139640767921055
 20
1.751372621656568
 30
0.0
 41
1.0
 10
4.094013092251201
 20
1.808138122227395
 30
0.0
 41
1.0
 10
4.050716410988434
 20
1.856068123412815
 30
0.0
 41
1.0
 10
4.018202039348007
 20
1.88750942945052
 30
0.0
 41
1.0
 10
3.995042360989963
 20
1.907295047556256
 30
0.0
 41
1.0
 10
3.980143254557821
 20
1.918811012117018
 30
0.0
 41
1.0
 10
3.972828889608461
 20
1.924150370550581
 30
0.0
 41
1.0
  0
SPLINE
  5
8F
330
70
100
AcDbEntity
  8
会話 v1_Sketch1
100
AcDbSpline
210
0.0
220
0.0
230
1.0
 70
    12
 71
     5
 72
    26
 73
    20
 74
     0
 42
0.000000001
 43
0.0000000001
 40
0.0
 40
0.0
 40
0.0
 40
0.0
 40
0.0
 40
0.0
 40
0.0666666666666667
 40
0.1333333333333333
 40
0.2
 40
0.2666666666666666
 40
0.3333333333333333
 40
0.4
 40
0.4666666666666666
 40
0.5333333333333333
 40
0.6
 40
0.6666666666666666
 40
0.7333333333333333
 40
0.8
 40
0.8666666666666666
 40
0.9333333333333332
 40
1.0
 40
1.0
 40
1.0
 40
1.0
 40
1.0
 40
1.0
 10
0.9935966102303208
 20
0.5793587187966687
 30
0.0
 41
1.0
 10
0.9931295220377052
 20
0.5884646740750768
 30
0.0
 41
1.0
 10
0.9923587333021069
 20
0.6066208794517051
 30
0.0
 41
1.0
 10
0.9916927221172542
 20
0.6336880442244545
 30
0.0
 41
1.0
 10
0.9917920998861763
 20
0.6694411180674863
 30
0.0
 41
1.0
 10
0.9935957239406679
 20
0.7136064623348623
 30
0.0
 41
1.0
 10
0.9971028813841128
 20
0.7573814881431759
 30
0.0
 41
1.0
 10
1.002303568522744
 20
0.8010533123485576
 30
0.0
 41
1.0
 10
1.009111143607914
 20
0.8451466100587591
 30
0.0
 41
1.0
 10
1.01736070631854
 20
0.8904032541791934
 30
0.0
 41
1.0
 10
1.026851613146072
 20
0.9376490814163677
 30
0.0
 41
1.0
 10
1.037372996200323
 20
0.9876854107373823
 30
0.0
 41
1.0
 10
1.048729942201739
 20
1.041175728429186
 30
0.0
 41
1.0
 10
1.060768908067668
 20
1.098493587806388
 30
0.0
 41
1.0
 10
1.073378613697463
 20
1.159775939619972
 30
0.0
 41
1.0
 10
1.086483259376445
 20
1.225022036579304
 30
0.0
 41
1.0
 10
1.097326623249943
 20
1.280331687681903
 30
0.0
 41
1.0
 10
1.105651726012286
 20
1.323528061322819
 30
0.0
 41
1.0
 10
1.111286768694013
 20
1.353081939633948
 30
0.0
 41
1.0
 10
1.114125533546776
 20
1.368047955305448
 30
0.0
 41
1.0
  0
SPLINE
  5
90
330
70
100
AcDbEntity
  8
会話 v1_Sketch1
100
AcDbSpline
210
0.0
220
0.0
230
1.0
 70
    12
 71
     5
 72
    31
 73
    25
 74
     0
 42
0.000000001
 43
0.0000000001
 40
0.0
 40
0.0
 40
0.0
 40
0.0
 40
0.0
 40
0.0
 40
0.05
 40
0.1
 40
0.15
 40
0.2
 40
0.25
 40
0.3
 40
0.35
 40
0.4
 40
0.45
 40
0.5
 40
0.55
 40
0.6
 40
0.65
 40
0.7000000000000001
 40
0.7500000000000001
 40
0.8000000000000001
 40
0.8500000000000001
 40
0.9000000000000001
 40
0.9500000000000003
 40
1.0
 40
1.0
 40
1.0
 40
1.0
 40
1.0
 40
1.0
 10
0.8632464707768845
 20
1.742967265716547
 30
0.0
 41
1.0
 10
0.8592128102587343
 20
1.740215604530311
 30
0.0
 41
1.0
 10
0.8509563879962499
 20
1.734165948174826
 30
0.0
 41
1.0
 10
0.8380044900428496
 20
1.723452317871942
 30
0.0
 41
1.0
 10
0.8195957927793058
 20
1.705877064732969
 30
0.0
 41
1.0
 10
0.7947184473611414
 20
1.678176162270637
 30
0.0
 41
1.0
 10
0.7681149062986333
 20
1.644159514759968
 30
0.0
 41
1.0
 10
0.7401167491736283
 20
1.602717553370844
 30
0.0
 41
1.0
 10
0.7112782149388501
 20
1.552241231457442
 30
0.0
 41
1.0
 10
0.6822993012936292
 20
1.491088899396903
 30
0.0
 41
1.0
 10
0.6539758301859838
 20
1.417955952542567
 30
0.0
 41
1.0
 10
0.6271393764900563
 20
1.332320135755929
 30
0.0
 41
1.0
 10
0.6026056424278894
 20
1.234828790261265
 30
0.0
 41
1.0
 10
0.5811089282939017
 20
1.127864357346209
 30
0.0
 41
1.0
 10
0.5632700669318193
 20
1.015652253822767
 30
0.0
 41
1.0
 10
0.5496194340195028
 20
0.9035894665502375
 30
0.0
 41
1.0
 10
0.5406026634471424
 20
0.7977782255599428
 30
0.0
 41
1.0
 10
0.5365872443509852
 20
0.7044896969266042
 30
0.0
 41
1.0
 10
0.5378627558419752
 20
0.6296657170909376
 30
0.0
 41
1.0
 10
0.5446360402409586
 20
0.5783720585540939
 30
0.0
 41
1.0
 10
0.5570236393765335
 20
0.5542819108875201
 30
0.0
 41
1.0
 10
0.5714300207425005
 20
0.5580502934551271
 30
0.0
 41
1.0
 10
0.5847433850431533
 20
0.5739579209254994
 30
0.0
 41
1.0
 10
0.5947293967123767
 20
0.5903541544123855
 30
0.0
 41
1.0
 10
0.6000000089406968
 20
0.6000000089406968
 30
0.0
 41
1.0
  0
SPLINE
  5
91
330
70
100
AcDbEntity
  8
会話 v1_Sketch1
100
AcDbSpline
210
0.0
220
0.0
230
1.0
 70
    12
 71
     5
 72
    36
 73
    30
 74
     0
 42
0.000000001
 43
0.0000000001
 40
0.0
 40
0.0
 40
0.0
 40
0.0
 40
0.0
 40
0.0
 40
0.04
 40
0.08
 40
0.12
 40
0.16
 40
0.2
 40
0.24
 40
0.28
 40
0.32
 40
0.36
 40
0.4
 40
0.44
 40
0.4799999999999999
 40
0.52
 40
0.56
 40
0.6
 40
0.6400000000000001
 40
0.6800000000000001
 40
0.7200000000000001
 40
0.7600000000000002
 40
0.8000000000000001
 40
0.8400000000000002
 40
0.8800000000000002
 40
0.9200000000000002
 40
0.9600000000000003
 40
1.0
 40
1.0
 40
1.0
 40
1.0
 40
1.0
 40
1.0
 10
1.050000015646219
 20
1.400000020861625
 30
0.0
 41
1.0
 10
1.048481082508881
 20
1.396125528960111
 30
0.0
 41
1.0
 10
1.045463578264204
 20
1.388155332684276
 30
0.0
 41
1.0
 10
1.040998407058855
 20
1.375536369287958
 30
0.0
 41
1.0
 10
1.035167342566193
 20
1.357380556464655
 30
0.0
 41
1.0
 10
1.028083380129118
 20
1.332503997951297
 30
0.0
 41
1.0
 10
1.021203291122298
 20
1.305593817465581
 30
0.0
 41
1.0
 10
1.014522293695537
 20
1.276965715247959
 30
0.0
 41
1.0
 10
1.00803066694998
 20
1.247197161408546
 30
0.0
 41
1.0
 10
1.001704489204336
 20
1.216947676940095
 30
0.0
 41
1.0
 10
0.9954939452931277
 20
1.186716165869726
 30
0.0
 41
1.0
 10
0.9893131684919151
 20
1.156628462716691
 30
0.0
 41
1.0
 10
0.9830266964893908
 20
1.126187542858366
 30
0.0
 41
1.0
 10
0.9764436325091981
 20
1.094095657087019
 30
0.0
 41
1.0
 10
0.9693822688460324
 20
1.058703924043763
 30
0.0
 41
1.0
 10
0.9617266469418462
 20
1.018392775262273
 30
0.0
 41
1.0
 10
0.9534906682106633
 20
0.972000105962684
 30
0.0
 41
1.0
 10
0.944871915464647
 20
0.9191871172361624
 30
0.0
 41
1.0
 10
0.9363334410282188
 20
0.8609608377489553
 30
0.0
 41
1.0
 10
0.9285785664194039
 20
0.7995999032178151
 30
0.0
 41
1.0
 10
0.9224564571353496
 20
0.7381952349979129
 30
0.0
 41
1.0
 10
0.9188889114790512
 20
0.6803127762359055
 30
0.0
 41
1.0
 10
0.9187907611106039
 20
0.629620724111749
 30
0.0
 41
1.0
 10
0.9229876230191804
 20
0.5895143938328144
 30
0.0
 41
1.0
 10
0.9321432181362197
 20
0.5627816257357094
 30
0.0
 41
1.0
 10
0.9466524973463855
 20
0.551129877828797
 30
0.0
 41
1.0
 10
0.9626660186645889
 20
0.5544461152175505
 30
0.0
 41
1.0
 10
0.9771657880406984
 20
0.5641167218992188
 30
0.0
 41
1.0
 10
0.9879357541407081
 20
0.5737474215678727
 30
0.0
 41
1.0
 10
0.9935966102303208
 20
0.5793587187966687
 30
0.0
 41
1.0
  0
SPLINE
  5
92
330
70
100
AcDbEntity
  8
会話 v1_Sketch1
100
AcDbSpline
210
0.0
220
0.0
230
1.0
 70
    28
 71
     5
 72
    16
 73
    10
 74
     0
 42
0.000000001
 43
0.0000000001
 40
0.0
 40
0.0
 40
0.0
 40
0.0
 40
0.0
 40
0.0
 40
0.2
 40
0.4
 40
0.6000000000000001
 40
0.8
 40
1.0
 40
1.0
 40
1.0
 40
1.0
 40
1.0
 40
1.0
 10
1.621474444454548
 20
0.5662399756595646
 30
0.0
 41
1.0
 10
1.620998668687222
 20
0.5675127854074626
 30
0.0
 41
1.0
 10
1.620047117152587
 20
0.570058404903277
 30
0.0
 41
1.0
 10
1.618619789850688
 20
0.5738768341470572
 30
0.0
 41
1.0
 10
1.616716686781579
 20
0.5789680731388662
 30
0.0
 41
1.0
 10
1.614337807945276
 20
0.5853321218787441
 30
0.0
 41
1.0
 10
1.612434704876242
 20
0.5904233608707
 30
0.0
 41
1.0
 10
1.611007377574449
 20
0.5942417901146856
 30
0.0
 41
1.0
 10
1.610055826039907
 20
0.5967874096106822
 30
0.0
 41
1.0
 10
1.609580050272633
 20
0.5980602193586822
 30
0.0
 41
1.0
  0
SPLINE
  5
93
330
70
100
AcDbEntity
  8
会話 v1_Sketch1
100
AcDbSpline
210
0.0
220
0.0
230
1.0
 70
    12
 71
     5
 72
    26
 73
    20
 74
     0
 42
0.000000001
 43
0.0000000001
 40
0.0
 40
0.0
 40
0.0
 40
0.0
 40
0.0
 40
0.0
 40
0.0666666666666667
 40
0.1333333333333333
 40
0.2
 40
0.2666666666666666
 40
0.3333333333333333
 40
0.4
 40
0.4666666666666666
 40
0.5333333333333333
 40
0.6
 40
0.6666666666666666
 40
0.7333333333333333
 40
0.8
 40
0.8666666666666666
 40
0.9333333333333332
 40
1.0
 40
1.0
 40
1.0
 40
1.0
 40
1.0
 40
1.0
 10
1.604825911352691
 20
1.730093625603281
 30
0.0
 41
1.0
 10
1.611342074383796
 20
1.73182223123506
 30
0.0
 41
1.0
 10
1.624316316162875
 20
1.732695289430591
 30
0.0
 41
1.0
 10
1.643603444970993
 20
1.726252180510914
 30
0.0
 41
1.0
 10
1.668968455096584
 20
1.702045295722989
 30
0.0
 41
1.0
 10
1.700020089623239
 20
1.645500529920342
 30
0.0
 41
1.0
 10
1.730231616601847
 20
1.563132342272818
 30
0.0
 41
1.0
 10
1.759255502279529
 20
1.456777853359626
 30
0.0
 41
1.0
 10
1.786515217010099
 20
1.330705290573403
 30
0.0
 41
1.0
 10
1.811209154037343
 20
1.191627228865615
 30
0.0
 41
1.0
 10
1.832383586871688
 20
1.0477168691595
 30
0.0
 41
1.0
 10
1.848988996131424
 20
0.9079935050538413
 30
0.0
 41
1.0
 10
1.859952512274343
 20
0.7816039872071587
 30
0.0
 41
1.0
 10
1.864253954036935
 20
0.6771741274449097
 30
0.0
 41
1.0
 10
1.861027379524165
 20
0.6020358301115185
 30
0.0
 41
1.0
 10
1.849660681645753
 20
0.5615168055006075
 30
0.0
 41
1.0
 10
1.833911077432061
 20
0.5585153756014286
 30
0.0
 41
1.0
 10
1.818388429425868
 20
0.5728514531418895
 30
0.0
 41
1.0
 10
1.806402409968876
 20
0.589730342463262
 30
0.0
 41
1.0
 10
1.80000002682209
 20
0.6000000089406968
 30
0.0
 41
1.0
  0
SPLINE
  5
94
330
70
100
AcDbEntity
  8
会話 v1_Sketch1
100
AcDbSpline
210
0.0
220
0.0
230
1.0
 70
    12
 71
     5
 72
    31
 73
    25
 74
     0
 42
0.000000001
 43
0.0000000001
 40
0.0
 40
0.0
 40
0.0
 40
0.0
 40
0.0
 40
0.0
 40
0.05
 40
0.1
 40
0.15
 40
0.2
 40
0.25
 40
0.3
 40
0.35
 40
0.4
 40
0.45
 40
0.5
 40
0.55
 40
0.6
 40
0.65
 40
0.7000000000000001
 40
0.7500000000000001
 40
0.8000000000000001
 40
0.8500000000000001
 40
0.9000000000000001
 40
0.9500000000000003
 40
1.0
 40
1.0
 40
1.0
 40
1.0
 40
1.0
 40
1.0
 10
3.126173488101446
 20
1.35887764005519
 30
0.0
 41
1.0
 10
3.116298389148781
 20
1.369021005295015
 30
0.0
 41
1.0
 10
3.096594242852109
 20
1.389238310072187
 30
0.0
 41
1.0
 10
3.067176180294524
 20
1.419355997963732
 30
0.0
 41
1.0
 10
3.028229520091802
 20
1.459094611319862
 30
0.0
 41
1.0
 10
2.980017307939217
 20
1.508005997191861
 30
0.0
 41
1.0
 10
2.932290475332164
 20
1.555977012926152
 30
0.0
 41
1.0
 10
2.885069155571034
 20
1.60266458159335
 30
0.0
 41
1.0
 10
2.838376975574328
 20
1.64750132220572
 30
0.0
 41
1.0
 10
2.792243891277401
 20
1.689651816393103
 30
0.0
 41
1.0
 10
2.746695248099018
 20
1.727924334477179
 30
0.0
 41
1.0
 10
2.70178513379958
 20
1.760823003684159
 30
0.0
 41
1.0
 10
2.657696744536679
 20
1.786814705610073
 30
0.0
 41
1.0
 10
2.614829282910421
 20
1.804551088659118
 30
0.0
 41
1.0
 10
2.573889697939727
 20
1.813112570576745
 30
0.0
 41
1.0
 10
2.535992992400506
 20
1.812270232809797
 30
0.0
 41
1.0
 10
2.502743174615924
 20
1.802725054992942
 30
0.0
 41
1.0
 10
2.475929574628465
 20
1.7857092280084
 30
0.0
 41
1.0
 10
2.457252188688251
 20
1.762645572900578
 30
0.0
 41
1.0
 10
2.44801255865387
 20
1.734783644362329
 30
0.0
 41
1.0
 10
2.448853119551415
 20
1.702892704463448
 30
0.0
 41
1.0
 10
2.457767738696886
 20
1.674493508605594
 30
0.0
 41
1.0
 10
2.469083435080463
 20
1.651645619471781
 30
0.0
 41
1.0
 10
2.478676616581694
 20
1.635728364482476
 30
0.0
 41
1.0
 10
2.483985548192404
 20
1.627598399275264
 30
0.0
 41
1.0
  0
SPLINE
  5
95
330
70
100
AcDbEntity
  8
会話 v1_Sketch1
100
AcDbSpline
210
0.0
220
0.0
230
1.0
 70
    12
 71
     5
 72
    31
 73
    25
 74
     0
 42
0.000000001
 43
0.0000000001
 40
0.0
 40
0.0
 40
0.0
 40
0.0
 40
0.0
 40
0.0
 40
0.05
 40
0.1
 40
0.15
 40
0.2
 40
0.25
 40
0.3
 40
0.35
 40
0.4
 40
0.45
 40
0.5
 40
0.55
 40
0.6
 40
0.65
 40
0.7000000000000001
 40
0.7500000000000001
 40
0.8000000000000001
 40
0.8500000000000001
 40
0.9000000000000001
 40
0.9500000000000003
 40
1.0
 40
1.0
 40
1.0
 40
1.0
 40
1.0
 40
1.0
 10
2.483985548192404
 20
1.627598399275264
 30
0.0
 41
1.0
 10
2.475921888618724
 20
1.623836599153302
 30
0.0
 41
1.0
 10
2.459842602623291
 20
1.616139620551173
 30
0.0
 41
1.0
 10
2.435867740866167
 20
1.60407405049989
 30
0.0
 41
1.0
 10
2.404190844336647
 20
1.586941891121645
 30
0.0
 41
1.0
 10
2.36517834837617
 20
1.563724124398197
 30
0.0
 41
1.0
 10
2.32704662089779
 20
1.538557840948779
 30
0.0
 41
1.0
 10
2.290374741579577
 20
1.511193262465463
 30
0.0
 41
1.0
 10
2.25614636465778
 20
1.481223709407222
 30
0.0
 41
1.0
 10
2.225771874764467
 20
1.448135727417024
 30
0.0
 41
1.0
 10
2.200866775695083
 20
1.41159425992023
 30
0.0
 41
1.0
 10
2.183069926313021
 20
1.371705517108142
 30
0.0
 41
1.0
 10
2.173858015358734
 20
1.329258921132141
 30
0.0
 41
1.0
 10
2.174311427368586
 20
1.28609238646089
 30
0.0
 41
1.0
 10
2.185120809242505
 20
1.244842274547555
 30
0.0
 41
1.0
 10
2.206684494614457
 20
1.208430133049605
 30
0.0
 41
1.0
 10
2.239162248624242
 20
1.17967112624454
 30
0.0
 41
1.0
 10
2.282527578888433
 20
1.160755668654743
 30
0.0
 41
1.0
 10
2.336616792114724
 20
1.153010643713022
 30
0.0
 41
1.0
 10
2.401196782405325
 20
1.157174462975269
 30
0.0
 41
1.0
 10
2.476016791479659
 20
1.173542684848092
 30
0.0
 41
1.0
 10
2.543886961516296
 20
1.19642409055052
 30
0.0
 41
1.0
 10
2.599227082677552
 20
1.219048291073323
 30
0.0
 41
1.0
 10
2.638084689014035
 20
1.236549323246067
 30
0.0
 41
1.0
 10
2.65800454099933
 20
1.245904395291635
 30
0.0
 41
1.0
  0
SPLINE
  5
96
330
70
100
AcDbEntity
  8
会話 v1_Sketch1
100
AcDbSpline
210
0.0
220
0.0
230
1.0
 70
    12
 71
     5
 72
    26
 73
    20
 74
     0
 42
0.000000001
 43
0.0000000001
 40
0.0
 40
0.0
 40
0.0
 40
0.0
 40
0.0
 40
0.0
 40
0.0666666666666667
 40
0.1333333333333333
 40
0.2
 40
0.2666666666666666
 40
0.3333333333333333
 40
0.4
 40
0.4666666666666666
 40
0.5333333333333333
 40
0.6
 40
0.6666666666666666
 40
0.7333333333333333
 40
0.8
 40
0.8666666666666666
 40
0.9333333333333332
 40
1.0
 40
1.0
 40
1.0
 40
1.0
 40
1.0
 40
1.0
 10
2.65800454099933
 20
1.245904395291635
 30
0.0
 41
1.0
 10
2.659447386903666
 20
1.246085162842717
 30
0.0
 41
1.0
 10
2.663202781978778
 20
1.245087536168275
 30
0.0
 41
1.0
 10
2.671444892633665
 20
1.239513806315863
 30
0.0
 41
1.0
 10
2.687691146292674
 20
1.223866586601419
 30
0.0
 41
1.0
 10
2.716835993046463
 20
1.190659028480114
 30
0.0
 41
1.0
 10
2.754655059619788
 20
1.144539778544586
 30
0.0
 41
1.0
 10
2.800465934945481
 20
1.087565433794024
 30
0.0
 41
1.0
 10
2.852852421524661
 20
1.023575916534287
 30
0.0
 41
1.0
 10
2.909959461036126
 20
0.9575005377359193
 30
0.0
 41
1.0
 10
2.969698183890743
 20
0.8948473233553116
 30
0.0
 41
1.0
 10
3.02995566905909
 20
0.8411656566541918
 30
0.0
 41
1.0
 10
3.088796523242864
 20
0.8014950510903126
 30
0.0
 41
1.0
 10
3.14464883216531
 20
0.7798424247544883
 30
0.0
 41
1.0
 10
3.196557700776268
 20
0.7784228569255801
 30
0.0
 41
1.0
 10
3.244069997779527
 20
0.7980485538395139
 30
0.0
 41
1.0
 10
3.278447183784102
 20
0.83060760005717
 30
0.0
 41
1.0
 10
3.302197020889712
 20
0.864368925302495
 30
0.0
 41
1.0
 10
3.317133122047029
 20
0.8909987045335073
 30
0.0
 41
1.0
 10
3.324376895654923
 20
0.9053441410114199
 30
0.0
 41
1.0
  0
SPLINE
  5
97
330
70
100
AcDbEntity
  8
会話 v1_Sketch1
100
AcDbSpline
210
0.0
220
0.0
230
1.0
 70
    28
 71
     5
 72
    16
 73
    10
 74
     0
 42
0.000000001
 43
0.0000000001
 40
0.0
 40
0.0
 40
0.0
 40
0.0
 40
0.0
 40
0.0
 40
0.2
 40
0.4
 40
0.6000000000000001
 40
0.8
 40
1.0
 40
1.0
 40
1.0
 40
1.0
 40
1.0
 40
1.0
 10
2.349999947473406
 20
1.469999967142939
 30
0.0
 41
1.0
 10
2.359199947267557
 20
1.474799967035368
 30
0.0
 41
1.0
 10
2.377599946855915
 20
1.484399966820297
 30
0.0
 41
1.0
 10
2.40519994623863
 20
1.49879996649792
 30
0.0
 41
1.0
 10
2.441999945415893
 20
1.517999966068493
 30
0.0
 41
1.0
 10
2.487999944387849
 20
1.54199996553221
 30
0.0
 41
1.0
 10
2.524799943565613
 20
1.561199965103467
 30
0.0
 41
1.0
 10
2.552399942949028
 20
1.575599964782047
 30
0.0
 41
1.0
 10
2.570799942538008
 20
1.585199964567826
 30
0.0
 41
1.0
 10
2.579999942332506
 20
1.58999996446073
 30
0.0
 41
1.0
  0
SPLINE
  5
98
330
70
100
AcDbEntity
  8
会話 v1_Sketch1
100
AcDbSpline
210
0.0
220
0.0
230
1.0
 70
    12
 71
     5
 72
    31
 73
    25
 74
     0
 42
0.000000001
 43
0.0000000001
 40
0.0
 40
0.0
 40
0.0
 40
0.0
 40
0.0
 40
0.0
 40
0.05
 40
0.1
 40
0.15
 40
0.2
 40
0.25
 40
0.3
 40
0.35
 40
0.4
 40
0.45
 40
0.5
 40
0.55
 40
0.6
 40
0.65
 40
0.7000000000000001
 40
0.7500000000000001
 40
0.8000000000000001
 40
0.8500000000000001
 40
0.9000000000000001
 40
0.9500000000000003
 40
1.0
 40
1.0
 40
1.0
 40
1.0
 40
1.0
 40
1.0
 10
2.65800454099933
 20
1.329085590183199
 30
0.0
 41
1.0
 10
2.65065930433085
 20
1.32444476410975
 30
0.0
 41
1.0
 10
2.63600718333117
 20
1.315343945144509
 30
0.0
 41
1.0
 10
2.614144055913744
 20
1.302235224628117
 30
0.0
 41
1.0
 10
2.585224291382548
 20
1.285846299326897
 30
0.0
 41
1.0
 10
2.549475843591992
 20
1.267236891073078
 30
0.0
 41
1.0
 10
2.514167967831811
 20
1.250640957724671
 30
0.0
 41
1.0
 10
2.479371304192566
 20
1.236300013081888
 30
0.0
 41
1.0
 10
2.445198807704481
 20
1.22457944118374
 30
0.0
 41
1.0
 10
2.41181012455103
 20
1.216010873245772
 30
0.0
 41
1.0
 10
2.379438519318377
 20
1.211254625701927
 30
0.0
 41
1.0
 10
2.348443893480892
 20
1.210960426556408
 30
0.0
 41
1.0
 10
2.319365840275294
 20
1.215641632274284
 30
0.0
 41
1.0
 10
2.292965731868842
 20
1.22555575899096
 30
0.0
 41
1.0
 10
2.270306023016361
 20
1.240527758993644
 30
0.0
 41
1.0
 10
2.252663117211087
 20
1.260007117024514
 30
0.0
 41
1.0
 10
2.241333688944529
 20
1.283263163100528
 30
0.0
 41
1.0
 10
2.23748559186835
 20
1.309520218366084
 30
0.0
 41
1.0
 10
2.241946229656715
 20
1.338133327426171
 30
0.0
 41
1.0
 10
2.255128757757459
 20
1.368670444539797
 30
0.0
 41
1.0
 10
2.277187487167477
 20
1.400853648576878
 30
0.0
 41
1.0
 10
2.301924668689132
 20
1.427796581402016
 30
0.0
 41
1.0
 10
2.324431121969635
 20
1.448648529343496
 30
0.0
 41
1.0
 10
2.341185348642592
 20
1.462835251836005
 30
0.0
 41
1.0
 10
2.349999947473406
 20
1.469999967142939
 30
0.0
 41
1.0
  0
SPLINE
  5
99
330
70
100
AcDbEntity
  8
会話 v1_Sketch1
100
AcDbSpline
210
0.0
220
0.0
230
1.0
 70
    12
 71
     5
 72
    31
 73
    25
 74
     0
 42
0.000000001
 43
0.0000000001
 40
0.0
 40
0.0
 40
0.0
 40
0.0
 40
0.0
 40
0.0
 40
0.05
 40
0.1
 40
0.15
 40
0.2
 40
0.25
 40
0.3
 40
0.35
 40
0.4
 40
0.45
 40
0.5
 40
0.55
 40
0.6
 40
0.65
 40
0.7000000000000001
 40
0.7500000000000001
 40
0.8000000000000001
 40
0.8500000000000001
 40
0.9000000000000001
 40
0.9500000000000003
 40
1.0
 40
1.0
 40
1.0
 40
1.0
 40
1.0
 40
1.0
 10
2.579999942332506
 20
1.58999996446073
 30
0.0
 41
1.0
 10
2.582523195928695
 20
1.590257135710494
 30
0.0
 41
1.0
 10
2.587048097359871
 20
1.590966264842926
 30
0.0
 41
1.0
 10
2.592270662587417
 20
1.592614315401591
 30
0.0
 41
1.0
 10
2.596091471080039
 20
1.595985225384262
 30
0.0
 41
1.0
 10
2.595689628875101
 20
1.602166934950302
 30
0.0
 41
1.0
 10
2.590418082635463
 20
1.610304415842756
 30
0.0
 41
1.0
 10
2.581009361035923
 20
1.620333322315085
 30
0.0
 41
1.0
 10
2.568770601816056
 20
1.632109955269354
 30
0.0
 41
1.0
 10
2.555333541428489
 20
1.645405600188128
 30
0.0
 41
1.0
 10
2.542444328458997
 20
1.659897893392468
 30
0.0
 41
1.0
 10
2.531733158294995
 20
1.675157853737031
 30
0.0
 41
1.0
 10
2.524513855019973
 20
1.690640660989246
 30
0.0
 41
1.0
 10
2.521507789842842
 20
1.705658872416614
 30
0.0
 41
1.0
 10
2.52289795780017
 20
1.719431441156553
 30
0.0
 41
1.0
 10
2.528520011745599
 20
1.731164984937958
 30
0.0
 41
1.0
 10
2.538000345898285
 20
1.740126911696398
 30
0.0
 41
1.0
 10
2.550903539983614
 20
1.745721004639101
 30
0.0
 41
1.0
 10
2.566879267629836
 20
1.747576366729929
 30
0.0
 41
1.0
 10
2.58566700305477
 20
1.745500641170008
 30
0.0
 41
1.0
 10
2.607082970715326
 20
1.739423310379719
 30
0.0
 41
1.0
 10
2.626226055755533
 20
1.731363821967586
 30
0.0
 41
1.0
 10
2.6416876126685
 20
1.723536132567905
 30
0.0
 41
1.0
 10
2.652484101044278
 20
1.717528429602494
 30
0.0
 41
1.0
 10
2.65800454099933
 20
1.714327266526764
 30
0.0
 41
1.0
  0
SPLINE
  5
9A
330
70
100
AcDbEntity
  8
会話 v1_Sketch1
100
AcDbSpline
210
0.0
220
0.0
230
1.0
 70
    28
 71
     5
 72
    16
 73
    10
 74
     0
 42
0.000000001
 43
0.0000000001
 40
0.0
 40
0.0
 40
0.0
 40
0.0
 40
0.0
 40
0.0
 40
0.2
 40
0.4
 40
0.6000000000000001
 40
0.8
 40
1.0
 40
1.0
 40
1.0
 40
1.0
 40
1.0
 40
1.0
 10
2.65800454099933
 20
1.714327266526764
 30
0.0
 41
1.0
 10
2.677284356551536
 20
1.69575417474789
 30
0.0
 41
1.0
 10
2.715843987656066
 20
1.658607991190202
 30
0.0
 41
1.0
 10
2.77368343431324
 20
1.60288871585386
 30
0.0
 41
1.0
 10
2.85080269652348
 20
1.528596348739067
 30
0.0
 41
1.0
 10
2.947201774287056
 20
1.435730889845952
 30
0.0
 41
1.0
 10
3.024321036498297
 20
1.361438522731637
 30
0.0
 41
1.0
 10
3.08216048315687
 20
1.30571924739596
 30
0.0
 41
1.0
 10
3.120720114262635
 20
1.268573063838864
 30
0.0
 41
1.0
 10
3.13999992981553
 20
1.249999972060322
 30
0.0
 41
1.0
  0
SPLINE
  5
9B
330
70
100
AcDbEntity
  8
会話 v1_Sketch1
100
AcDbSpline
210
0.0
220
0.0
230
1.0
 70
    28
 71
     5
 72
    16
 73
    10
 74
     0
 42
0.000000001
 43
0.0000000001
 40
0.0
 40
0.0
 40
0.0
 40
0.0
 40
0.0
 40
0.0
 40
0.2
 40
0.4
 40
0.6000000000000001
 40
0.8
 40
1.0
 40
1.0
 40
1.0
 40
1.0
 40
1.0
 40
1.0
 10
3.32437689565635
 20
0.5843491046625095
 30
0.0
 41
1.0
 10
3.324376895656044
 20
0.623633282288611
 30
0.0
 41
1.0
 10
3.324376895655515
 20
0.7022016375408303
 30
0.0
 41
1.0
 10
3.324376895654987
 20
0.8200541704192115
 30
0.0
 41
1.0
 10
3.32437689565475
 20
0.9771908809238137
 30
0.0
 41
1.0
 10
3.324376895654989
 20
1.173611769054678
 30
0.0
 41
1.0
 10
3.324376895655433
 20
1.330748479559423
 30
0.0
 41
1.0
 10
3.324376895655861
 20
1.448601012438004
 30
0.0
 41
1.0
 10
3.324376895656181
 20
1.527169367690397
 30
0.0
 41
1.0
 10
3.32437689565635
 20
1.566453545316595
 30
0.0
 41
1.0
  0
SPLINE
  5
9C
330
70
100
AcDbEntity
  8
会話 v1_Sketch1
100
AcDbSpline
210
0.0
220
0.0
230
1.0
 70
    28
 71
     5
 72
    16
 73
    10
 74
     0
 42
0.000000001
 43
0.0000000001
 40
0.0
 40
0.0
 40
0.0
 40
0.0
 40
0.0
 40
0.0
 40
0.2
 40
0.4
 40
0.6000000000000001
 40
0.8
 40
1.0
 40
1.0
 40
1.0
 40
1.0
 40
1.0
 40
1.0
 10
2.579999942332506
 20
2.067332462122669
 30
0.0
 41
1.0
 10
2.562435032100275
 20
2.05803007595749
 30
0.0
 41
1.0
 10
2.527305211635873
 20
2.039425303627226
 30
0.0
 41
1.0
 10
2.474610480939455
 20
2.011518145132138
 30
0.0
 41
1.0
 10
2.404350840011219
 20
1.97430860047257
 30
0.0
 41
1.0
 10
2.316526288851298
 20
1.927796669648749
 30
0.0
 41
1.0
 10
2.24626664792355
 20
1.890587124990021
 30
0.0
 41
1.0
 10
2.193571917227818
 20
1.862679966496108
 30
0.0
 41
1.0
 10
2.158442096764026
 20
1.844075194166888
 30
0.0
 41
1.0
 10
2.140877186532138
 20
1.834772808002291
 30
0.0
 41
1.0
  0
SPLINE
  5
9D
330
70
100
AcDbEntity
  8
会話 v1_Sketch1
100
AcDbSpline
210
0.0
220
0.0
230
1.0
 70
    12
 71
     5
 72
    31
 73
    25
 74
     0
 42
0.000000001
 43
0.0000000001
 40
0.0
 40
0.0
 40
0.0
 40
0.0
 40
0.0
 40
0.0
 40
0.05
 40
0.1
 40
0.15
 40
0.2
 40
0.25
 40
0.3
 40
0.35
 40
0.4
 40
0.45
 40
0.5
 40
0.55
 40
0.6
 40
0.65
 40
0.7000000000000001
 40
0.7500000000000001
 40
0.8000000000000001
 40
0.8500000000000001
 40
0.9000000000000001
 40
0.9500000000000003
 40
1.0
 40
1.0
 40
1.0
 40
1.0
 40
1.0
 40
1.0
 10
3.324376895654923
 20
1.00959966991423
 30
0.0
 41
1.0
 10
3.316136588896234
 20
1.000365521307177
 30
0.0
 41
1.0
 10
3.30034262876494
 20
0.9824146996446749
 30
0.0
 41
1.0
 10
3.278711695893465
 20
0.9570408602841345
 30
0.0
 41
1.0
 10
3.254006878333786
 20
0.9263268135188759
 30
0.0
 41
1.0
 10
3.229857231386288
 20
0.893353517980833
 30
0.0
 41
1.0
 10
3.211766473142948
 20
0.8663448977642987
 30
0.0
 41
1.0
 10
3.198258579689752
 20
0.8462858543160027
 30
0.0
 41
1.0
 10
3.186691873202132
 20
0.8347507456175392
 30
0.0
 41
1.0
 10
3.173029268390505
 20
0.8339654087930329
 30
0.0
 41
1.0
 10
3.153129753952379
 20
0.8459439751152457
 30
0.0
 41
1.0
 10
3.123900155138104
 20
0.8717018382526916
 30
0.0
 41
1.0
 10
3.084561605100668
 20
0.9103803628076644
 30
0.0
 41
1.0
 10
3.036153955509019
 20
0.9596887091817901
 30
0.0
 41
1.0
 10
2.981025453979389
 20
1.016352838860816
 30
0.0
 41
1.0
 10
2.922358515171285
 20
1.076534506995844
 30
0.0
 41
1.0
 10
2.863711254955667
 20
1.136236054295243
 30
0.0
 41
1.0
 10
2.808552310306296
 20
1.191714573569621
 30
0.0
 41
1.0
 10
2.759833131567794
 20
1.23986209678309
 30
0.0
 41
1.0
 10
2.719449687363494
 20
1.278694880918729
 30
0.0
 41
1.0
 10
2.688399876812349
 20
1.307173640883953
 30
0.0
 41
1.0
 10
2.671352172723911
 20
1.321340091231947
 30
0.0
 41
1.0
 10
2.662971936426702
 20
1.327097966959652
 30
0.0
 41
1.0
 10
2.659335311638656
 20
1.328782116387404
 30
0.0
 41
1.0
 10
2.65800454099933
 20
1.329085590183199
 30
0.0
 41
1.0
  0
SPLINE
  5
9E
330
70
100
AcDbEntity
  8
会話 v1_Sketch1
100
AcDbSpline
210
0.0
220
0.0
230
1.0
 70
    28
 71
     5
 72
    16
 73
    10
 74
     0
 42
0.000000001
 43
0.0000000001
 40
0.0
 40
0.0
 40
0.0
 40
0.0
 40
0.0
 40
0.0
 40
0.2
 40
0.4
 40
0.6000000000000001
 40
0.8
 40
1.0
 40
1.0
 40
1.0
 40
1.0
 40
1.0
 40
1.0
 10
2.173674060831166
 20
1.770669826417828
 30
0.0
 41
1.0
 10
2.191622895674707
 20
1.779972212582344
 30
0.0
 41
1.0
 10
2.227520565361816
 20
1.798576984911458
 30
0.0
 41
1.0
 10
2.281367069892565
 20
1.826484143405383
 30
0.0
 41
1.0
 10
2.353162409267047
 20
1.863693688064403
 30
0.0
 41
1.0
 10
2.442906583485343
 20
1.910205618888701
 30
0.0
 41
1.0
 10
2.514701922860097
 20
1.947415163548395
 30
0.0
 41
1.0
 10
2.568548427391229
 20
1.975322322043266
 30
0.0
 41
1.0
 10
2.604446097078677
 20
1.993927094373219
 30
0.0
 41
1.0
 10
2.622394931922408
 20
2.003229480538206
 30
0.0
 41
1.0
  0
SPLINE
  5
9F
330
70
100
AcDbEntity
  8
会話 v1_Sketch1
100
AcDbSpline
210
0.0
220
0.0
230
1.0
 70
    12
 71
     5
 72
    26
 73
    20
 74
     0
 42
0.000000001
 43
0.0000000001
 40
0.0
 40
0.0
 40
0.0
 40
0.0
 40
0.0
 40
0.0
 40
0.0666666666666667
 40
0.1333333333333333
 40
0.2
 40
0.2666666666666666
 40
0.3333333333333333
 40
0.4
 40
0.4666666666666666
 40
0.5333333333333333
 40
0.6
 40
0.6666666666666666
 40
0.7333333333333333
 40
0.8
 40
0.8666666666666666
 40
0.9333333333333332
 40
1.0
 40
1.0
 40
1.0
 40
1.0
 40
1.0
 40
1.0
 10
3.13999992981553
 20
1.249999972060322
 30
0.0
 41
1.0
 10
3.1414319426302
 20
1.247913881993938
 30
0.0
 41
1.0
 10
3.14441082671869
 20
1.244550751772734
 30
0.0
 41
1.0
 10
3.149223706757334
 20
1.241933031481975
 30
0.0
 41
1.0
 10
3.156335184517744
 20
1.243333497106
 30
0.0
 41
1.0
 10
3.166396697016384
 20
1.253313054890181
 30
0.0
 41
1.0
 10
3.177625489148397
 20
1.271406757783867
 30
0.0
 41
1.0
 10
3.189961712456983
 20
1.297022987198193
 30
0.0
 41
1.0
 10
3.203298639964114
 20
1.329168208071849
 30
0.0
 41
1.0
 10
3.2175066380404
 20
1.366655467634119
 30
0.0
 41
1.0
 10
3.232448205548968
 20
1.4082454288604
 30
0.0
 41
1.0
 10
3.247992439055051
 20
1.452782869710283
 30
0.0
 41
1.0
 10
3.264028888141093
 20
1.499344878048234
 30
0.0
 41
1.0
 10
3.280472554552126
 20
1.54727991808035
 30
0.0
 41
1.0
 10
3.297260338429208
 20
1.596143455424553
 30
0.0
 41
1.0
 10
3.314349159427584
 20
1.645663738687627
 30
0.0
 41
1.0
 10
3.328240025325509
 20
1.68569034280228
 30
0.0
 41
1.0
 10
3.338776113061102
 20
1.715916690868916
 30
0.0
 41
1.0
 10
3.345852207981167
 20
1.736158642864349
 30
0.0
 41
1.0
 10
3.349403264692043
 20
1.74630238316094
 30
0.0
 41
1.0
  0
SPLINE
  5
A0
330
70
100
AcDbEntity
  8
会話 v1_Sketch1
100
AcDbSpline
210
0.0
220
0.0
230
1.0
 70
    12
 71
     5
 72
    21
 73
    15
 74
     0
 42
0.000000001
 43
0.0000000001
 40
0.0
 40
0.0
 40
0.0
 40
0.0
 40
0.0
 40
0.0
 40
0.1
 40
0.2
 40
0.3
 40
0.4
 40
0.5
 40
0.6
 40
0.7
 40
0.8
 40
0.9
 40
1.0
 40
1.0
 40
1.0
 40
1.0
 40
1.0
 40
1.0
 10
2.622394931922408
 20
2.003229480538206
 30
0.0
 41
1.0
 10
2.624154970055876
 20
2.00531468812722
 30
0.0
 41
1.0
 10
2.627444605669762
 20
2.009414136148405
 30
0.0
 41
1.0
 10
2.631687744014417
 20
2.01535040882936
 30
0.0
 41
1.0
 10
2.635939825502628
 20
2.022832616921651
 30
0.0
 41
1.0
 10
2.638755922448292
 20
2.031415776398501
 30
0.0
 41
1.0
 10
2.638859007195528
 20
2.039163428946965
 30
0.0
 41
1.0
 10
2.63604212009327
 20
2.046011838686154
 30
0.0
 41
1.0
 10
2.630219159133698
 20
2.051934489397626
 30
0.0
 41
1.0
 10
2.621538887267515
 20
2.056977194541425
 30
0.0
 41
1.0
 10
2.610229607141474
 20
2.061210262847884
 30
0.0
 41
1.0
 10
2.59925781366687
 20
2.064004083244796
 30
0.0
 41
1.0
 10
2.590016258766673
 20
2.065787571563029
 30
0.0
 41
1.0
 10
2.583412504324471
 20
2.066840223133354
 30
0.0
 41
1.0
 10
2.579999942332506
 20
2.067332462122669
 30
0.0
 41
1.0
  0
SPLINE
  5
A1
330
70
100
AcDbEntity
  8
会話 v1_Sketch1
100
AcDbSpline
210
0.0
220
0.0
230
1.0
 70
    12
 71
     5
 72
    21
 73
    15
 74
     0
 42
0.000000001
 43
0.0000000001
 40
0.0
 40
0.0
 40
0.0
 40
0.0
 40
0.0
 40
0.0
 40
0.1
 40
0.2
 40
0.3
 40
0.4
 40
0.5
 40
0.6
 40
0.7
 40
0.8
 40
0.9
 40
1.0
 40
1.0
 40
1.0
 40
1.0
 40
1.0
 40
1.0
 10
2.140877186532138
 20
1.834772808002291
 30
0.0
 41
1.0
 10
2.138934873034232
 20
1.832398410497746
 30
0.0
 41
1.0
 10
2.135277837438497
 20
1.827745297817819
 30
0.0
 41
1.0
 10
2.130475040818994
 20
1.821052668459254
 30
0.0
 41
1.0
 10
2.125459441411577
 20
1.812712749971002
 30
0.0
 41
1.0
 10
2.121659907786808
 20
1.803326256935576
 30
0.0
 41
1.0
 10
2.120548735330417
 20
1.795069985244593
 30
0.0
 41
1.0
 10
2.122341658234114
 20
1.788034632305399
 30
0.0
 41
1.0
 10
2.127149739777876
 20
1.782266890538221
 30
0.0
 41
1.0
 10
2.134845682277389
 20
1.777713242371918
 30
0.0
 41
1.0
 10
2.145208256822561
 20
1.774280680349271
 30
0.0
 41
1.0
 10
2.155454927750782
 20
1.772357215088634
 30
0.0
 41
1.0
 10
2.164170327741857
 20
1.77134780810564
 30
0.0
 41
1.0
 10
2.170431068171526
 20
1.770864255038378
 30
0.0
 41
1.0
 10
2.173674060831166
 20
1.770669826417828
 30
0.0
 41
1.0
  0
SPLINE
  5
A2
330
70
100
AcDbEntity
  8
会話 v1_Sketch1
100
AcDbSpline
210
0.0
220
0.0
230
1.0
 70
    12
 71
     5
 72
    21
 73
    15
 74
     0
 42
0.000000001
 43
0.0000000001
 40
0.0
 40
0.0
 40
0.0
 40
0.0
 40
0.0
 40
0.0
 40
0.1
 40
0.2
 40
0.3
 40
0.4
 40
0.5
 40
0.6
 40
0.7
 40
0.8
 40
0.9
 40
1.0
 40
1.0
 40
1.0
 40
1.0
 40
1.0
 40
1.0
 10
3.32437689565635
 20
1.566453545316595
 30
0.0
 41
1.0
 10
3.32525748466015
 20
1.568511217327753
 30
0.0
 41
1.0
 10
3.327045130651371
 20
1.572450659980377
 30
0.0
 41
1.0
 10
3.329806001634216
 20
1.577832132841857
 30
0.0
 41
1.0
 10
3.333648596454352
 20
1.583934572462144
 30
0.0
 41
1.0
 10
3.338739074391297
 20
1.589653714708459
 30
0.0
 41
1.0
 10
3.344142136842498
 20
1.593295477534466
 30
0.0
 41
1.0
 10
3.349882794374718
 20
1.594693645291151
 30
0.0
 41
1.0
 10
3.355973784506875
 20
1.593763566757386
 30
0.0
 41
1.0
 10
3.362400158204713
 20
1.590604590473227
 30
0.0
 41
1.0
 10
3.369136156261343
 20
1.585387907406145
 30
0.0
 41
1.0
 10
3.374752104674112
 20
1.57970496386693
 30
0.0
 41
1.0
 10
3.379083683418556
 20
1.574647800644767
 30
0.0
 41
1.0
 10
3.382023697318237
 20
1.5709288172525
 30
0.0
 41
1.0
 10
3.383506778427599
 20
1.568982437086303
 30
0.0
 41
1.0
  0
SPLINE
  5
A3
330
70
100
AcDbEntity
  8
会話 v1_Sketch1
100
AcDbSpline
210
0.0
220
0.0
230
1.0
 70
    28
 71
     5
 72
    16
 73
    10
 74
     0
 42
0.000000001
 43
0.0000000001
 40
0.0
 40
0.0
 40
0.0
 40
0.0
 40
0.0
 40
0.0
 40
0.2
 40
0.4
 40
0.6000000000000001
 40
0.8
 40
1.0
 40
1.0
 40
1.0
 40
1.0
 40
1.0
 40
1.0
 10
3.286394686417803
 20
1.764096929039975
 30
0.0
 41
1.0
 10
3.279985838484604
 20
1.747888157480365
 30
0.0
 41
1.0
 10
3.267168142618352
 20
1.7154706143612
 30
0.0
 41
1.0
 10
3.247941598819441
 20
1.666844299682635
 30
0.0
 41
1.0
 10
3.222306207088385
 20
1.602009213444874
 30
0.0
 41
1.0
 10
3.190261967425525
 20
1.520965355648057
 30
0.0
 41
1.0
 10
3.164626575695705
 20
1.456130269410809
 30
0.0
 41
1.0
 10
3.145400031898517
 20
1.407503954732965
 30
0.0
 41
1.0
 10
3.132582336033792
 20
1.375086411614442
 30
0.0
 41
1.0
 10
3.126173488101446
 20
1.35887764005519
 30
0.0
 41
1.0
  0
SPLINE
  5
A4
330
70
100
AcDbEntity
  8
会話 v1_Sketch1
100
AcDbSpline
210
0.0
220
0.0
230
1.0
 70
    12
 71
     5
 72
    51
 73
    45
 74
     0
 42
0.000000001
 43
0.0000000001
 40
0.0
 40
0.0
 40
0.0
 40
0.0
 40
0.0
 40
0.0
 40
0.025
 40
0.05
 40
0.075
 40
0.1
 40
0.125
 40
0.15
 40
0.175
 40
0.2
 40
0.225
 40
0.25
 40
0.275
 40
0.3
 40
0.325
 40
0.35
 40
0.375
 40
0.4000000000000001
 40
0.4250000000000001
 40
0.4500000000000001
 40
0.4750000000000002
 40
0.5000000000000001
 40
0.5250000000000002
 40
0.5500000000000002
 40
0.5750000000000002
 40
0.6000000000000002
 40
0.6250000000000002
 40
0.6500000000000003
 40
0.6750000000000003
 40
0.7000000000000003
 40
0.7250000000000004
 40
0.7500000000000004
 40
0.7750000000000004
 40
0.8000000000000003
 40
0.8250000000000003
 40
0.8500000000000003
 40
0.8750000000000003
 40
0.9000000000000005
 40
0.9250000000000005
 40
0.9500000000000005
 40
0.9750000000000005
 40
1.0
 40
1.0
 40
1.0
 40
1.0
 40
1.0
 40
1.0
 10
2.650000039488077
 20
3.150000046938657
 30
0.0
 41
1.0
 10
2.63257338426134
 20
3.149427630904011
 30
0.0
 41
1.0
 10
2.59768350112109
 20
3.149048900461977
 30
0.0
 41
1.0
 10
2.545238932605885
 20
3.150779113506232
 30
0.0
 41
1.0
 10
2.475093353941876
 20
3.157687326912075
 30
0.0
 41
1.0
 10
2.386997383028867
 20
3.174086106176123
 30
0.0
 41
1.0
 10
2.298349131307843
 20
3.198485027443897
 30
0.0
 41
1.0
 10
2.208865930009671
 20
3.231323370040039
 30
0.0
 41
1.0
 10
2.118094894911462
 20
3.273299068589177
 30
0.0
 41
1.0
 10
2.026089518481546
 20
3.325187302558169
 30
0.0
 41
1.0
 10
1.93415203213815
 20
3.387661416438153
 30
0.0
 41
1.0
 10
1.845403437139677
 20
3.461115702553246
 30
0.0
 41
1.0
 10
1.765798505790608
 20
3.545476973168131
 30
0.0
 41
1.0
 10
1.703582726892288
 20
3.640053373796952
 30
0.0
 41
1.0
 10
1.667038009724528
 20
3.743437747339484
 30
0.0
 41
1.0
 10
1.662593092595275
 20
3.853376715033375
 30
0.0
 41
1.0
 10
1.692961150607461
 20
3.966686085376117
 30
0.0
 41
1.0
 10
1.754777632583417
 20
4.079048064308996
 30
0.0
 41
1.0
 10
1.84016003789516
 20
4.185586609796072
 30
0.0
 41
1.0
 10
1.939120998217386
 20
4.281595364302194
 30
0.0
 41
1.0
 10
2.041770068922462
 20
4.363255687820615
 30
0.0
 41
1.0
 10
2.140386967839433
 20
4.428267886064553
 30
0.0
 41
1.0
 10
2.232075623781831
 20
4.476756075078978
 30
0.0
 41
1.0
 10
2.319343219388338
 20
4.51125043405561
 30
0.0
 41
1.0
 10
2.407458814898489
 20
4.535243606005578
 30
0.0
 41
1.0
 10
2.502610477085872
 20
4.552105641280074
 30
0.0
 41
1.0
 10
2.609704119066175
 20
4.563825001531609
 30
0.0
 41
1.0
 10
2.730430484936447
 20
4.569906779021242
 30
0.0
 41
1.0
 10
2.863909542729821
 20
4.568220080367893
 30
0.0
 41
1.0
 10
3.007224277981509
 20
4.555746486698922
 30
0.0
 41
1.0
 10
3.155992179332391
 20
4.529386774697828
 30
0.0
 41
1.0
 10
3.304896179299491
 20
4.486683804586271
 30
0.0
 41
1.0
 10
3.448268449241719
 20
4.426725923948232
 30
0.0
 41
1.0
 10
3.580510025596095
 20
4.35049292360583
 30
0.0
 41
1.0
 10
3.696229728000964
 20
4.260201902933486
 30
0.0
 41
1.0
 10
3.790442022388377
 20
4.158889471406625
 30
0.0
 41
1.0
 10
3.858753808164607
 20
4.049888501052666
 30
0.0
 41
1.0
 10
3.897536475798877
 20
3.936388686404628
 30
0.0
 41
1.0
 10
3.904166202419498
 20
3.820873166779333
 30
0.0
 41
1.0
 10
3.877021199285176
 20
3.704946966109025
 30
0.0
 41
1.0
 10
3.815208869855297
 20
3.589584071519969
 30
0.0
 41
1.0
 10
3.737737485100824
 20
3.498126190572463
 30
0.0
 41
1.0
 10
3.663849623591242
 20
3.430072493692579
 30
0.0
 41
1.0
 10
3.60758301604829
 20
3.384942863939955
 30
0.0
 41
1.0
 10
3.577697698957608
 20
3.362437931759627
 30
0.0
 41
1.0
  0
CIRCLE
  5
A5
330
70
100
AcDbEntity
  8
会話 v1_Sketch1
100
AcDbCircle
 10
1.244179601427416
 20
2.320836400779612
 30
0.0
 40
0.6307762689293336
  0
SPLINE
  5
A6
330
70
100
AcDbEntity
  8
会話 v1_Sketch1
100
AcDbSpline
210
0.0
220
0.0
230
1.0
 70
    12
 71
     5
 72
    21
 73
    15
 74
     0
 42
0.000000001
 43
0.0000000001
 40
0.0
 40
0.0
 40
0.0
 40
0.0
 40
0.0
 40
0.0
 40
0.1
 40
0.2
 40
0.3
 40
0.4
 40
0.5
 40
0.6
 40
0.7
 40
0.8
 40
0.9
 40
1.0
 40
1.0
 40
1.0
 40
1.0
 40
1.0
 40
1.0
 10
3.577697698957608
 20
3.362437931759627
 30
0.0
 41
1.0
 10
3.565378757191139
 20
3.353743797154332
 30
0.0
 41
1.0
 10
3.540543961468392
 20
3.33674718094202
 30
0.0
 41
1.0
 10
3.50270104032672
 20
3.312427197694011
 30
0.0
 41
1.0
 10
3.451042842091065
 20
3.282389250173398
 30
0.0
 41
1.0
 10
3.384334145695745
 20
3.249090159537019
 30
0.0
 41
1.0
 10
3.31530457669745
 20
3.220407221483863
 30
0.0
 41
1.0
 10
3.243773985966339
 20
3.196698747741288
 30
0.0
 41
1.0
 10
3.169661185311926
 20
3.178126219415413
 30
0.0
 41
1.0
 10
3.093087842680559
 20
3.164447642264536
 30
0.0
 41
1.0
 10
3.01424785450565
 20
3.155277361547395
 30
0.0
 41
1.0
 10
2.949515417574419
 20
3.151243719754885
 30
0.0
 41
1.0
 10
2.900092066069742
 20
3.149956898025896
 30
0.0
 41
1.0
 10
2.866761069133733
 20
3.149858995307422
 30
0.0
 41
1.0
 10
2.850000042468309
 20
3.150000046938657
 30
0.0
 41
1.0
  0
SPLINE
  5
A7
330
70
100
AcDbEntity
  8
会話 v1_Sketch1
100
AcDbSpline
210
0.0
220
0.0
230
1.0
 70
    12
 71
     5
 72
    31
 73
    25
 74
     0
 42
0.000000001
 43
0.0000000001
 40
0.0
 40
0.0
 40
0.0
 40
0.0
 40
0.0
 40
0.0
 40
0.05
 40
0.1
 40
0.15
 40
0.2
 40
0.25
 40
0.3
 40
0.35
 40
0.4
 40
0.45
 40
0.5
 40
0.55
 40
0.6
 40
0.65
 40
0.7000000000000001
 40
0.7500000000000001
 40
0.8000000000000001
 40
0.8500000000000001
 40
0.9000000000000001
 40
0.9500000000000003
 40
1.0
 40
1.0
 40
1.0
 40
1.0
 40
1.0
 40
1.0
 10
2.900000043213367
 20
3.100000046193599
 30
0.0
 41
1.0
 10
2.894743913672182
 20
3.096078008140783
 30
0.0
 41
1.0
 10
2.885114631523218
 20
3.087863051739516
 30
0.0
 41
1.0
 10
2.873319810246231
 20
3.074427875112114
 30
0.0
 41
1.0
 10
2.862911730036791
 20
3.054280611980404
 30
0.0
 41
1.0
 10
2.858607104821158
 20
3.025501837305198
 30
0.0
 41
1.0
 10
2.862278143921711
 20
2.993625124540203
 30
0.0
 41
1.0
 10
2.872329939060704
 20
2.959694717852566
 30
0.0
 41
1.0
 10
2.885801848568041
 20
2.925601707769253
 30
0.0
 41
1.0
 10
2.898468586886378
 20
2.894029990325125
 30
0.0
 41
1.0
 10
2.905880407352327
 20
2.867850518423957
 30
0.0
 41
1.0
 10
2.904207662132849
 20
2.849630057440242
 30
0.0
 41
1.0
 10
2.891108862662405
 20
2.841123317603694
 30
0.0
 41
1.0
 10
2.866790737779669
 20
2.842655716402424
 30
0.0
 41
1.0
 10
2.83344728835509
 20
2.853418629815529
 30
0.0
 41
1.0
 10
2.794423688844914
 20
2.871917635169708
 30
0.0
 41
1.0
 10
2.753498545721461
 20
2.896349074327373
 30
0.0
 41
1.0
 10
2.714158544624346
 20
2.924979223146536
 30
0.0
 41
1.0
 10
2.67881519659455
 20
2.956544382681819
 30
0.0
 41
1.0
 10
2.64896237669627
 20
2.9902008242877
 30
0.0
 41
1.0
 10
2.625419086332892
 20
3.025429983219967
 30
0.0
 41
1.0
 10
2.611902860006062
 20
3.054656520611477
 30
0.0
 41
1.0
 10
2.604782903774888
 20
3.077118367442783
 30
0.0
 41
1.0
 10
2.601371745198318
 20
3.092332836556805
 30
0.0
 41
1.0
 10
2.600000038743019
 20
3.100000046193599
 30
0.0
 41
1.0
  0
CIRCLE
  5
A8
330
70
100
AcDbEntity
  8
会話 v1_Sketch1
100
AcDbCircle
 10
3.500000052154064
 20
2.400000035762786
 30
0.0
 40
0.6181080469275476
  0
SPLINE
  5
A9
330
70
100
AcDbEntity
  8
会話 v1_Sketch1
100
AcDbSpline
210
0.0
220
0.0
230
1.0
 70
    12
 71
     5
 72
    21
 73
    15
 74
     0
 42
0.000000001
 43
0.0000000001
 40
0.0
 40
0.0
 40
0.0
 40
0.0
 40
0.0
 40
0.0
 40
0.1
 40
0.2
 40
0.3
 40
0.4
 40
0.5
 40
0.6
 40
0.7
 40
0.8
 40
0.9
 40
1.0
 40
1.0
 40
1.0
 40
1.0
 40
1.0
 40
1.0
 10
2.540333486782761
 20
2.727128349392652
 30
0.0
 41
1.0
 10
2.542496725505488
 20
2.725150898545494
 30
0.0
 41
1.0
 10
2.546591664104834
 20
2.721270276059109
 30
0.0
 41
1.0
 10
2.552039472791583
 20
2.715672174395021
 30
0.0
 41
1.0
 10
2.557891014623557
 20
2.708661083022059
 30
0.0
 41
1.0
 10
2.562692708317071
 20
2.700703320521783
 30
0.0
 41
1.0
 10
2.564759756793413
 20
2.693622850466542
 30
0.0
 41
1.0
 10
2.563873124579593
 20
2.687489940898013
 30
0.0
 41
1.0
 10
2.559920824987275
 20
2.682340517893077
 30
0.0
 41
1.0
 10
2.553033177682449
 20
2.678132774032415
 30
0.0
 41
1.0
 10
2.543435423798429
 20
2.674794450456281
 30
0.0
 41
1.0
 10
2.533768898306126
 20
2.672761658691229
 30
0.0
 41
1.0
 10
2.525471935660266
 20
2.671572971441266
 30
0.0
 41
1.0
 10
2.51948286585844
 20
2.670927366178636
 30
0.0
 41
1.0
 10
2.516373886487238
 20
2.670641278097447
 30
0.0
 41
1.0
  0
SPLINE
  5
AA
330
70
100
AcDbEntity
  8
会話 v1_Sketch1
100
AcDbSpline
210
0.0
220
0.0
230
1.0
 70
    12
 71
     5
 72
    31
 73
    25
 74
     0
 42
0.000000001
 43
0.0000000001
 40
0.0
 40
0.0
 40
0.0
 40
0.0
 40
0.0
 40
0.0
 40
0.05
 40
0.1
 40
0.15
 40
0.2
 40
0.25
 40
0.3
 40
0.35
 40
0.4
 40
0.45
 40
0.5
 40
0.55
 40
0.6
 40
0.65
 40
0.7000000000000001
 40
0.7500000000000001
 40
0.8000000000000001
 40
0.8500000000000001
 40
0.9000000000000001
 40
0.9500000000000003
 40
1.0
 40
1.0
 40
1.0
 40
1.0
 40
1.0
 40
1.0
 10
2.600000038743019
 20
3.100000046193599
 30
0.0
 41
1.0
 10
2.589009544347292
 20
3.099117795942495
 30
0.0
 41
1.0
 10
2.566371049334399
 20
3.098010347199365
 30
0.0
 41
1.0
 10
2.530440822996611
 20
3.098320345485643
 30
0.0
 41
1.0
 10
2.478572483193531
 20
3.102691962461813
 30
0.0
 41
1.0
 10
2.407173436214659
 20
3.114905490643811
 30
0.0
 41
1.0
 10
2.329489033954716
 20
3.13415548718816
 30
0.0
 41
1.0
 10
2.24622005181924
 20
3.160894474645276
 30
0.0
 41
1.0
 10
2.15864216733562
 20
3.195740146512275
 30
0.0
 41
1.0
 10
2.068528357716573
 20
3.239322674456081
 30
0.0
 41
1.0
 10
1.97810965456947
 20
3.292140562822149
 30
0.0
 41
1.0
 10
1.890029887078675
 20
3.354407376989306
 30
0.0
 41
1.0
 10
1.80731689090828
 20
3.425876472026727
 30
0.0
 41
1.0
 10
1.733335719545227
 20
3.505691257589767
 30
0.0
 41
1.0
 10
1.671548726637406
 20
3.592610687949664
 30
0.0
 41
1.0
 10
1.625290259680388
 20
3.68518976373536
 30
0.0
 41
1.0
 10
1.597512632611121
 20
3.781969079832529
 30
0.0
 41
1.0
 10
1.590545658809685
 20
3.881642954350644
 30
0.0
 41
1.0
 10
1.605761345477798
 20
3.983258423419601
 30
0.0
 41
1.0
 10
1.643764336476682
 20
4.086183571918986
 30
0.0
 41
1.0
 10
1.704665961781798
 20
4.190032385970661
 30
0.0
 41
1.0
 10
1.77157020988796
 20
4.273692408518449
 30
0.0
 41
1.0
 10
1.83186639974987
 20
4.336732093855606
 30
0.0
 41
1.0
 10
1.876542393331265
 20
4.37888900068279
 30
0.0
 41
1.0
 10
1.900000028312206
 20
4.400000065565109
 30
0.0
 41
1.0
  0
SPLINE
  5
AB
330
70
100
AcDbEntity
  8
会話 v1_Sketch1
100
AcDbSpline
210
0.0
220
0.0
230
1.0
 70
    28
 71
     5
 72
    16
 73
    10
 74
     0
 42
0.000000001
 43
0.0000000001
 40
0.0
 40
0.0
 40
0.0
 40
0.0
 40
0.0
 40
0.0
 40
0.2
 40
0.4
 40
0.6000000000000001
 40
0.8
 40
1.0
 40
1.0
 40
1.0
 40
1.0
 40
1.0
 40
1.0
 10
2.140276099724641
 20
2.932872148451114
 30
0.0
 41
1.0
 10
2.156278395206703
 20
2.924642396488193
 30
0.0
 41
1.0
 10
2.188282986170893
 20
2.908182892562508
 30
0.0
 41
1.0
 10
2.236289872617391
 20
2.883493636674475
 30
0.0
 41
1.0
 10
2.300299054546437
 20
2.850574628824646
 30
0.0
 41
1.0
 10
2.380310531958214
 20
2.809425869013378
 30
0.0
 41
1.0
 10
2.444319713887896
 20
2.776506861164872
 30
0.0
 41
1.0
 10
2.492326600335284
 20
2.751817605278692
 30
0.0
 41
1.0
 10
2.52433119130026
 20
2.735358101354651
 30
0.0
 41
1.0
 10
2.540333486782761
 20
2.727128349392652
 30
0.0
 41
1.0
  0
SPLINE
  5
AC
330
70
100
AcDbEntity
  8
会話 v1_Sketch1
100
AcDbSpline
210
0.0
220
0.0
230
1.0
 70
    12
 71
     5
 72
    36
 73
    30
 74
     0
 42
0.000000001
 43
0.0000000001
 40
0.0
 40
0.0
 40
0.0
 40
0.0
 40
0.0
 40
0.0
 40
0.04
 40
0.08
 40
0.12
 40
0.16
 40
0.2
 40
0.24
 40
0.28
 40
0.32
 40
0.36
 40
0.4
 40
0.44
 40
0.4799999999999999
 40
0.52
 40
0.56
 40
0.6
 40
0.6400000000000001
 40
0.6800000000000001
 40
0.7200000000000001
 40
0.7600000000000002
 40
0.8000000000000001
 40
0.8400000000000002
 40
0.8800000000000002
 40
0.9200000000000002
 40
0.9600000000000003
 40
1.0
 40
1.0
 40
1.0
 40
1.0
 40
1.0
 40
1.0
 10
1.900000028312206
 20
4.400000065565109
 30
0.0
 41
1.0
 10
1.919740148737189
 20
4.41261120679636
 30
0.0
 41
1.0
 10
1.95973883510634
 20
4.437150633132111
 30
0.0
 41
1.0
 10
2.021292160468864
 20
4.471911212233102
 30
0.0
 41
1.0
 10
2.106482318294111
 20
4.514150774926896
 30
0.0
 41
1.0
 10
2.218309592528482
 20
4.559957089005016
 30
0.0
 41
1.0
 10
2.335824335727979
 20
4.598437442540562
 30
0.0
 41
1.0
 10
2.459649117136095
 20
4.629010316704182
 30
0.0
 41
1.0
 10
2.590796549708082
 20
4.650776071815367
 30
0.0
 41
1.0
 10
2.730188753051619
 20
4.662521508981019
 30
0.0
 41
1.0
 10
2.878089865277272
 20
4.662725236371101
 30
0.0
 41
1.0
 10
3.033598869435229
 20
4.649577767934943
 30
0.0
 41
1.0
 10
3.194013508421057
 20
4.620964551325916
 30
0.0
 41
1.0
 10
3.354499840771087
 20
4.574568048596746
 30
0.0
 41
1.0
 10
3.508929154315565
 20
4.508418093689632
 30
0.0
 41
1.0
 10
3.650516710312734
 20
4.421375394118623
 30
0.0
 41
1.0
 10
3.772538994625206
 20
4.313669443170057
 30
0.0
 41
1.0
 10
3.869002195073607
 20
4.187407816742235
 30
0.0
 41
1.0
 10
3.93539558476993
 20
4.047202725617798
 30
0.0
 41
1.0
 10
3.968499717901677
 20
3.89932953369115
 30
0.0
 41
1.0
 10
3.966145169990528
 20
3.75078052948496
 30
0.0
 41
1.0
 10
3.927014752396189
 20
3.608393015559549
 30
0.0
 41
1.0
 10
3.85045359524178
 20
3.477897017428203
 30
0.0
 41
1.0
 10
3.736299598648794
 20
3.363136748928189
 30
0.0
 41
1.0
 10
3.58472031428833
 20
3.266526132767729
 30
0.0
 41
1.0
 10
3.396066012051008
 20
3.189361131477083
 30
0.0
 41
1.0
 10
3.215801614808827
 20
3.143605364159039
 30
0.0
 41
1.0
 10
3.064245593555614
 20
3.11830528163197
 30
0.0
 41
1.0
 10
2.955957087371627
 20
3.105435616909954
 30
0.0
 41
1.0
 10
2.900000043213367
 20
3.100000046193599
 30
0.0
 41
1.0
  0
SPLINE
  5
AD
330
70
100
AcDbEntity
  8
会話 v1_Sketch1
100
AcDbSpline
210
0.0
220
0.0
230
1.0
 70
    28
 71
     5
 72
    16
 73
    10
 74
     0
 42
0.000000001
 43
0.0000000001
 40
0.0
 40
0.0
 40
0.0
 40
0.0
 40
0.0
 40
0.0
 40
0.2
 40
0.4
 40
0.6000000000000001
 40
0.8
 40
1.0
 40
1.0
 40
1.0
 40
1.0
 40
1.0
 40
1.0
 10
2.516373886487238
 20
2.670641278097447
 30
0.0
 41
1.0
 10
2.49982771870586
 20
2.678909786191379
 30
0.0
 41
1.0
 10
2.466735383143181
 20
2.695446802379297
 30
0.0
 41
1.0
 10
2.417096879799411
 20
2.720252326661346
 30
0.0
 41
1.0
 10
2.350912208674821
 20
2.753326359037722
 30
0.0
 41
1.0
 10
2.26818136976959
 20
2.794668899508579
 30
0.0
 41
1.0
 10
2.201996698645652
 20
2.827742931885499
 30
0.0
 41
1.0
 10
2.152358195302793
 20
2.85254845616831
 30
0.0
 41
1.0
 10
2.119265859740925
 20
2.869085472356903
 30
0.0
 41
1.0
 10
2.10271969196
 20
2.877353980451211
 30
0.0
 41
1.0
  0
SPLINE
  5
AE
330
70
100
AcDbEntity
  8
会話 v1_Sketch1
100
AcDbSpline
210
0.0
220
0.0
230
1.0
 70
    12
 71
     5
 72
    21
 73
    15
 74
     0
 42
0.000000001
 43
0.0000000001
 40
0.0
 40
0.0
 40
0.0
 40
0.0
 40
0.0
 40
0.0
 40
0.1
 40
0.2
 40
0.3
 40
0.4
 40
0.5
 40
0.6
 40
0.7
 40
0.8
 40
0.9
 40
1.0
 40
1.0
 40
1.0
 40
1.0
 40
1.0
 40
1.0
 10
2.10271969196
 20
2.877353980451211
 30
0.0
 41
1.0
 10
2.102038928897553
 20
2.879682908300135
 30
0.0
 41
1.0
 10
2.100801986495686
 20
2.884234741069222
 30
0.0
 41
1.0
 10
2.099320310376811
 20
2.890744433082883
 30
0.0
 41
1.0
 10
2.098104632896596
 20
2.898777342167484
 30
0.0
 41
1.0
 10
2.097937875810649
 20
2.907667188205627
 30
0.0
 41
1.0
 10
2.099246414487614
 20
2.915301531727429
 30
0.0
 41
1.0
 10
2.102153095622216
 20
2.92157582804489
 30
0.0
 41
1.0
 10
2.106729403166354
 20
2.926429243063155
 30
0.0
 41
1.0
 10
2.112914886197004
 20
2.929913221575238
 30
0.0
 41
1.0
 10
2.120590433129645
 20
2.932129129623886
 30
0.0
 41
1.0
 10
2.127826301187475
 20
2.932969625521876
 30
0.0
 41
1.0
 10
2.133830392651508
 20
2.933108798293492
 30
0.0
 41
1.0
 10
2.138085471193687
 20
2.93298682510827
 30
0.0
 41
1.0
 10
2.140276099724641
 20
2.932872148451114
 30
0.0
 41
1.0
  0
SPLINE
  5
AF
330
70
100
AcDbEntity
  8
会話 v1_Sketch1
100
AcDbSpline
210
0.0
220
0.0
230
1.0
 70
    12
 71
     5
 72
    31
 73
    25
 74
     0
 42
0.000000001
 43
0.0000000001
 40
0.0
 40
0.0
 40
0.0
 40
0.0
 40
0.0
 40
0.0
 40
0.05
 40
0.1
 40
0.15
 40
0.2
 40
0.25
 40
0.3
 40
0.35
 40
0.4
 40
0.45
 40
0.5
 40
0.55
 40
0.6
 40
0.65
 40
0.7000000000000001
 40
0.7500000000000001
 40
0.8000000000000001
 40
0.8500000000000001
 40
0.9000000000000001
 40
0.9500000000000003
 40
1.0
 40
1.0
 40
1.0
 40
1.0
 40
1.0
 40
1.0
 10
2.850000042468309
 20
3.150000046938657
 30
0.0
 41
1.0
 10
2.846627185601731
 20
3.14944527553343
 30
0.0
 41
1.0
 10
2.840347188166284
 20
3.147580007390921
 30
0.0
 41
1.0
 10
2.832324431488812
 20
3.142514778309383
 30
0.0
 41
1.0
 10
2.824432523527847
 20
3.131209282239538
 30
0.0
 41
1.0
 10
2.819162838401979
 20
3.109638789168402
 30
0.0
 41
1.0
 10
2.818114203738677
 20
3.081291777035708
 30
0.0
 41
1.0
 10
2.820467317965282
 20
3.04760720928346
 30
0.0
 41
1.0
 10
2.824694145933556
 20
3.011251139104674
 30
0.0
 41
1.0
 10
2.828743279764079
 20
2.975819693446848
 30
0.0
 41
1.0
 10
2.830459947001063
 20
2.945150631321564
 30
0.0
 41
1.0
 10
2.827948146981936
 20
2.922733665889811
 30
0.0
 41
1.0
 10
2.819921322987358
 20
2.911135533653534
 30
0.0
 41
1.0
 10
2.80616726134245
 20
2.91124621252168
 30
0.0
 41
1.0
 10
2.787651606924316
 20
2.922090471624532
 30
0.0
 41
1.0
 10
2.766001781905504
 20
2.941611652353642
 30
0.0
 41
1.0
 10
2.743139809582802
 20
2.967216479843247
 30
0.0
 41
1.0
 10
2.720886571383735
 20
2.996365353568648
 30
0.0
 41
1.0
 10
2.700526995384847
 20
3.027208182056377
 30
0.0
 41
1.0
 10
2.682853536790923
 20
3.058550498654815
 30
0.0
 41
1.0
 10
2.668305601207626
 20
3.089681074417725
 30
0.0
 41
1.0
 10
2.659314192786005
 20
3.114140965976644
 30
0.0
 41
1.0
 10
2.654074643198971
 20
3.132186433362288
 30
0.0
 41
1.0
 10
2.651247291901152
 20
3.144084259085009
 30
0.0
 41
1.0
 10
2.650000039488077
 20
3.150000046938657
 30
0.0
 41
1.0
  0
ENDSEC
  0
SECTION
  2
OBJECTS
  0
DICTIONARY
  5
C
330
0
100
AcDbDictionary
281
     1
  3
ACAD_COLOR
350
63
  3
ACAD_DETAILVIEWSTYLE
350
6A
  3
ACAD_GROUP
350
D
  3
ACAD_LAYOUT
350
62
  3
ACAD_MATERIAL
350
10
  3
ACAD_MLEADERSTYLE
350
66
  3
ACAD_MLINESTYLE
350
5F
  3
ACAD_PLOTSETTINGS
350
61
  3
ACAD_PLOTSTYLENAME
350
E
  3
ACAD_SCALELIST
350
42
  3
ACAD_SECTIONVIEWSTYLE
350
68
  3
ACAD_TABLESTYLE
350
64
  3
ACAD_VISUALSTYLE
350
29
  3
ACDB_RECOMPOSE_DATA
350
B8
  3
AcDbVariableDictionary
350
B0
  0
DICTIONARY
  5
63
102
{ACAD_REACTORS
330
C
102
}
330
C
100
AcDbDictionary
281
     1
  0
DICTIONARY
  5
6A
102
{ACAD_REACTORS
330
C
102
}
330
C
100
AcDbDictionary
281
     1
  3
Imperial24
350
6B
  0
DICTIONARY
  5
D
102
{ACAD_REACTORS
330
C
102
}
330
C
100
AcDbDictionary
281
     1
  0
DICTIONARY
  5
62
102
{ACAD_REACTORS
330
C
102
}
330
C
100
AcDbDictionary
281
     1
  3
Layout1
350
6F
  3
Layout2
350
77
  3
Model
350
73
  0
DICTIONARY
  5
10
102
{ACAD_REACTORS
330
C
102
}
330
C
100
AcDbDictionary
281
     1
  3
ByBlock
350
19
  3
ByLayer
350
11
  3
Global
350
21
  0
DICTIONARY
  5
66
102
{ACAD_REACTORS
330
C
102
}
330
C
100
AcDbDictionary
281
     1
  3
Standard
350
67
  0
DICTIONARY
  5
5F
102
{ACAD_REACTORS
330
C
102
}
330
C
100
AcDbDictionary
281
     1
  3
Standard
350
60
  0
DICTIONARY
  5
61
102
{ACAD_REACTORS
330
C
102
}
330
C
100
AcDbDictionary
281
     1
  0
ACDBDICTIONARYWDFLT
  5
E
102
{ACAD_REACTORS
330
C
102
}
330
C
100
AcDbDictionary
281
     1
  3
Normal
350
F
100
AcDbDictionaryWithDefault
340
F
  0
DICTIONARY
  5
42
102
{ACAD_REACTORS
330
C
102
}
330
C
100
AcDbDictionary
281
     1
  3
A0
350
43
  3
A1
350
44
  3
A2
350
45
  3
A3
350
46
  3
A4
350
47
  3
A5
350
48
  3
A6
350
49
  3
A7
350
4A
  3
A8
350
4B
  3
A9
350
4C
  3
B0
350
4D
  3
B1
350
4E
  3
B2
350
4F
  3
B3
350
50
  3
B4
350
51
  3
B5
350
52
  3
B6
350
53
  0
DICTIONARY
  5
68
102
{ACAD_REACTORS
330
C
102
}
330
C
100
AcDbDictionary
281
     1
  3
Imperial24
350
69
  0
DICTIONARY
  5
64
102
{ACAD_REACTORS
330
C
102
}
330
C
100
AcDbDictionary
281
     1
  3
Standard
350
65
  0
DICTIONARY
  5
29
102
{ACAD_REACTORS
330
C
102
}
330
C
100
AcDbDictionary
281
     1
  3
2dWireframe
350
2F
  3
Basic
350
2E
  3
Brighten
350
35
  3
ColorChange
350
39
  3
Conceptual
350
32
  3
Dim
350
34
  3
EdgeColorOff
350
41
  3
Facepattern
350
38
  3
Flat
350
2A
  3
FlatWithEdges
350
2B
  3
Gouraud
350
2C
  3
GouraudWithEdges
350
2D
  3
Hidden
350
31
  3
JitterOff
350
3F
  3
Linepattern
350
37
  3
OverhangOff
350
40
  3
Realistic
350
33
  3
Shaded
350
3E
  3
Shaded with edges
350
3D
  3
Shades of Gray
350
3A
  3
Sketchy
350
3B
  3
Thicken
350
36
  3
Wireframe
350
30
  3
X-Ray
350
3C
  0
XRECORD
  5
B8
102
{ACAD_REACTORS
330
C
102
}
330
C
100
AcDbXrecord
280
     1
 90
        1
330
65
  0
DICTIONARY
  5
B0
102
{ACAD_REACTORS
330
C
102
}
330
C
100
AcDbDictionary
281
     1
  3
CANNOSCALE
350
B5
  3
CMLEADERSTYLE
350
B2
  3
CTABLESTYLE
350
B1
  3
CVIEWDETAILSTYLE
350
B3
  3
CVIEWSECTIONSTYLE
350
B4
  0
ACDBDETAILVIEWSTYLE
  5
6B
102
{ACAD_XDICTIONARY
360
BB
102
}
102
{ACAD_REACTORS
330
6A
102
}
330
6A
100
AcDbModelDocViewStyle
 70
     0
  3
Imperial24
290
     0
100
AcDbDetailViewStyle
 70
     0
 71
     0
 90
        3
 71
     1
340
55
 62
   256
 40
0.24
340
0
 62
   256
 40
0.24
300

 40
0.36
280
     3
 71
     2
340
5D
 90
       25
 62
   256
 71
     3
340
55
 62
   256
 40
0.24
 90
        1
 40
0.75
 90
        1
300
%<\AcVar ViewType \f "%tc1">% %<\AcVar ViewDetailId>%\PSCALE %<\AcVar ViewScale \f "%sn">%
 71
     4
340
5D
 90
       25
 62
   256
340
5D
 90
       25
 62
   256
280
     0
  0
LAYOUT
  5
6F
102
{ACAD_REACTORS
330
62
102
}
330
62
100
AcDbPlotSettings
  1

  2

  4

  6

 40
0.0
 41
0.0
 42
0.0
 43
0.0
 44
0.0
 45
0.0
 46
0.0
 47
0.0
 48
0.0
 49
0.0
140
0.0
141
0.0
142
1.0
143
1.0
 70
   688
 72
     0
 73
     0
 74
     5
  7

 75
    16
147
1.0
 76
     0
 77
     2
 78
   300
148
0.0
149
0.0
100
AcDbLayout
  1
Layout1
 70
     1
 71
     1
 10
0.0
 20
0.0
 11
12.0
 21
9.0
 12
0.0
 22
0.0
 32
0.0
 14
0.0
 24
0.0
 34
0.0
 15
0.0
 25
0.0
 35
0.0
146
0.0
 13
0.0
 23
0.0
 33
0.0
 16
1.0
 26
0.0
 36
0.0
 17
0.0
 27
1.0
 37
0.0
 76
     0
330
6C
  0
LAYOUT
  5
77
102
{ACAD_REACTORS
330
62
102
}
330
62
100
AcDbPlotSettings
  1

  2

  4

  6

 40
0.0
 41
0.0
 42
0.0
 43
0.0
 44
0.0
 45
0.0
 46
0.0
 47
0.0
 48
0.0
 49
0.0
140
0.0
141
0.0
142
1.0
143
1.0
 70
   688
 72
     0
 73
     0
 74
     5
  7

 75
    16
147
1.0
 76
     0
 77
     2
 78
   300
148
0.0
149
0.0
100
AcDbLayout
  1
Layout2
 70
     1
 71
     2
 10
0.0
 20
0.0
 11
12.0
 21
9.0
 12
0.0
 22
0.0
 32
0.0
 14
0.0
 24
0.0
 34
0.0
 15
0.0
 25
0.0
 35
0.0
146
0.0
 13
0.0
 23
0.0
 33
0.0
 16
1.0
 26
0.0
 36
0.0
 17
0.0
 27
1.0
 37
0.0
 76
     0
330
74
  0
LAYOUT
  5
73
102
{ACAD_REACTORS
330
62
102
}
330
62
100
AcDbPlotSettings
  1

  2

  4

  6

 40
0.0
 41
0.0
 42
0.0
 43
0.0
 44
0.0
 45
0.0
 46
0.0
 47
0.0
 48
0.0
 49
0.0
140
0.0
141
0.0
142
1.0
143
1.0
 70
  1712
 72
     0
 73
     0
 74
     0
  7

 75
     0
147
1.0
 76
     0
 77
     2
 78
   300
148
0.0
149
0.0
100
AcDbLayout
  1
Model
 70
     1
 71
     0
 10
0.0
 20
0.0
 11
12.0
 21
9.0
 12
0.0
 22
0.0
 32
0.0
 14
0.0
 24
0.0
 34
0.0
 15
0.0
 25
0.0
 35
0.0
146
0.0
 13
0.0
 23
0.0
 33
0.0
 16
1.0
 26
0.0
 36
0.0
 17
0.0
 27
1.0
 37
0.0
 76
     0
330
70
  0
MATERIAL
  5
19
102
{ACAD_XDICTIONARY
360
1A
102
}
102
{ACAD_REACTORS
330
10
102
}
330
10
100
AcDbMaterial
  1
ByBlock
 72
     0
 43
0.0208333333333333
 43
0.0
 43
0.0
 43
0.0
 43
0.0
 43
0.0208333333333333
 43
0.0
 43
0.0
 43
0.0
 43
0.0
 43
1.0
 43
0.0
 43
0.0
 43
0.0
 43
0.0
 43
1.0
 77
     0
 47
0.0208333333333333
 47
0.0
 47
0.0
 47
0.0
 47
0.0
 47
0.0208333333333333
 47
0.0
 47
0.0
 47
0.0
 47
0.0
 47
1.0
 47
0.0
 47
0.0
 47
0.0
 47
0.0
 47
1.0
171
     0
 49
0.0208333333333333
 49
0.0
 49
0.0
 49
0.0
 49
0.0
 49
0.0208333333333333
 49
0.0
 49
0.0
 49
0.0
 49
0.0
 49
1.0
 49
0.0
 49
0.0
 49
0.0
 49
0.0
 49
1.0
175
     0
142
0.0208333333333333
142
0.0
142
0.0
142
0.0
142
0.0
142
0.0208333333333333
142
0.0
142
0.0
142
0.0
142
0.0
142
1.0
142
0.0
142
0.0
142
0.0
142
0.0
142
1.0
179
     0
144
0.0208333333333333
144
0.0
144
0.0
144
0.0
144
0.0
144
0.0208333333333333
144
0.0
144
0.0
144
0.0
144
0.0
144
1.0
144
0.0
144
0.0
144
0.0
144
0.0
144
1.0
147
0.0208333333333333
147
0.0
147
0.0
147
0.0
147
0.0
147
0.0208333333333333
147
0.0
147
0.0
147
0.0
147
0.0
147
1.0
147
0.0
147
0.0
147
0.0
147
0.0
147
1.0
  0
MATERIAL
  5
11
102
{ACAD_XDICTIONARY
360
12
102
}
102
{ACAD_REACTORS
330
10
102
}
330
10
100
AcDbMaterial
  1
ByLayer
 72
     0
 43
0.0208333333333333
 43
0.0
 43
0.0
 43
0.0
 43
0.0
 43
0.0208333333333333
 43
0.0
 43
0.0
 43
0.0
 43
0.0
 43
1.0
 43
0.0
 43
0.0
 43
0.0
 43
0.0
 43
1.0
 77
     0
 47
0.0208333333333333
 47
0.0
 47
0.0
 47
0.0
 47
0.0
 47
0.0208333333333333
 47
0.0
 47
0.0
 47
0.0
 47
0.0
 47
1.0
 47
0.0
 47
0.0
 47
0.0
 47
0.0
 47
1.0
171
     0
 49
0.0208333333333333
 49
0.0
 49
0.0
 49
0.0
 49
0.0
 49
0.0208333333333333
 49
0.0
 49
0.0
 49
0.0
 49
0.0
 49
1.0
 49
0.0
 49
0.0
 49
0.0
 49
0.0
 49
1.0
175
     0
142
0.0208333333333333
142
0.0
142
0.0
142
0.0
142
0.0
142
0.0208333333333333
142
0.0
142
0.0
142
0.0
142
0.0
142
1.0
142
0.0
142
0.0
142
0.0
142
0.0
142
1.0
179
     0
144
0.0208333333333333
144
0.0
144
0.0
144
0.0
144
0.0
144
0.0208333333333333
144
0.0
144
0.0
144
0.0
144
0.0
144
1.0
144
0.0
144
0.0
144
0.0
144
0.0
144
1.0
147
0.0208333333333333
147
0.0
147
0.0
147
0.0
147
0.0
147
0.0208333333333333
147
0.0
147
0.0
147
0.0
147
0.0
147
1.0
147
0.0
147
0.0
147
0.0
147
0.0
147
1.0
  0
MATERIAL
  5
21
102
{ACAD_XDICTIONARY
360
22
102
}
102
{ACAD_REACTORS
330
10
102
}
330
10
100
AcDbMaterial
  1
Global
 72
     0
 43
0.0208333333333333
 43
0.0
 43
0.0
 43
0.0
 43
0.0
 43
0.0208333333333333
 43
0.0
 43
0.0
 43
0.0
 43
0.0
 43
1.0
 43
0.0
 43
0.0
 43
0.0
 43
0.0
 43
1.0
 77
     0
 47
0.0208333333333333
 47
0.0
 47
0.0
 47
0.0
 47
0.0
 47
0.0208333333333333
 47
0.0
 47
0.0
 47
0.0
 47
0.0
 47
1.0
 47
0.0
 47
0.0
 47
0.0
 47
0.0
 47
1.0
171
     0
 49
0.0208333333333333
 49
0.0
 49
0.0
 49
0.0
 49
0.0
 49
0.0208333333333333
 49
0.0
 49
0.0
 49
0.0
 49
0.0
 49
1.0
 49
0.0
 49
0.0
 49
0.0
 49
0.0
 49
1.0
175
     0
142
0.0208333333333333
142
0.0
142
0.0
142
0.0
142
0.0
142
0.0208333333333333
142
0.0
142
0.0
142
0.0
142
0.0
142
1.0
142
0.0
142
0.0
142
0.0
142
0.0
142
1.0
179
     0
144
0.0208333333333333
144
0.0
144
0.0
144
0.0
144
0.0
144
0.0208333333333333
144
0.0
144
0.0
144
0.0
144
0.0
144
1.0
144
0.0
144
0.0
144
0.0
144
0.0
144
1.0
147
0.0208333333333333
147
0.0
147
0.0
147
0.0
147
0.0
147
0.0208333333333333
147
0.0
147
0.0
147
0.0
147
0.0
147
1.0
147
0.0
147
0.0
147
0.0
147
0.0
147
1.0
  0
MLEADERSTYLE
  5
67
102
{ACAD_REACTORS
330
66
102
}
330
66
100
AcDbMLeaderStyle
179
     2
170
     2
171
     1
172
     0
 90
        2
 40
0.0
 41
0.0
173
     1
 91
-1056964608
340
5B
 92
       -2
290
     1
 42
0.09
291
     1
 43
0.36
  3
Standard
 44
0.18
300

342
55
174
     1
178
     6
175
     1
176
     0
 93
-1056964608
 45
0.18
292
     0
297
     0
 46
0.18
 94
-1056964608
 47
1.0
 49
1.0
140
1.0
293
     1
141
0.0
294
     1
177
     0
142
1.0
295
     0
296
     0
143
0.125
271
     0
272
     9
273
     9
298
     1
  0
MLINESTYLE
  5
60
102
{ACAD_REACTORS
330
5F
102
}
330
5F
100
AcDbMlineStyle
  2
STANDARD
 70
     0
  3

 62
   256
 51
90.0
 52
90.0
 71
     2
 49
0.5
 62
   256
  6
BYLAYER
 49
-0.5
 62
   256
  6
BYLAYER
  0
ACDBPLACEHOLDER
  5
F
102
{ACAD_REACTORS
330
E
102
}
330
E
  0
SCALE
  5
43
102
{ACAD_REACTORS
330
42
102
}
330
42
100
AcDbScale
 70
     0
300
1:1
140
1.0
141
1.0
290
     1
  0
SCALE
  5
44
102
{ACAD_REACTORS
330
42
102
}
330
42
100
AcDbScale
 70
     0
300
1/128" = 1'-0"
140
0.0078125
141
12.0
290
     0
  0
SCALE
  5
45
102
{ACAD_REACTORS
330
42
102
}
330
42
100
AcDbScale
 70
     0
300
1/64" = 1'-0"
140
0.015625
141
12.0
290
     0
  0
SCALE
  5
46
102
{ACAD_REACTORS
330
42
102
}
330
42
100
AcDbScale
 70
     0
300
1/32" = 1'-0"
140
0.03125
141
12.0
290
     0
  0
SCALE
  5
47
102
{ACAD_REACTORS
330
42
102
}
330
42
100
AcDbScale
 70
     0
300
1/16" = 1'-0"
140
0.0625
141
12.0
290
     0
  0
SCALE
  5
48
102
{ACAD_REACTORS
330
42
102
}
330
42
100
AcDbScale
 70
     0
300
3/32" = 1'-0"
140
0.09375
141
12.0
290
     0
  0
SCALE
  5
49
102
{ACAD_REACTORS
330
42
102
}
330
42
100
AcDbScale
 70
     0
300
1/8" = 1'-0"
140
0.125
141
12.0
290
     0
  0
SCALE
  5
4A
102
{ACAD_REACTORS
330
42
102
}
330
42
100
AcDbScale
 70
     0
300
3/16" = 1'-0"
140
0.1875
141
12.0
290
     0
  0
SCALE
  5
4B
102
{ACAD_REACTORS
330
42
102
}
330
42
100
AcDbScale
 70
     0
300
1/4" = 1'-0"
140
0.25
141
12.0
290
     0
  0
SCALE
  5
4C
102
{ACAD_REACTORS
330
42
102
}
330
42
100
AcDbScale
 70
     0
300
3/8" = 1'-0"
140
0.375
141
12.0
290
     0
  0
SCALE
  5
4D
102
{ACAD_REACTORS
330
42
102
}
330
42
100
AcDbScale
 70
     0
300
1/2" = 1'-0"
140
0.5
141
12.0
290
     0
  0
SCALE
  5
4E
102
{ACAD_REACTORS
330
42
102
}
330
42
100
AcDbScale
 70
     0
300
3/4" = 1'-0"
140
0.75
141
12.0
290
     0
  0
SCALE
  5
4F
102
{ACAD_REACTORS
330
42
102
}
330
42
100
AcDbScale
 70
     0
300
1" = 1'-0"
140
1.0
141
12.0
290
     0
  0
SCALE
  5
50
102
{ACAD_REACTORS
330
42
102
}
330
42
100
AcDbScale
 70
     0
300
1-1/2" = 1'-0"
140
1.5
141
12.0
290
     0
  0
SCALE
  5
51
102
{ACAD_REACTORS
330
42
102
}
330
42
100
AcDbScale
 70
     0
300
3" = 1'-0"
140
3.0
141
12.0
290
     0
  0
SCALE
  5
52
102
{ACAD_REACTORS
330
42
102
}
330
42
100
AcDbScale
 70
     0
300
6" = 1'-0"
140
6.0
141
12.0
290
     0
  0
SCALE
  5
53
102
{ACAD_REACTORS
330
42
102
}
330
42
100
AcDbScale
 70
     0
300
1'-0" = 1'-0"
140
12.0
141
12.0
290
     0
  0
ACDBSECTIONVIEWSTYLE
  5
69
102
{ACAD_XDICTIONARY
360
B9
102
}
102
{ACAD_REACTORS
330
68
102
}
330
68
100
AcDbModelDocViewStyle
 70
     0
  3
Imperial24
290
     0
100
AcDbSectionViewStyle
 70
     0
 71
     0
 90
       78
 71
     1
340
55
 62
   256
 40
0.24
340
0
340
0
 62
   256
 40
0.24
300
I, O, Q, S, X, Z
 40
0.48
 90
        3
 40
0.18
 90
        1
 71
     2
340
5D
 90
       25
 62
   256
340
5D
 90
       50
 62
   256
 40
0.24
 40
0.0
 40
0.24
 71
     3
340
55
 62
   256
 40
0.24
 90
        1
 40
0.75
 90
        1
300
%<\AcVar ViewType \f "%tc1">% %<\AcVar ViewSectionStartId>%-%<\AcVar ViewSectionEndId>%\PSCALE %<\AcVar ViewScale \f "%sn">%
 71
     4
 62
   256
 62
   257
300
ANSI31
 40
1.0
 90
        0
290
     0
290
     0
 90
        6
 40
0.0
 40
1.570796326794896
 40
0.2617993877991494
 40
1.308996938995747
 40
-0.2617993877991494
 40
1.832595714594046
  0
TABLESTYLE
  5
65
102
{ACAD_XDICTIONARY
360
B6
102
}
102
{ACAD_REACTORS
330
64
102
}
330
64
100
AcDbTableStyle
280
     0
  3
Standard
 70
     0
 71
     0
 40
0.06
 41
0.06
280
     0
281
     0
  7
Standard
140
0.18
170
     2
 62
     0
 63
     7
283
     0
 90
      512
 91
        0
  1

274
    -2
284
     1
 64
     0
275
    -2
285
     1
 65
     0
276
    -2
286
     1
 66
     0
277
    -2
287
     1
 67
     0
278
    -2
288
     1
 68
     0
279
    -2
289
     1
 69
     0
  7
Standard
140
0.25
170
     5
 62
     0
 63
     7
283
     0
 90
      512
 91
        0
  1

274
    -2
284
     1
 64
     0
275
    -2
285
     1
 65
     0
276
    -2
286
     1
 66
     0
277
    -2
287
     1
 67
     0
278
    -2
288
     1
 68
     0
279
    -2
289
     1
 69
     0
  7
Standard
140
0.18
170
     5
 62
     0
 63
     7
283
     0
 90
      512
 91
        0
  1

274
    -2
284
     1
 64
     0
275
    -2
285
     1
 65
     0
276
    -2
286
     1
 66
     0
277
    -2
287
     1
 67
     0
278
    -2
288
     1
 68
     0
279
    -2
289
     1
 69
     0
  0
VISUALSTYLE
  5
2F
102
{ACAD_REACTORS
330
29
102
}
330
29
100
AcDbVisualStyle
  2
2dWireframe
 70
     4
177
     3
291
     0
 70
    58
 90
        0
176
     1
 90
        2
176
     1
 90
        0
176
     1
 90
        0
176
     1
 40
0.6
176
     1
 40
30.0
176
     1
 62
     7
420
 16777215
176
     1
 90
        1
176
     1
 90
        4
176
     1
 62
     7
176
     1
 62
   257
176
     1
 90
        1
176
     1
 90
        1
176
     1
 40
1.0
176
     1
 90
        0
176
     1
 62
   257
176
     1
 40
1.0
176
     1
 90
        1
176
     1
 90
        6
176
     1
 90
        2
176
     1
 62
     7
176
     1
 90
        5
176
     1
 90
        0
176
     1
 90
        0
176
     1
290
     0
176
     1
 90
        1
176
     1
 40
0.0
176
     1
 90
        0
176
     1
290
     1
176
     1
290
     1
176
     1
290
     0
176
     1
290
     0
176
     1
290
     0
176
     1
290
     0
176
     1
290
     0
176
     1
290
     0
176
     1
290
     0
176
     1
 90
       50
176
     1
 40
0.0
176
     1
 40
1.0
176
     1
 90
        0
176
     1
 62
    18
420
        0
176
     1
 90
       50
176
     1
 90
        3
176
     1
 62
     5
420
      255
176
     1
290
     0
176
     1
 90
       50
176
     1
 90
       50
176
     1
 90
       50
176
     1
290
     0
176
     1
 90
       50
176
     1
 62
   256
176
     0
 40
1.0
176
     0
 90
        2
176
     1
  1
strokes_ogs.tif
176
     1
290
     0
176
     1
 40
1.0
176
     1
 40
1.0
176
     1
1001
ACAD
1000
AcDbSavedByObjectVersion
1070
     0
  0
VISUALSTYLE
  5
2E
102
{ACAD_REACTORS
330
29
102
}
330
29
100
AcDbVisualStyle
  2
Basic
 70
     7
177
     3
291
     1
 70
    58
 90
        1
176
     1
 90
        0
176
     1
 90
        1
176
     1
 90
        0
176
     1
 40
0.6
176
     1
 40
30.0
176
     1
 62
     7
420
 16777215
176
     1
 90
        0
176
     1
 90
        4
176
     1
 62
     7
176
     1
 62
   257
176
     1
 90
        1
176
     1
 90
        1
176
     1
 40
1.0
176
     1
 90
        8
176
     1
 62
     7
176
     1
 40
1.0
176
     1
 90
        1
176
     1
 90
        6
176
     1
 90
        2
176
     1
 62
     7
176
     1
 90
        5
176
     1
 90
        0
176
     1
 90
        0
176
     1
290
     0
176
     1
 90
        1
176
     1
 40
0.0
176
     1
 90
        0
176
     1
290
     0
176
     1
290
     1
176
     1
290
     1
176
     1
290
     0
176
     1
290
     0
176
     1
290
     0
176
     1
290
     0
176
     1
290
     0
176
     1
290
     0
176
     1
 90
       50
176
     1
 40
0.0
176
     1
 40
1.0
176
     1
 90
        0
176
     1
 62
    18
420
        0
176
     1
 90
       50
176
     1
 90
        3
176
     1
 62
     5
420
      255
176
     1
290
     0
176
     1
 90
       50
176
     1
 90
       50
176
     1
 90
       50
176
     1
290
     0
176
     1
 90
       50
176
     1
 62
   256
176
     0
 40
1.0
176
     0
 90
        2
176
     1
  1
strokes_ogs.tif
176
     1
290
     0
176
     1
 40
1.0
176
     1
 40
1.0
176
     1
1001
ACAD
1000
AcDbSavedByObjectVersion
1070
     0
  0
VISUALSTYLE
  5
35
102
{ACAD_REACTORS
330
29
102
}
330
29
100
AcDbVisualStyle
  2
Brighten
 70
    12
177
     3
291
     1
 70
    58
 90
        2
176
     1
 90
        2
176
     1
 90
        0
176
     1
 90
        0
176
     1
 40
0.6
176
     1
 40
30.0
176
     1
 62
     7
420
 16777215
176
     1
 90
        1
176
     1
 90
        4
176
     1
 62
     7
176
     1
 62
   257
176
     1
 90
        1
176
     1
 90
        1
176
     1
 40
1.0
176
     1
 90
        8
176
     1
 62
     7
176
     1
 40
1.0
176
     1
 90
        1
176
     1
 90
        6
176
     1
 90
        2
176
     1
 62
     7
176
     1
 90
        5
176
     1
 90
        0
176
     1
 90
        0
176
     1
290
     0
176
     1
 90
        1
176
     1
 40
50.0
176
     1
 90
        0
176
     1
290
     0
176
     1
290
     1
176
     1
290
     1
176
     1
290
     0
176
     1
290
     0
176
     1
290
     0
176
     1
290
     0
176
     1
290
     0
176
     1
290
     0
176
     1
 90
       50
176
     1
 40
0.0
176
     1
 40
1.0
176
     1
 90
        0
176
     1
 62
    18
420
        0
176
     1
 90
       50
176
     1
 90
        3
176
     1
 62
     5
420
      255
176
     1
290
     0
176
     1
 90
       50
176
     1
 90
       50
176
     1
 90
       50
176
     1
290
     0
176
     1
 90
       50
176
     1
 62
   256
176
     0
 40
1.0
176
     0
 90
        2
176
     1
  1
strokes_ogs.tif
176
     1
290
     0
176
     1
 40
1.0
176
     1
 40
1.0
176
     1
1001
ACAD
1000
AcDbSavedByObjectVersion
1070
     0
  0
VISUALSTYLE
  5
39
102
{ACAD_REACTORS
330
29
102
}
330
29
100
AcDbVisualStyle
  2
ColorChange
 70
    16
177
     3
291
     1
 70
    58
 90
        2
176
     1
 90
        2
176
     1
 90
        3
176
     1
 90
        0
176
     1
 40
0.6
176
     1
 40
30.0
176
     1
 62
     8
420
  8421504
176
     1
 90
        1
176
     1
 90
        4
176
     1
 62
     7
176
     1
 62
   257
176
     1
 90
        1
176
     1
 90
        1
176
     1
 40
1.0
176
     1
 90
        8
176
     1
 62
     8
420
  8421504
176
     1
 40
1.0
176
     1
 90
        1
176
     1
 90
        6
176
     1
 90
        2
176
     1
 62
     7
176
     1
 90
        5
176
     1
 90
        0
176
     1
 90
        0
176
     1
290
     0
176
     1
 90
        1
176
     1
 40
0.0
176
     1
 90
        0
176
     1
290
     0
176
     1
290
     1
176
     1
290
     1
176
     1
290
     0
176
     1
290
     0
176
     1
290
     0
176
     1
290
     0
176
     1
290
     0
176
     1
290
     0
176
     1
 90
       50
176
     1
 40
0.0
176
     1
 40
1.0
176
     1
 90
        0
176
     1
 62
    18
420
        0
176
     1
 90
       50
176
     1
 90
        3
176
     1
 62
     5
420
      255
176
     1
290
     0
176
     1
 90
       50
176
     1
 90
       50
176
     1
 90
       50
176
     1
290
     0
176
     1
 90
       50
176
     1
 62
   256
176
     0
 40
1.0
176
     0
 90
        2
176
     1
  1
strokes_ogs.tif
176
     1
290
     0
176
     1
 40
1.0
176
     1
 40
1.0
176
     1
1001
ACAD
1000
AcDbSavedByObjectVersion
1070
     0
  0
VISUALSTYLE
  5
32
102
{ACAD_REACTORS
330
29
102
}
330
29
100
AcDbVisualStyle
  2
Conceptual
 70
     9
177
     3
291
     0
 70
    58
 90
        3
176
     1
 90
        2
176
     1
 90
        0
176
     1
 90
        0
176
     1
 40
0.6
176
     1
 40
30.0
176
     1
 62
     7
420
 16777215
176
     1
 90
        2
176
     1
 90
        2
176
     1
 62
     7
176
     1
 62
   257
176
     1
 90
        1
176
     1
 90
        1
176
     1
 40
179.0
176
     1
 90
        8
176
     1
 62
     7
176
     1
 40
1.0
176
     1
 90
        1
176
     1
 90
        6
176
     1
 90
        2
176
     1
 62
     7
176
     1
 90
        3
176
     1
 90
        0
176
     1
 90
        0
176
     1
290
     0
176
     1
 90
        1
176
     1
 40
0.0
176
     1
 90
        0
176
     1
290
     0
176
     1
290
     1
176
     1
290
     1
176
     1
290
     0
176
     1
290
     0
176
     1
290
     0
176
     1
290
     0
176
     1
290
     0
176
     1
290
     0
176
     1
 90
       50
176
     1
 40
0.0
176
     1
 40
1.0
176
     1
 90
        0
176
     1
 62
    18
420
        0
176
     1
 90
       50
176
     1
 90
        3
176
     1
 62
     5
420
      255
176
     1
290
     0
176
     1
 90
       50
176
     1
 90
       50
176
     1
 90
       50
176
     1
290
     0
176
     1
 90
       50
176
     1
 62
   256
176
     0
 40
1.0
176
     0
 90
        2
176
     1
  1
strokes_ogs.tif
176
     1
290
     0
176
     1
 40
1.0
176
     1
 40
1.0
176
     1
1001
ACAD
1000
AcDbSavedByObjectVersion
1070
     0
  0
VISUALSTYLE
  5
34
102
{ACAD_REACTORS
330
29
102
}
330
29
100
AcDbVisualStyle
  2
Dim
 70
    11
177
     3
291
     1
 70
    58
 90
        2
176
     1
 90
        2
176
     1
 90
        0
176
     1
 90
        0
176
     1
 40
0.6
176
     1
 40
30.0
176
     1
 62
     7
420
 16777215
176
     1
 90
        1
176
     1
 90
        4
176
     1
 62
     7
176
     1
 62
   257
176
     1
 90
        1
176
     1
 90
        1
176
     1
 40
1.0
176
     1
 90
        8
176
     1
 62
     7
176
     1
 40
1.0
176
     1
 90
        1
176
     1
 90
        6
176
     1
 90
        2
176
     1
 62
     7
176
     1
 90
        5
176
     1
 90
        0
176
     1
 90
        0
176
     1
290
     0
176
     1
 90
        1
176
     1
 40
-50.0
176
     1
 90
        0
176
     1
290
     0
176
     1
290
     1
176
     1
290
     1
176
     1
290
     0
176
     1
290
     0
176
     1
290
     0
176
     1
290
     0
176
     1
290
     0
176
     1
290
     0
176
     1
 90
       50
176
     1
 40
0.0
176
     1
 40
1.0
176
     1
 90
        0
176
     1
 62
    18
420
        0
176
     1
 90
       50
176
     1
 90
        3
176
     1
 62
     5
420
      255
176
     1
290
     0
176
     1
 90
       50
176
     1
 90
       50
176
     1
 90
       50
176
     1
290
     0
176
     1
 90
       50
176
     1
 62
   256
176
     0
 40
1.0
176
     0
 90
        2
176
     1
  1
strokes_ogs.tif
176
     1
290
     0
176
     1
 40
1.0
176
     1
 40
1.0
176
     1
1001
ACAD
1000
AcDbSavedByObjectVersion
1070
     0
  0
VISUALSTYLE
  5
41
102
{ACAD_REACTORS
330
29
102
}
330
29
100
AcDbVisualStyle
  2
EdgeColorOff
 70
    22
177
     3
291
     1
 70
    58
 90
        2
176
     0
 90
        2
176
     0
 90
        0
176
     0
 90
        0
176
     0
 40
0.6
176
     0
 40
30.0
176
     0
 62
     7
420
 16777215
176
     0
 90
        1
176
     0
 90
        4
176
     0
 62
     7
176
     0
 62
   257
176
     0
 90
        1
176
     0
 90
        1
176
     0
 40
1.0
176
     0
 90
        8
176
     2
 62
     7
176
     0
 40
1.0
176
     0
 90
        1
176
     0
 90
        6
176
     0
 90
        2
176
     0
 62
     7
176
     0
 90
        5
176
     0
 90
        0
176
     0
 90
        0
176
     0
290
     0
176
     0
 90
        1
176
     0
 40
0.0
176
     0
 90
        0
176
     0
290
     0
176
     0
290
     1
176
     0
290
     1
176
     0
290
     0
176
     0
290
     0
176
     0
290
     0
176
     0
290
     0
176
     0
290
     0
176
     0
290
     0
176
     0
 90
       50
176
     0
 40
0.0
176
     0
 40
1.0
176
     0
 90
        0
176
     0
 62
    18
420
        0
176
     0
 90
       50
176
     0
 90
        3
176
     0
 62
     5
420
      255
176
     0
290
     0
176
     0
 90
       50
176
     0
 90
       50
176
     0
 90
       50
176
     0
290
     0
176
     0
 90
       50
176
     0
 62
   256
176
     0
 40
1.0
176
     0
 90
        2
176
     0
  1
strokes_ogs.tif
176
     0
290
     0
176
     0
 40
1.0
176
     0
 40
1.0
176
     0
1001
ACAD
1000
AcDbSavedByObjectVersion
1070
     0
  0
VISUALSTYLE
  5
38
102
{ACAD_REACTORS
330
29
102
}
330
29
100
AcDbVisualStyle
  2
Facepattern
 70
    15
177
     3
291
     1
 70
    58
 90
        2
176
     1
 90
        2
176
     1
 90
        0
176
     1
 90
        0
176
     1
 40
0.6
176
     1
 40
30.0
176
     1
 62
     7
420
 16777215
176
     1
 90
        1
176
     1
 90
        4
176
     1
 62
     7
176
     1
 62
   257
176
     1
 90
        1
176
     1
 90
        1
176
     1
 40
1.0
176
     1
 90
        8
176
     1
 62
     7
176
     1
 40
1.0
176
     1
 90
        1
176
     1
 90
        6
176
     1
 90
        2
176
     1
 62
     7
176
     1
 90
        5
176
     1
 90
        0
176
     1
 90
        0
176
     1
290
     0
176
     1
 90
        1
176
     1
 40
0.0
176
     1
 90
        0
176
     1
290
     0
176
     1
290
     1
176
     1
290
     1
176
     1
290
     0
176
     1
290
     0
176
     1
290
     0
176
     1
290
     0
176
     1
290
     0
176
     1
290
     0
176
     1
 90
       50
176
     1
 40
0.0
176
     1
 40
1.0
176
     1
 90
        0
176
     1
 62
    18
420
        0
176
     1
 90
       50
176
     1
 90
        3
176
     1
 62
     5
420
      255
176
     1
290
     0
176
     1
 90
       50
176
     1
 90
       50
176
     1
 90
       50
176
     1
290
     0
176
     1
 90
       50
176
     1
 62
   256
176
     0
 40
1.0
176
     0
 90
        2
176
     1
  1
strokes_ogs.tif
176
     1
290
     0
176
     1
 40
1.0
176
     1
 40
1.0
176
     1
1001
ACAD
1000
AcDbSavedByObjectVersion
1070
     0
  0
VISUALSTYLE
  5
2A
102
{ACAD_REACTORS
330
29
102
}
330
29
100
AcDbVisualStyle
  2
Flat
 70
     0
177
     3
291
     1
 70
    58
 90
        2
176
     1
 90
        1
176
     1
 90
        1
176
     1
 90
        2
176
     1
 40
0.6
176
     1
 40
30.0
176
     1
 62
     7
420
 16777215
176
     1
 90
        0
176
     1
 90
        0
176
     1
 62
     7
176
     1
 62
   257
176
     1
 90
        1
176
     1
 90
        1
176
     1
 40
1.0
176
     1
 90
        8
176
     1
 62
     7
176
     1
 40
1.0
176
     1
 90
        1
176
     1
 90
        6
176
     1
 90
        2
176
     1
 62
     7
176
     1
 90
        5
176
     1
 90
        0
176
     1
 90
        0
176
     1
290
     0
176
     1
 90
       13
176
     1
 40
0.0
176
     1
 90
        0
176
     1
290
     0
176
     1
290
     1
176
     1
290
     1
176
     1
290
     0
176
     1
290
     0
176
     1
290
     0
176
     1
290
     0
176
     1
290
     0
176
     1
290
     0
176
     1
 90
       50
176
     1
 40
0.0
176
     1
 40
1.0
176
     1
 90
        0
176
     1
 62
    18
420
        0
176
     1
 90
       50
176
     1
 90
        3
176
     1
 62
     5
420
      255
176
     1
290
     0
176
     1
 90
       50
176
     1
 90
       50
176
     1
 90
       50
176
     1
290
     0
176
     1
 90
       50
176
     1
 62
   256
176
     0
 40
1.0
176
     0
 90
        2
176
     1
  1
strokes_ogs.tif
176
     1
290
     0
176
     1
 40
1.0
176
     1
 40
1.0
176
     1
1001
ACAD
1000
AcDbSavedByObjectVersion
1070
     0
  0
VISUALSTYLE
  5
2B
102
{ACAD_REACTORS
330
29
102
}
330
29
100
AcDbVisualStyle
  2
FlatWithEdges
 70
     1
177
     3
291
     1
 70
    58
 90
        2
176
     1
 90
        1
176
     1
 90
        1
176
     1
 90
        2
176
     1
 40
0.6
176
     1
 40
30.0
176
     1
 62
     7
420
 16777215
176
     1
 90
        1
176
     1
 90
        0
176
     1
 62
     7
176
     1
 62
   257
176
     1
 90
        1
176
     1
 90
        1
176
     1
 40
1.0
176
     1
 90
        0
176
     1
 62
   257
176
     1
 40
1.0
176
     1
 90
        1
176
     1
 90
        6
176
     1
 90
        2
176
     1
 62
     7
176
     1
 90
        5
176
     1
 90
        0
176
     1
 90
        0
176
     1
290
     0
176
     1
 90
       13
176
     1
 40
0.0
176
     1
 90
        0
176
     1
290
     0
176
     1
290
     1
176
     1
290
     1
176
     1
290
     0
176
     1
290
     0
176
     1
290
     0
176
     1
290
     0
176
     1
290
     0
176
     1
290
     0
176
     1
 90
       50
176
     1
 40
0.0
176
     1
 40
1.0
176
     1
 90
        0
176
     1
 62
    18
420
        0
176
     1
 90
       50
176
     1
 90
        3
176
     1
 62
     5
420
      255
176
     1
290
     0
176
     1
 90
       50
176
     1
 90
       50
176
     1
 90
       50
176
     1
290
     0
176
     1
 90
       50
176
     1
 62
   256
176
     0
 40
1.0
176
     0
 90
        2
176
     1
  1
strokes_ogs.tif
176
     1
290
     0
176
     1
 40
1.0
176
     1
 40
1.0
176
     1
1001
ACAD
1000
AcDbSavedByObjectVersion
1070
     0
  0
VISUALSTYLE
  5
2C
102
{ACAD_REACTORS
330
29
102
}
330
29
100
AcDbVisualStyle
  2
Gouraud
 70
     2
177
     3
291
     1
 70
    58
 90
        2
176
     1
 90
        2
176
     1
 90
        1
176
     1
 90
        2
176
     1
 40
0.6
176
     1
 40
30.0
176
     1
 62
     7
420
 16777215
176
     1
 90
        0
176
     1
 90
        0
176
     1
 62
     7
176
     1
 62
   257
176
     1
 90
        1
176
     1
 90
        1
176
     1
 40
1.0
176
     1
 90
        0
176
     1
 62
     7
176
     1
 40
1.0
176
     1
 90
        1
176
     1
 90
        6
176
     1
 90
        2
176
     1
 62
     7
176
     1
 90
        5
176
     1
 90
        0
176
     1
 90
        0
176
     1
290
     0
176
     1
 90
       13
176
     1
 40
0.0
176
     1
 90
        0
176
     1
290
     0
176
     1
290
     1
176
     1
290
     1
176
     1
290
     0
176
     1
290
     0
176
     1
290
     0
176
     1
290
     0
176
     1
290
     0
176
     1
290
     0
176
     1
 90
       50
176
     1
 40
0.0
176
     1
 40
1.0
176
     1
 90
        0
176
     1
 62
    18
420
        0
176
     1
 90
       50
176
     1
 90
        3
176
     1
 62
     5
420
      255
176
     1
290
     0
176
     1
 90
       50
176
     1
 90
       50
176
     1
 90
       50
176
     1
290
     0
176
     1
 90
       50
176
     1
 62
   256
176
     0
 40
1.0
176
     0
 90
        2
176
     1
  1
strokes_ogs.tif
176
     1
290
     0
176
     1
 40
1.0
176
     1
 40
1.0
176
     1
1001
ACAD
1000
AcDbSavedByObjectVersion
1070
     0
  0
VISUALSTYLE
  5
2D
102
{ACAD_REACTORS
330
29
102
}
330
29
100
AcDbVisualStyle
  2
GouraudWithEdges
 70
     3
177
     3
291
     1
 70
    58
 90
        2
176
     1
 90
        2
176
     1
 90
        1
176
     1
 90
        2
176
     1
 40
0.6
176
     1
 40
30.0
176
     1
 62
     7
420
 16777215
176
     1
 90
        1
176
     1
 90
        0
176
     1
 62
     7
176
     1
 62
   257
176
     1
 90
        1
176
     1
 90
        1
176
     1
 40
1.0
176
     1
 90
        0
176
     1
 62
   257
176
     1
 40
1.0
176
     1
 90
        1
176
     1
 90
        6
176
     1
 90
        2
176
     1
 62
     7
176
     1
 90
        5
176
     1
 90
        0
176
     1
 90
        0
176
     1
290
     0
176
     1
 90
       13
176
     1
 40
0.0
176
     1
 90
        0
176
     1
290
     0
176
     1
290
     1
176
     1
290
     1
176
     1
290
     0
176
     1
290
     0
176
     1
290
     0
176
     1
290
     0
176
     1
290
     0
176
     1
290
     0
176
     1
 90
       50
176
     1
 40
0.0
176
     1
 40
1.0
176
     1
 90
        0
176
     1
 62
    18
420
        0
176
     1
 90
       50
176
     1
 90
        3
176
     1
 62
     5
420
      255
176
     1
290
     0
176
     1
 90
       50
176
     1
 90
       50
176
     1
 90
       50
176
     1
290
     0
176
     1
 90
       50
176
     1
 62
   256
176
     0
 40
1.0
176
     0
 90
        2
176
     1
  1
strokes_ogs.tif
176
     1
290
     0
176
     1
 40
1.0
176
     1
 40
1.0
176
     1
1001
ACAD
1000
AcDbSavedByObjectVersion
1070
     0
  0
VISUALSTYLE
  5
31
102
{ACAD_REACTORS
330
29
102
}
330
29
100
AcDbVisualStyle
  2
Hidden
 70
     6
177
     3
291
     0
 70
    58
 90
        1
176
     1
 90
        2
176
     1
 90
        2
176
     1
 90
        0
176
     1
 40
0.6
176
     1
 40
30.0
176
     1
 62
     7
420
 16777215
176
     1
 90
        2
176
     1
 90
        2
176
     1
 62
     7
176
     1
 62
   257
176
     1
 90
        2
176
     1
 90
        1
176
     1
 40
40.0
176
     1
 90
        0
176
     1
 62
   257
176
     1
 40
1.0
176
     1
 90
        1
176
     1
 90
        6
176
     1
 90
        2
176
     1
 62
     7
176
     1
 90
        3
176
     1
 90
        0
176
     1
 90
        0
176
     1
290
     0
176
     1
 90
        1
176
     1
 40
0.0
176
     1
 90
        0
176
     1
290
     0
176
     1
290
     1
176
     1
290
     1
176
     1
290
     0
176
     1
290
     0
176
     1
290
     0
176
     1
290
     0
176
     1
290
     0
176
     1
290
     0
176
     1
 90
       50
176
     1
 40
0.0
176
     1
 40
1.0
176
     1
 90
        0
176
     1
 62
    18
420
        0
176
     1
 90
       50
176
     1
 90
        3
176
     1
 62
     5
420
      255
176
     1
290
     0
176
     1
 90
       50
176
     1
 90
       50
176
     1
 90
       50
176
     1
290
     0
176
     1
 90
       50
176
     1
 62
   256
176
     0
 40
1.0
176
     0
 90
        2
176
     1
  1
strokes_ogs.tif
176
     1
290
     0
176
     1
 40
1.0
176
     1
 40
1.0
176
     1
1001
ACAD
1000
AcDbSavedByObjectVersion
1070
     0
  0
VISUALSTYLE
  5
3F
102
{ACAD_REACTORS
330
29
102
}
330
29
100
AcDbVisualStyle
  2
JitterOff
 70
    20
177
     3
291
     1
 70
    58
 90
        2
176
     0
 90
        2
176
     0
 90
        0
176
     0
 90
        0
176
     0
 40
0.6
176
     0
 40
30.0
176
     0
 62
     7
420
 16777215
176
     0
 90
        1
176
     0
 90
        4
176
     0
 62
     7
176
     0
 62
   257
176
     0
 90
        1
176
     0
 90
        1
176
     0
 40
1.0
176
     0
 90
       10
176
     2
 62
     7
176
     0
 40
1.0
176
     0
 90
        1
176
     0
 90
        6
176
     0
 90
        2
176
     0
 62
     7
176
     0
 90
        5
176
     0
 90
        0
176
     0
 90
        0
176
     0
290
     0
176
     0
 90
        1
176
     0
 40
0.0
176
     0
 90
        0
176
     0
290
     0
176
     0
290
     1
176
     0
290
     1
176
     0
290
     0
176
     0
290
     0
176
     0
290
     0
176
     0
290
     0
176
     0
290
     0
176
     0
290
     0
176
     0
 90
       50
176
     0
 40
0.0
176
     0
 40
1.0
176
     0
 90
        0
176
     0
 62
    18
420
        0
176
     0
 90
       50
176
     0
 90
        3
176
     0
 62
     5
420
      255
176
     0
290
     0
176
     0
 90
       50
176
     0
 90
       50
176
     0
 90
       50
176
     0
290
     0
176
     0
 90
       50
176
     0
 62
   256
176
     0
 40
1.0
176
     0
 90
        2
176
     0
  1
strokes_ogs.tif
176
     0
290
     0
176
     0
 40
1.0
176
     0
 40
1.0
176
     0
1001
ACAD
1000
AcDbSavedByObjectVersion
1070
     0
  0
VISUALSTYLE
  5
37
102
{ACAD_REACTORS
330
29
102
}
330
29
100
AcDbVisualStyle
  2
Linepattern
 70
    14
177
     3
291
     1
 70
    58
 90
        2
176
     1
 90
        2
176
     1
 90
        0
176
     1
 90
        0
176
     1
 40
0.6
176
     1
 40
30.0
176
     1
 62
     7
420
 16777215
176
     1
 90
        1
176
     1
 90
        4
176
     1
 62
     7
176
     1
 62
   257
176
     1
 90
        7
176
     1
 90
        7
176
     1
 40
1.0
176
     1
 90
        8
176
     1
 62
     7
176
     1
 40
1.0
176
     1
 90
        1
176
     1
 90
        6
176
     1
 90
        2
176
     1
 62
     7
176
     1
 90
        5
176
     1
 90
        0
176
     1
 90
        0
176
     1
290
     0
176
     1
 90
        1
176
     1
 40
0.0
176
     1
 90
        0
176
     1
290
     0
176
     1
290
     1
176
     1
290
     1
176
     1
290
     0
176
     1
290
     0
176
     1
290
     0
176
     1
290
     0
176
     1
290
     0
176
     1
290
     0
176
     1
 90
       50
176
     1
 40
0.0
176
     1
 40
1.0
176
     1
 90
        0
176
     1
 62
    18
420
        0
176
     1
 90
       50
176
     1
 90
        3
176
     1
 62
     5
420
      255
176
     1
290
     0
176
     1
 90
       50
176
     1
 90
       50
176
     1
 90
       50
176
     1
290
     0
176
     1
 90
       50
176
     1
 62
   256
176
     0
 40
1.0
176
     0
 90
        2
176
     1
  1
strokes_ogs.tif
176
     1
290
     0
176
     1
 40
1.0
176
     1
 40
1.0
176
     1
1001
ACAD
1000
AcDbSavedByObjectVersion
1070
     0
  0
VISUALSTYLE
  5
40
102
{ACAD_REACTORS
330
29
102
}
330
29
100
AcDbVisualStyle
  2
OverhangOff
 70
    21
177
     3
291
     1
 70
    58
 90
        2
176
     0
 90
        2
176
     0
 90
        0
176
     0
 90
        0
176
     0
 40
0.6
176
     0
 40
30.0
176
     0
 62
     7
420
 16777215
176
     0
 90
        1
176
     0
 90
        4
176
     0
 62
     7
176
     0
 62
   257
176
     0
 90
        1
176
     0
 90
        1
176
     0
 40
1.0
176
     0
 90
        9
176
     2
 62
     7
176
     0
 40
1.0
176
     0
 90
        1
176
     0
 90
        6
176
     0
 90
        2
176
     0
 62
     7
176
     0
 90
        5
176
     0
 90
        0
176
     0
 90
        0
176
     0
290
     0
176
     0
 90
        1
176
     0
 40
0.0
176
     0
 90
        0
176
     0
290
     0
176
     0
290
     1
176
     0
290
     1
176
     0
290
     0
176
     0
290
     0
176
     0
290
     0
176
     0
290
     0
176
     0
290
     0
176
     0
290
     0
176
     0
 90
       50
176
     0
 40
0.0
176
     0
 40
1.0
176
     0
 90
        0
176
     0
 62
    18
420
        0
176
     0
 90
       50
176
     0
 90
        3
176
     0
 62
     5
420
      255
176
     0
290
     0
176
     0
 90
       50
176
     0
 90
       50
176
     0
 90
       50
176
     0
290
     0
176
     0
 90
       50
176
     0
 62
   256
176
     0
 40
1.0
176
     0
 90
        2
176
     0
  1
strokes_ogs.tif
176
     0
290
     0
176
     0
 40
1.0
176
     0
 40
1.0
176
     0
1001
ACAD
1000
AcDbSavedByObjectVersion
1070
     0
  0
VISUALSTYLE
  5
33
102
{ACAD_REACTORS
330
29
102
}
330
29
100
AcDbVisualStyle
  2
Realistic
 70
     8
177
     3
291
     0
 70
    58
 90
        2
176
     1
 90
        3
176
     1
 90
        0
176
     1
 90
        2
176
     1
 40
0.6
176
     1
 40
30.0
176
     1
 62
     7
420
 16777215
176
     1
 90
        0
176
     1
 90
        0
176
     1
 62
     7
176
     1
 62
   257
176
     1
 90
        1
176
     1
 90
        1
176
     1
 40
1.0
176
     1
 90
        8
176
     1
 62
   257
176
     1
 40
1.0
176
     1
 90
        1
176
     1
 90
        6
176
     1
 90
        2
176
     1
 62
     7
176
     1
 90
        3
176
     1
 90
        0
176
     1
 90
        0
176
     1
290
     0
176
     1
 90
       13
176
     1
 40
0.0
176
     1
 90
        0
176
     1
290
     0
176
     1
290
     1
176
     1
290
     1
176
     1
290
     0
176
     1
290
     0
176
     1
290
     0
176
     1
290
     0
176
     1
290
     0
176
     1
290
     0
176
     1
 90
       50
176
     1
 40
0.0
176
     1
 40
1.0
176
     1
 90
        0
176
     1
 62
    18
420
        0
176
     1
 90
       50
176
     1
 90
        3
176
     1
 62
     5
420
      255
176
     1
290
     0
176
     1
 90
       50
176
     1
 90
       50
176
     1
 90
       50
176
     1
290
     0
176
     1
 90
       50
176
     1
 62
   256
176
     0
 40
1.0
176
     0
 90
        2
176
     1
  1
strokes_ogs.tif
176
     1
290
     0
176
     1
 40
1.0
176
     1
 40
1.0
176
     1
1001
ACAD
1000
AcDbSavedByObjectVersion
1070
     0
  0
VISUALSTYLE
  5
3E
102
{ACAD_REACTORS
330
29
102
}
330
29
100
AcDbVisualStyle
  2
Shaded
 70
    27
177
     3
291
     0
 70
    58
 90
        2
176
     1
 90
        2
176
     1
 90
        1
176
     1
 90
        2
176
     1
 40
0.6
176
     1
 40
30.0
176
     1
 62
     7
420
 16777215
176
     1
 90
        0
176
     1
 90
        4
176
     1
 62
     7
176
     1
 62
   257
176
     1
 90
        1
176
     1
 90
        1
176
     1
 40
1.0
176
     1
 90
        8
176
     1
 62
   257
176
     1
 40
1.0
176
     1
 90
        1
176
     1
 90
        6
176
     1
 90
        2
176
     1
 62
     8
420
  7895160
176
     1
 90
        3
176
     1
 90
        0
176
     1
 90
        0
176
     1
290
     0
176
     1
 90
        5
176
     1
 40
0.0
176
     1
 90
        0
176
     1
290
     0
176
     1
290
     1
176
     1
290
     1
176
     1
290
     0
176
     1
290
     0
176
     1
290
     0
176
     1
290
     0
176
     1
290
     0
176
     1
290
     0
176
     1
 90
       50
176
     1
 40
0.0
176
     1
 40
1.0
176
     1
 90
        0
176
     1
 62
    18
420
        0
176
     1
 90
       50
176
     1
 90
        3
176
     1
 62
     5
420
      255
176
     1
290
     0
176
     1
 90
       50
176
     1
 90
       50
176
     1
 90
       50
176
     1
290
     0
176
     1
 90
       50
176
     1
 62
   256
176
     0
 40
1.0
176
     0
 90
        2
176
     1
  1
strokes_ogs.tif
176
     1
290
     0
176
     1
 40
1.0
176
     1
 40
1.0
176
     1
1001
ACAD
1000
AcDbSavedByObjectVersion
1070
     0
  0
VISUALSTYLE
  5
3D
102
{ACAD_REACTORS
330
29
102
}
330
29
100
AcDbVisualStyle
  2
Shaded with edges
 70
    26
177
     3
291
     0
 70
    58
 90
        2
176
     1
 90
        2
176
     1
 90
        1
176
     1
 90
        2
176
     1
 40
0.6
176
     1
 40
30.0
176
     1
 62
     7
420
 16777215
176
     1
 90
        1
176
     1
 90
        2
176
     1
 62
     7
176
     1
 62
   257
176
     1
 90
        2
176
     1
 90
        1
176
     1
 40
1.0
176
     1
 90
        8
176
     1
 62
   257
176
     1
 40
1.0
176
     1
 90
        1
176
     1
 90
        6
176
     1
 90
        2
176
     1
 62
     7
176
     1
 90
        3
176
     1
 90
        0
176
     1
 90
        0
176
     1
290
     0
176
     1
 90
        5
176
     1
 40
0.0
176
     1
 90
        0
176
     1
290
     0
176
     1
290
     1
176
     1
290
     1
176
     1
290
     0
176
     1
290
     0
176
     1
290
     0
176
     1
290
     0
176
     1
290
     0
176
     1
290
     0
176
     1
 90
       50
176
     1
 40
0.0
176
     1
 40
1.0
176
     1
 90
        0
176
     1
 62
    18
420
        0
176
     1
 90
       50
176
     1
 90
        3
176
     1
 62
     5
420
      255
176
     1
290
     0
176
     1
 90
       50
176
     1
 90
       50
176
     1
 90
       50
176
     1
290
     0
176
     1
 90
       50
176
     1
 62
   256
176
     0
 40
1.0
176
     0
 90
        2
176
     1
  1
strokes_ogs.tif
176
     1
290
     0
176
     1
 40
1.0
176
     1
 40
1.0
176
     1
1001
ACAD
1000
AcDbSavedByObjectVersion
1070
     0
  0
VISUALSTYLE
  5
3A
102
{ACAD_REACTORS
330
29
102
}
330
29
100
AcDbVisualStyle
  2
Shades of Gray
 70
    23
177
     3
291
     0
 70
    58
 90
        2
176
     1
 90
        2
176
     1
 90
        3
176
     1
 90
        0
176
     1
 40
0.6
176
     1
 40
30.0
176
     1
 62
     7
420
 16777215
176
     1
 90
        2
176
     1
 90
        2
176
     1
 62
     7
176
     1
 62
     7
176
     1
 90
        1
176
     1
 90
        1
176
     1
 40
40.0
176
     1
 90
        8
176
     1
 62
     7
176
     1
 40
1.0
176
     1
 90
        1
176
     1
 90
        6
176
     1
 90
        2
176
     1
 62
     7
176
     1
 90
        3
176
     1
 90
        0
176
     1
 90
        0
176
     1
290
     0
176
     1
 90
        1
176
     1
 40
0.0
176
     1
 90
        0
176
     1
290
     0
176
     1
290
     1
176
     1
290
     1
176
     1
290
     0
176
     1
290
     0
176
     1
290
     0
176
     1
290
     0
176
     1
290
     0
176
     1
290
     0
176
     1
 90
       50
176
     1
 40
0.0
176
     1
 40
1.0
176
     1
 90
        0
176
     1
 62
    18
420
        0
176
     1
 90
       50
176
     1
 90
        3
176
     1
 62
     5
420
      255
176
     1
290
     0
176
     1
 90
       50
176
     1
 90
       50
176
     1
 90
       50
176
     1
290
     0
176
     1
 90
       50
176
     1
 62
   256
176
     0
 40
1.0
176
     0
 90
        2
176
     1
  1
strokes_ogs.tif
176
     1
290
     0
176
     1
 40
1.0
176
     1
 40
1.0
176
     1
1001
ACAD
1000
AcDbSavedByObjectVersion
1070
     0
  0
VISUALSTYLE
  5
3B
102
{ACAD_REACTORS
330
29
102
}
330
29
100
AcDbVisualStyle
  2
Sketchy
 70
    24
177
     3
291
     0
 70
    58
 90
        1
176
     1
 90
        2
176
     1
 90
        2
176
     1
 90
        0
176
     1
 40
0.6
176
     1
 40
30.0
176
     1
 62
     7
420
 16777215
176
     1
 90
        2
176
     1
 90
        2
176
     1
 62
     7
176
     1
 62
     7
176
     1
 90
        1
176
     1
 90
        1
176
     1
 40
40.0
176
     1
 90
       11
176
     1
 62
     7
176
     1
 40
1.0
176
     1
 90
        1
176
     1
 90
        6
176
     1
 90
        2
176
     1
 62
     7
176
     1
 90
        6
176
     1
 90
        0
176
     1
 90
        0
176
     1
290
     0
176
     1
 90
        1
176
     1
 40
0.0
176
     1
 90
        0
176
     1
290
     0
176
     1
290
     1
176
     1
290
     1
176
     1
290
     0
176
     1
290
     0
176
     1
290
     0
176
     1
290
     0
176
     1
290
     0
176
     1
290
     0
176
     1
 90
       50
176
     1
 40
0.0
176
     1
 40
1.0
176
     1
 90
        0
176
     1
 62
    18
420
        0
176
     1
 90
       50
176
     1
 90
        3
176
     1
 62
     5
420
      255
176
     1
290
     0
176
     1
 90
       50
176
     1
 90
       50
176
     1
 90
       50
176
     1
290
     0
176
     1
 90
       50
176
     1
 62
   256
176
     0
 40
1.0
176
     0
 90
        2
176
     1
  1
strokes_ogs.tif
176
     1
290
     0
176
     1
 40
1.0
176
     1
 40
1.0
176
     1
1001
ACAD
1000
AcDbSavedByObjectVersion
1070
     0
  0
VISUALSTYLE
  5
36
102
{ACAD_REACTORS
330
29
102
}
330
29
100
AcDbVisualStyle
  2
Thicken
 70
    13
177
     3
291
     1
 70
    58
 90
        2
176
     1
 90
        2
176
     1
 90
        0
176
     1
 90
        0
176
     1
 40
0.6
176
     1
 40
30.0
176
     1
 62
     7
420
 16777215
176
     1
 90
        1
176
     1
 90
        4
176
     1
 62
     7
176
     1
 62
   257
176
     1
 90
        1
176
     1
 90
        1
176
     1
 40
1.0
176
     1
 90
       12
176
     1
 62
     7
176
     1
 40
1.0
176
     1
 90
        1
176
     1
 90
        6
176
     1
 90
        2
176
     1
 62
     7
176
     1
 90
        5
176
     1
 90
        0
176
     1
 90
        0
176
     1
290
     0
176
     1
 90
        1
176
     1
 40
0.0
176
     1
 90
        0
176
     1
290
     0
176
     1
290
     1
176
     1
290
     1
176
     1
290
     0
176
     1
290
     0
176
     1
290
     0
176
     1
290
     0
176
     1
290
     0
176
     1
290
     0
176
     1
 90
       50
176
     1
 40
0.0
176
     1
 40
1.0
176
     1
 90
        0
176
     1
 62
    18
420
        0
176
     1
 90
       50
176
     1
 90
        3
176
     1
 62
     5
420
      255
176
     1
290
     0
176
     1
 90
       50
176
     1
 90
       50
176
     1
 90
       50
176
     1
290
     0
176
     1
 90
       50
176
     1
 62
   256
176
     0
 40
1.0
176
     0
 90
        2
176
     1
  1
strokes_ogs.tif
176
     1
290
     0
176
     1
 40
1.0
176
     1
 40
1.0
176
     1
1001
ACAD
1000
AcDbSavedByObjectVersion
1070
     0
  0
VISUALSTYLE
  5
30
102
{ACAD_REACTORS
330
29
102
}
330
29
100
AcDbVisualStyle
  2
Wireframe
 70
     5
177
     3
291
     0
 70
    58
 90
        0
176
     1
 90
        2
176
     1
 90
        0
176
     1
 90
        0
176
     1
 40
0.6
176
     1
 40
30.0
176
     1
 62
     7
420
 16777215
176
     1
 90
        1
176
     1
 90
        4
176
     1
 62
     7
176
     1
 62
   257
176
     1
 90
        1
176
     1
 90
        1
176
     1
 40
1.0
176
     1
 90
        0
176
     1
 62
   257
176
     1
 40
1.0
176
     1
 90
        1
176
     1
 90
        6
176
     1
 90
        2
176
     1
 62
     7
176
     1
 90
        3
176
     1
 90
        0
176
     1
 90
        0
176
     1
290
     0
176
     1
 90
        1
176
     1
 40
0.0
176
     1
 90
        0
176
     1
290
     0
176
     1
290
     1
176
     1
290
     1
176
     1
290
     0
176
     1
290
     0
176
     1
290
     0
176
     1
290
     0
176
     1
290
     0
176
     1
290
     0
176
     1
 90
       50
176
     1
 40
0.0
176
     1
 40
1.0
176
     1
 90
        0
176
     1
 62
    18
420
        0
176
     1
 90
       50
176
     1
 90
        3
176
     1
 62
     5
420
      255
176
     1
290
     0
176
     1
 90
       50
176
     1
 90
       50
176
     1
 90
       50
176
     1
290
     0
176
     1
 90
       50
176
     1
 62
   256
176
     0
 40
1.0
176
     0
 90
        2
176
     1
  1
strokes_ogs.tif
176
     1
290
     0
176
     1
 40
1.0
176
     1
 40
1.0
176
     1
1001
ACAD
1000
AcDbSavedByObjectVersion
1070
     0
  0
VISUALSTYLE
  5
3C
102
{ACAD_REACTORS
330
29
102
}
330
29
100
AcDbVisualStyle
  2
X-Ray
 70
    25
177
     3
291
     0
 70
    58
 90
        2
176
     1
 90
        2
176
     1
 90
        1
176
     1
 90
        1
176
     1
 40
0.5
176
     1
 40
30.0
176
     1
 62
     7
420
 16777215
176
     1
 90
        1
176
     1
 90
        0
176
     1
 62
     7
176
     1
 62
   257
176
     1
 90
        1
176
     1
 90
        1
176
     1
 40
1.0
176
     1
 90
        8
176
     1
 62
     7
176
     1
 40
1.0
176
     1
 90
        1
176
     1
 90
        6
176
     1
 90
        2
176
     1
 62
     7
176
     1
 90
        3
176
     1
 90
        0
176
     1
 90
        0
176
     1
290
     0
176
     1
 90
       13
176
     1
 40
0.0
176
     1
 90
        0
176
     1
290
     0
176
     1
290
     1
176
     1
290
     1
176
     1
290
     0
176
     1
290
     0
176
     1
290
     0
176
     1
290
     0
176
     1
290
     0
176
     1
290
     0
176
     1
 90
       50
176
     1
 40
0.0
176
     1
 40
1.0
176
     1
 90
        0
176
     1
 62
    18
420
        0
176
     1
 90
       50
176
     1
 90
        3
176
     1
 62
     5
420
      255
176
     1
290
     0
176
     1
 90
       50
176
     1
 90
       50
176
     1
 90
       50
176
     1
290
     0
176
     1
 90
       50
176
     1
 62
   256
176
     0
 40
1.0
176
     0
 90
        2
176
     1
  1
strokes_ogs.tif
176
     1
290
     0
176
     1
 40
1.0
176
     1
 40
1.0
176
     1
1001
ACAD
1000
AcDbSavedByObjectVersion
1070
     0
  0
DICTIONARYVAR
  5
B5
102
{ACAD_REACTORS
330
B0
102
}
330
B0
100
DictionaryVariables
280
     0
  1
1:1
  0
DICTIONARYVAR
  5
B2
102
{ACAD_REACTORS
330
B0
102
}
330
B0
100
DictionaryVariables
280
     0
  1
STANDARD
  0
DICTIONARYVAR
  5
B1
102
{ACAD_REACTORS
330
B0
102
}
330
B0
100
DictionaryVariables
280
     0
  1
STANDARD
  0
DICTIONARYVAR
  5
B3
102
{ACAD_REACTORS
330
B0
102
}
330
B0
100
DictionaryVariables
280
     0
  1
Imperial24
  0
DICTIONARYVAR
  5
B4
102
{ACAD_REACTORS
330
B0
102
}
330
B0
100
DictionaryVariables
280
     0
  1
Imperial24
  0
DICTIONARY
  5
BB
330
6B
100
AcDbDictionary
280
     1
281
     1
  3
ACAD_XREC_ROUNDTRIP
360
BC
  0
DICTIONARY
  5
1A
330
19
100
AcDbDictionary
280
     1
281
     1
  3
BUMPTILE
360
1C
  3
DIFFUSETILE
360
1B
  3
OPACITYTILE
360
1F
  3
REFLECTIONTILE
360
1E
  3
REFRACTIONTILE
360
20
  3
SPECULARTILE
360
1D
  0
DICTIONARY
  5
12
330
11
100
AcDbDictionary
280
     1
281
     1
  3
BUMPTILE
360
14
  3
DIFFUSETILE
360
13
  3
OPACITYTILE
360
17
  3
REFLECTIONTILE
360
16
  3
REFRACTIONTILE
360
18
  3
SPECULARTILE
360
15
  0
DICTIONARY
  5
22
330
21
100
AcDbDictionary
280
     1
281
     1
  3
BUMPTILE
360
24
  3
DIFFUSETILE
360
23
  3
OPACITYTILE
360
27
  3
REFLECTIONTILE
360
26
  3
REFRACTIONTILE
360
28
  3
SPECULARTILE
360
25
  0
DICTIONARY
  5
B9
330
69
100
AcDbDictionary
280
     1
281
     1
  3
ACAD_XREC_ROUNDTRIP
360
BA
  0
DICTIONARY
  5
B6
330
65
100
AcDbDictionary
280
     1
281
     1
  3
ACAD_ROUNDTRIP_2008_TABLESTYLE_CELLSTYLEMAP
360
B7
  0
XRECORD
  5
BC
102
{ACAD_REACTORS
330
BB
102
}
330
BB
100
AcDbXrecord
280
     1
102
DISPLAYNAME
  1
Imperial24
102
FLAGS
 90
        0
  0
XRECORD
  5
1C
102
{ACAD_REACTORS
330
1A
102
}
330
1A
100
AcDbXrecord
280
     1
270
     1
271
     1
  0
XRECORD
  5
1B
102
{ACAD_REACTORS
330
1A
102
}
330
1A
100
AcDbXrecord
280
     1
270
     1
271
     1
  0
XRECORD
  5
1F
102
{ACAD_REACTORS
330
1A
102
}
330
1A
100
AcDbXrecord
280
     1
270
     1
271
     1
  0
XRECORD
  5
1E
102
{ACAD_REACTORS
330
1A
102
}
330
1A
100
AcDbXrecord
280
     1
270
     1
271
     1
  0
XRECORD
  5
20
102
{ACAD_REACTORS
330
1A
102
}
330
1A
100
AcDbXrecord
280
     1
270
     1
271
     1
  0
XRECORD
  5
1D
102
{ACAD_REACTORS
330
1A
102
}
330
1A
100
AcDbXrecord
280
     1
270
     1
271
     1
  0
XRECORD
  5
14
102
{ACAD_REACTORS
330
12
102
}
330
12
100
AcDbXrecord
280
     1
270
     1
271
     1
  0
XRECORD
  5
13
102
{ACAD_REACTORS
330
12
102
}
330
12
100
AcDbXrecord
280
     1
270
     1
271
     1
  0
XRECORD
  5
17
102
{ACAD_REACTORS
330
12
102
}
330
12
100
AcDbXrecord
280
     1
270
     1
271
     1
  0
XRECORD
  5
16
102
{ACAD_REACTORS
330
12
102
}
330
12
100
AcDbXrecord
280
     1
270
     1
271
     1
  0
XRECORD
  5
18
102
{ACAD_REACTORS
330
12
102
}
330
12
100
AcDbXrecord
280
     1
270
     1
271
     1
  0
XRECORD
  5
15
102
{ACAD_REACTORS
330
12
102
}
330
12
100
AcDbXrecord
280
     1
270
     1
271
     1
  0
XRECORD
  5
24
102
{ACAD_REACTORS
330
22
102
}
330
22
100
AcDbXrecord
280
     1
270
     1
271
     1
  0
XRECORD
  5
23
102
{ACAD_REACTORS
330
22
102
}
330
22
100
AcDbXrecord
280
     1
270
     1
271
     1
  0
XRECORD
  5
27
102
{ACAD_REACTORS
330
22
102
}
330
22
100
AcDbXrecord
280
     1
270
     1
271
     1
  0
XRECORD
  5
26
102
{ACAD_REACTORS
330
22
102
}
330
22
100
AcDbXrecord
280
     1
270
     1
271
     1
  0
XRECORD
  5
28
102
{ACAD_REACTORS
330
22
102
}
330
22
100
AcDbXrecord
280
     1
270
     1
271
     1
  0
XRECORD
  5
25
102
{ACAD_REACTORS
330
22
102
}
330
22
100
AcDbXrecord
280
     1
270
     1
271
     1
  0
XRECORD
  5
BA
102
{ACAD_REACTORS
330
B9
102
}
330
B9
100
AcDbXrecord
280
     1
102
DISPLAYNAME
  1
Imperial24
102
FLAGS
 90
        0
  0
CELLSTYLEMAP
  5
B7
102
{ACAD_REACTORS
330
B6
102
}
330
B6
100
AcDbCellStyleMap
 90
        3
300
CELLSTYLE
  1
TABLEFORMAT_BEGIN
 90
        5
170
     1
 91
        0
 92
    32768
 62
   257
 93
        1
300
CONTENTFORMAT
  1
CONTENTFORMAT_BEGIN
 90
        0
 91
        0
 92
      512
 93
        0
300

 40
0.0
140
1.0
 94
        5
 62
     0
340
55
144
0.25
309
CONTENTFORMAT_END
171
     0
 94
        0
309
TABLEFORMAT_END
  1
CELLSTYLE_BEGIN
 90
        1
 91
        1
300
_TITLE
309
CELLSTYLE_END
300
CELLSTYLE
  1
TABLEFORMAT_BEGIN
 90
        5
170
     1
 91
        0
 92
        0
 62
   257
 93
        1
300
CONTENTFORMAT
  1
CONTENTFORMAT_BEGIN
 90
        0
 91
        0
 92
      512
 93
        0
300

 40
0.0
140
1.0
 94
        5
 62
     0
340
55
144
0.18
309
CONTENTFORMAT_END
171
     0
 94
        0
309
TABLEFORMAT_END
  1
CELLSTYLE_BEGIN
 90
        2
 91
        1
300
_HEADER
309
CELLSTYLE_END
300
CELLSTYLE
  1
TABLEFORMAT_BEGIN
 90
        5
170
     1
 91
        0
 92
        0
 62
   257
 93
        1
300
CONTENTFORMAT
  1
CONTENTFORMAT_BEGIN
 90
        0
 91
        0
 92
      512
 93
        0
300

 40
0.0
140
1.0
 94
        2
 62
     0
340
55
144
0.18
309
CONTENTFORMAT_END
171
     0
 94
        0
309
TABLEFORMAT_END
  1
CELLSTYLE_BEGIN
 90
        3
 91
        2
300
_DATA
309
CELLSTYLE_END
  0
ENDSEC
  0
EOF
